SplineFontDB: 3.0
FontName: FiraMath-UltraLight
FullName: Fira Math UltraLight
FamilyName: Fira Math
Weight: UltraLight
Copyright: 
Version: 
ItalicAngle: 0
UnderlinePosition: -100
UnderlineWidth: 50
Ascent: 800
Descent: 200
InvalidEm: 0
LayerCount: 2
Layer: 0 0 "Back" 1
Layer: 1 0 "Fore" 0
XUID: [1021 620 891379711 11562]
OS2Version: 0
OS2_WeightWidthSlopeOnly: 0
OS2_UseTypoMetrics: 1
CreationTime: 1542519054
OS2TypoAscent: 0
OS2TypoAOffset: 1
OS2TypoDescent: 0
OS2TypoDOffset: 1
OS2TypoLinegap: 0
OS2WinAscent: 0
OS2WinAOffset: 1
OS2WinDescent: 0
OS2WinDOffset: 1
HheadAscent: 0
HheadAOffset: 1
HheadDescent: 0
HheadDOffset: 1
OS2Vendor: 'PfEd'
DEI: 91125
Encoding: UnicodeFull
Compacted: 1
UnicodeInterp: none
NameList: AGL For New Fonts
AntiAlias: 1
BeginChars: 1114663 1643

StartChar: uni0021
Encoding: 33 33 1
Width: 240
Flags: W
LayerCount: 2
Fore
SplineSet
136 682 m 1
 136 209 l 1
 103 209 l 1
 103 682 l 1
 136 682 l 1
120 54 m 0
 140 54 153 40 153 22 c 0
 153 4 140 -10 120 -10 c 0
 101 -10 87 4 87 22 c 0
 87 40 101 54 120 54 c 0
EndSplineSet
EndChar

StartChar: uni0022
Encoding: 34 34 2
Width: 336
Flags: W
LayerCount: 2
Fore
SplineSet
83 438 m 1
 79 682 l 1
 115 682 l 1
 110 438 l 1
 83 438 l 1
226 438 m 1
 221 682 l 1
 258 682 l 1
 253 438 l 1
 226 438 l 1
EndSplineSet
EndChar

StartChar: uni0023
Encoding: 35 35 3
Width: 493
Flags: W
LayerCount: 2
Fore
SplineSet
478 456 m 1
 398 456 l 1
 367 222 l 1
 441 222 l 1
 441 192 l 1
 363 192 l 1
 337 0 l 1
 304 0 l 1
 330 192 l 1
 126 192 l 1
 100 0 l 1
 67 0 l 1
 93 192 l 1
 15 192 l 1
 15 222 l 1
 97 222 l 1
 128 456 l 1
 52 456 l 1
 52 486 l 1
 132 486 l 1
 155 662 l 1
 188 662 l 1
 165 486 l 1
 369 486 l 1
 392 662 l 1
 425 662 l 1
 402 486 l 1
 478 486 l 1
 478 456 l 1
334 222 m 1
 365 456 l 1
 161 456 l 1
 130 222 l 1
 334 222 l 1
EndSplineSet
EndChar

StartChar: uni0024
Encoding: 36 36 4
Width: 522
Flags: W
LayerCount: 2
Fore
SplineSet
458 179 m 0
 458 74 384 0 274 -9 c 1
 274 -148 l 1
 244 -148 l 1
 244 -10 l 1
 160 -9 100 23 48 69 c 1
 70 92 l 1
 116 51 169 21 249 21 c 0
 353 21 424 81 424 177 c 0
 424 269 379 303 257 341 c 0
 123 384 74 427 74 515 c 0
 74 601 142 667 244 672 c 1
 244 815 l 1
 274 815 l 1
 274 672 l 1
 347 668 393 642 438 601 c 1
 416 578 l 1
 368 623 323 640 257 640 c 0
 167 640 109 590 109 516 c 0
 109 439 151 407 270 371 c 0
 399 331 458 288 458 179 c 0
EndSplineSet
EndChar

StartChar: uni0025
Encoding: 37 37 5
Width: 770
Flags: W
LayerCount: 2
Fore
SplineSet
608 698 m 1
 636 680 l 1
 172 -19 l 1
 144 -1 l 1
 608 698 l 1
200 674 m 0
 283 674 340 613 340 517 c 0
 340 421 287 358 200 358 c 0
 116 358 59 419 59 515 c 0
 59 611 112 674 200 674 c 0
200 646 m 0
 124 646 93 586 93 515 c 0
 93 446 124 386 200 386 c 0
 275 386 306 446 306 517 c 0
 306 586 275 646 200 646 c 0
570 306 m 0
 654 306 711 245 711 150 c 0
 711 53 658 -10 570 -10 c 0
 487 -10 430 51 430 147 c 0
 430 243 483 306 570 306 c 0
570 278 m 0
 495 278 464 218 464 147 c 0
 464 78 495 18 570 18 c 0
 646 18 677 78 677 150 c 0
 677 218 646 278 570 278 c 0
EndSplineSet
EndChar

StartChar: uni0026
Encoding: 38 38 6
Width: 717
Flags: W
LayerCount: 2
Fore
SplineSet
300 693 m 0
 391 693 455 633 455 547 c 0
 455 470 401 421 293 362 c 1
 518 152 l 1
 550 216 572 278 588 358 c 1
 621 348 l 1
 603 263 576 194 540 131 c 1
 672 9 l 1
 645 -10 l 1
 522 103 l 1
 472 38 407 -10 297 -10 c 0
 186 -10 97 61 97 168 c 0
 97 261 153 316 243 367 c 1
 175 433 141 472 141 542 c 0
 141 627 207 693 300 693 c 0
300 663 m 0
 223 663 176 608 176 543 c 0
 176 494 185 466 271 383 c 1
 374 436 420 482 420 547 c 0
 420 622 366 663 300 663 c 0
266 347 m 1
 180 299 132 246 132 169 c 0
 132 82 202 21 297 21 c 0
 394 21 451 61 499 124 c 1
 266 347 l 1
EndSplineSet
EndChar

StartChar: uni0027
Encoding: 39 39 7
Width: 194
Flags: W
LayerCount: 2
Fore
SplineSet
83 438 m 1
 79 682 l 1
 115 682 l 1
 110 438 l 1
 83 438 l 1
EndSplineSet
EndChar

StartChar: uni0028
Encoding: 40 40 8
Width: 324
Flags: W
LayerCount: 2
Fore
SplineSet
238 832 m 1
 261 818 l 1
 172 687 98 570 98 350 c 0
 98 130 172 13 261 -118 c 1
 238 -132 l 1
 142 3 63 120 63 350 c 0
 63 580 142 697 238 832 c 1
EndSplineSet
EndChar

StartChar: uni0029
Encoding: 41 41 9
Width: 324
Flags: W
LayerCount: 2
Fore
SplineSet
86 832 m 1
 182 697 261 580 261 350 c 0
 261 120 182 3 86 -132 c 1
 63 -118 l 1
 152 13 226 130 226 350 c 0
 226 570 152 687 63 818 c 1
 86 832 l 1
EndSplineSet
EndChar

StartChar: uni002A
Encoding: 42 42 10
Width: 433
Flags: W
LayerCount: 2
Fore
SplineSet
390 597 m 1
 239 552 l 1
 334 425 l 1
 306 405 l 1
 217 536 l 1
 127 405 l 1
 99 425 l 1
 196 550 l 1
 43 597 l 1
 54 627 l 1
 203 573 l 1
 200 734 l 1
 234 734 l 1
 231 575 l 1
 380 627 l 1
 390 597 l 1
EndSplineSet
EndChar

StartChar: uni002B
Encoding: 43 43 11
Width: 489
Flags: W
LayerCount: 2
Fore
SplineSet
262 500 m 1
 262 347 l 1
 415 347 l 1
 415 315 l 1
 262 315 l 1
 262 161 l 1
 228 161 l 1
 228 315 l 1
 74 315 l 1
 74 347 l 1
 228 347 l 1
 228 500 l 1
 262 500 l 1
EndSplineSet
EndChar

StartChar: uni002C
Encoding: 44 44 12
Width: 184
Flags: W
LayerCount: 2
Fore
SplineSet
92 54 m 0
 112 54 124 40 124 22 c 0
 124 8 118 -7 112 -21 c 2
 64 -141 l 1
 38 -141 l 1
 78 -7 l 1
 66 -2 59 9 59 22 c 0
 59 40 73 54 92 54 c 0
EndSplineSet
EndChar

StartChar: uni002D
Encoding: 45 45 13
Width: 399
Flags: W
LayerCount: 2
Fore
SplineSet
74 297 m 1
 74 329 l 1
 325 329 l 1
 325 297 l 1
 74 297 l 1
EndSplineSet
EndChar

StartChar: uni002E
Encoding: 46 46 14
Width: 184
Flags: W
LayerCount: 2
Fore
SplineSet
92 54 m 0
 112 54 124 40 124 22 c 0
 124 4 112 -10 92 -10 c 0
 73 -10 59 4 59 22 c 0
 59 40 73 54 92 54 c 0
EndSplineSet
EndChar

StartChar: uni002F
Encoding: 47 47 15
Width: 520
Flags: W
LayerCount: 2
Fore
SplineSet
360 800 m 1
 391 791 l 1
 159 -97 l 1
 128 -88 l 1
 360 800 l 1
EndSplineSet
EndChar

StartChar: uni0030
Encoding: 48 48 16
Width: 544
Flags: W
LayerCount: 2
Fore
SplineSet
272 674 m 0
 400 674 470 560 470 330 c 0
 470 104 399 -10 272 -10 c 0
 145 -10 74 105 74 332 c 0
 74 560 145 674 272 674 c 0
272 643 m 0
 169 643 109 543 109 332 c 0
 109 122 168 21 272 21 c 0
 377 21 435 120 435 330 c 0
 435 541 378 643 272 643 c 0
EndSplineSet
EndChar

StartChar: uni0031
Encoding: 49 49 17
Width: 398
Flags: W
LayerCount: 2
Fore
SplineSet
270 662 m 1
 270 0 l 1
 236 0 l 1
 236 622 l 1
 66 515 l 1
 49 542 l 1
 242 662 l 1
 270 662 l 1
EndSplineSet
EndChar

StartChar: uni0032
Encoding: 50 50 18
Width: 467
Flags: W
LayerCount: 2
Fore
SplineSet
222 674 m 0
 330 674 393 602 393 505 c 0
 393 367 323 289 88 33 c 1
 412 33 l 1
 406 0 l 1
 46 0 l 1
 46 32 l 1
 300 308 358 379 358 502 c 0
 358 588 306 643 221 643 c 0
 152 643 103 613 64 566 c 1
 39 584 l 1
 90 645 146 674 222 674 c 0
EndSplineSet
EndChar

StartChar: uni0033
Encoding: 51 51 19
Width: 477
Flags: W
LayerCount: 2
Fore
SplineSet
218 674 m 0
 325 674 391 606 391 511 c 0
 391 417 332 363 259 353 c 1
 341 352 408 292 408 184 c 0
 408 69 330 -10 208 -10 c 0
 130 -10 73 18 24 73 c 1
 48 93 l 1
 96 39 145 21 206 21 c 0
 314 21 373 88 373 183 c 0
 373 290 308 336 212 336 c 2
 172 336 l 1
 177 366 l 1
 209 366 l 2
 281 366 356 409 356 510 c 0
 356 592 301 643 216 643 c 0
 158 643 112 625 62 579 c 1
 42 601 l 1
 91 649 144 674 218 674 c 0
EndSplineSet
EndChar

StartChar: uni0034
Encoding: 52 52 20
Width: 509
Flags: W
LayerCount: 2
Fore
SplineSet
469 213 m 1
 469 182 l 1
 378 182 l 1
 378 0 l 1
 344 0 l 1
 344 182 l 1
 49 182 l 1
 49 209 l 1
 253 674 l 1
 282 662 l 1
 86 213 l 1
 344 213 l 1
 348 418 l 1
 378 418 l 1
 378 213 l 1
 469 213 l 1
EndSplineSet
EndChar

StartChar: uni0035
Encoding: 53 53 21
Width: 477
Flags: W
LayerCount: 2
Fore
SplineSet
401 662 m 1
 395 632 l 1
 119 632 l 1
 119 382 l 1
 147 401 184 418 237 418 c 0
 351 418 422 340 422 214 c 0
 422 84 345 -10 220 -10 c 0
 142 -10 85 18 39 66 c 1
 63 88 l 1
 105 44 151 21 221 21 c 0
 322 21 386 97 386 214 c 0
 386 330 324 387 234 387 c 0
 183 387 153 375 112 350 c 1
 85 350 l 1
 85 662 l 1
 401 662 l 1
EndSplineSet
EndChar

StartChar: uni0036
Encoding: 54 54 22
Width: 517
Flags: W
LayerCount: 2
Fore
SplineSet
287 429 m 0
 382 429 458 363 458 222 c 0
 458 75 382 -10 275 -10 c 0
 126 -10 74 127 74 291 c 0
 74 531 162 674 304 674 c 0
 353 674 386 659 419 636 c 1
 401 611 l 1
 371 632 342 643 303 643 c 0
 182 643 113 506 109 321 c 1
 150 383 207 429 287 429 c 0
275 21 m 0
 373 21 423 106 423 221 c 0
 423 343 364 398 285 398 c 0
 210 398 150 349 109 276 c 1
 112 126 156 21 275 21 c 0
EndSplineSet
EndChar

StartChar: uni0037
Encoding: 55 55 23
Width: 432
Flags: W
LayerCount: 2
Fore
SplineSet
392 662 m 1
 392 635 l 1
 122 -6 l 1
 89 5 l 1
 356 631 l 1
 34 631 l 1
 34 662 l 1
 392 662 l 1
EndSplineSet
EndChar

StartChar: uni0038
Encoding: 56 56 24
Width: 529
Flags: W
LayerCount: 2
Fore
SplineSet
317 348 m 1
 422 305 470 261 470 169 c 0
 470 59 385 -10 263 -10 c 0
 138 -10 59 62 59 168 c 0
 59 258 112 324 210 360 c 1
 127 395 89 435 89 512 c 0
 89 614 172 674 265 674 c 0
 355 674 441 619 441 511 c 0
 441 439 402 392 317 348 c 1
124 511 m 0
 124 448 149 414 246 376 c 2
 287 360 l 1
 370 402 406 444 406 510 c 0
 406 598 344 644 265 644 c 0
 186 644 124 596 124 511 c 0
264 22 m 0
 362 22 434 72 434 169 c 0
 434 257 388 290 285 331 c 2
 245 347 l 1
 138 308 94 255 94 168 c 0
 94 72 164 22 264 22 c 0
EndSplineSet
EndChar

StartChar: uni0039
Encoding: 57 57 25
Width: 513
Flags: W
LayerCount: 2
Fore
SplineSet
252 674 m 0
 386 674 444 571 444 400 c 0
 444 148 328 48 126 -17 c 1
 116 11 l 1
 293 68 397 157 409 354 c 1
 365 288 307 252 237 252 c 0
 134 252 59 331 59 458 c 0
 59 591 139 674 252 674 c 0
241 283 m 0
 313 283 362 324 410 396 c 1
 409 555 365 643 254 643 c 0
 157 643 95 577 95 457 c 0
 95 347 152 283 241 283 c 0
EndSplineSet
EndChar

StartChar: uni003A
Encoding: 58 58 26
Width: 184
Flags: W
LayerCount: 2
Fore
SplineSet
92 460 m 0
 112 460 124 446 124 428 c 0
 124 410 112 396 92 396 c 0
 73 396 59 410 59 428 c 0
 59 446 73 460 92 460 c 0
92 54 m 0
 112 54 124 40 124 22 c 0
 124 4 112 -10 92 -10 c 0
 73 -10 59 4 59 22 c 0
 59 40 73 54 92 54 c 0
EndSplineSet
EndChar

StartChar: uni003B
Encoding: 59 59 27
Width: 184
Flags: W
LayerCount: 2
Fore
SplineSet
92 460 m 0
 112 460 124 446 124 428 c 0
 124 410 112 396 92 396 c 0
 73 396 59 410 59 428 c 0
 59 446 73 460 92 460 c 0
92 54 m 0
 112 54 124 40 124 22 c 0
 124 8 118 -7 112 -21 c 2
 64 -141 l 1
 38 -141 l 1
 78 -7 l 1
 66 -2 59 9 59 22 c 0
 59 40 73 54 92 54 c 0
EndSplineSet
EndChar

StartChar: uni003C
Encoding: 60 60 28
Width: 494
Flags: W
LayerCount: 2
Fore
SplineSet
408 513 m 1
 421 483 l 1
 110 333 l 1
 421 179 l 1
 408 150 l 1
 73 320 l 1
 73 346 l 1
 408 513 l 1
EndSplineSet
EndChar

StartChar: uni003D
Encoding: 61 61 29
Width: 489
Flags: W
LayerCount: 2
Fore
SplineSet
74 396 m 1
 74 428 l 1
 415 428 l 1
 415 396 l 1
 74 396 l 1
74 233 m 1
 74 266 l 1
 415 266 l 1
 415 233 l 1
 74 233 l 1
EndSplineSet
EndChar

StartChar: uni003E
Encoding: 62 62 30
Width: 494
Flags: W
LayerCount: 2
Fore
SplineSet
87 513 m 1
 421 346 l 1
 421 320 l 1
 87 150 l 1
 73 179 l 1
 384 333 l 1
 73 483 l 1
 87 513 l 1
EndSplineSet
EndChar

StartChar: uni003F
Encoding: 63 63 31
Width: 439
Flags: W
LayerCount: 2
Fore
SplineSet
231 693 m 0
 331 693 391 630 391 553 c 0
 391 406 207 425 207 271 c 2
 207 209 l 1
 174 209 l 1
 174 274 l 2
 174 442 355 421 355 553 c 0
 355 618 306 661 231 661 c 0
 163 661 121 638 73 586 c 1
 49 605 l 1
 101 664 155 693 231 693 c 0
193 54 m 0
 213 54 225 40 225 22 c 0
 225 4 213 -10 193 -10 c 0
 173 -10 160 4 160 22 c 0
 160 40 173 54 193 54 c 0
EndSplineSet
EndChar

StartChar: uni0040
Encoding: 64 64 32
Width: 1020
Flags: W
LayerCount: 2
Fore
SplineSet
526 693 m 0
 790 693 925 512 925 309 c 0
 925 84 837 15 755 15 c 0
 692 15 649 60 637 127 c 1
 606 57 557 17 487 17 c 0
 398 17 322 89 322 232 c 0
 322 402 413 479 524 479 c 0
 575 479 623 463 661 445 c 1
 661 187 l 2
 661 90 698 44 755 44 c 0
 822 44 890 100 890 307 c 0
 890 501 761 661 526 661 c 0
 290 661 130 476 130 239 c 0
 130 -13 292 -169 525 -169 c 0
 601 -169 657 -157 711 -136 c 1
 721 -166 l 1
 665 -185 612 -200 524 -200 c 0
 277 -200 95 -35 95 239 c 0
 95 492 268 693 526 693 c 0
489 47 m 0
 559 47 610 105 628 169 c 1
 628 424 l 1
 595 440 565 448 525 448 c 0
 422 448 357 369 357 232 c 0
 357 109 412 47 489 47 c 0
EndSplineSet
EndChar

StartChar: uni0041
Encoding: 65 65 33
Width: 559
Flags: W
LayerCount: 2
Fore
SplineSet
498 0 m 1
 432 197 l 1
 125 197 l 1
 59 0 l 1
 24 0 l 1
 258 682 l 1
 301 682 l 1
 535 0 l 1
 498 0 l 1
136 229 m 1
 421 229 l 1
 279 654 l 1
 136 229 l 1
EndSplineSet
EndChar

StartChar: uni0042
Encoding: 66 66 34
Width: 590
Flags: W
LayerCount: 2
Fore
SplineSet
374 362 m 1
 459 357 531 305 531 186 c 0
 531 66 447 0 303 0 c 2
 119 0 l 1
 119 682 l 1
 264 682 l 2
 411 682 497 627 497 513 c 0
 497 423 449 375 374 362 c 1
268 650 m 2
 154 650 l 1
 154 375 l 1
 316 375 l 2
 403 375 461 427 461 512 c 0
 461 608 392 650 268 650 c 2
304 32 m 2
 423 32 495 82 495 186 c 0
 495 295 422 345 321 345 c 2
 154 345 l 1
 154 32 l 1
 304 32 l 2
EndSplineSet
EndChar

StartChar: uni0043
Encoding: 67 67 35
Width: 543
Flags: W
LayerCount: 2
Fore
SplineSet
345 693 m 0
 421 693 466 670 510 633 c 1
 491 608 l 1
 444 644 408 660 347 660 c 0
 217 660 110 567 110 341 c 0
 110 127 214 23 343 23 c 0
 418 23 457 47 498 81 c 1
 518 56 l 1
 475 18 421 -10 342 -10 c 0
 189 -10 74 112 74 341 c 0
 74 577 195 693 345 693 c 0
EndSplineSet
EndChar

StartChar: uni0044
Encoding: 68 68 36
Width: 623
Flags: W
LayerCount: 2
Fore
SplineSet
249 682 m 2
 397 682 550 627 550 348 c 0
 550 61 388 0 253 0 c 2
 119 0 l 1
 119 682 l 1
 249 682 l 2
247 650 m 2
 154 650 l 1
 154 32 l 1
 254 32 l 2
 380 32 513 89 513 348 c 0
 513 612 375 650 247 650 c 2
EndSplineSet
EndChar

StartChar: uni0045
Encoding: 69 69 37
Width: 496
Flags: W
LayerCount: 2
Fore
SplineSet
449 682 m 1
 444 650 l 1
 154 650 l 1
 154 374 l 1
 405 374 l 1
 405 343 l 1
 154 343 l 1
 154 32 l 1
 455 32 l 1
 455 0 l 1
 119 0 l 1
 119 682 l 1
 449 682 l 1
EndSplineSet
EndChar

StartChar: uni0046
Encoding: 70 70 38
Width: 473
Flags: W
LayerCount: 2
Fore
SplineSet
119 0 m 1
 119 682 l 1
 444 682 l 1
 439 650 l 1
 154 650 l 1
 154 360 l 1
 400 360 l 1
 400 329 l 1
 154 329 l 1
 154 0 l 1
 119 0 l 1
EndSplineSet
EndChar

StartChar: uni0047
Encoding: 71 71 39
Width: 609
Flags: W
LayerCount: 2
Fore
SplineSet
350 693 m 0
 423 693 472 672 525 631 c 1
 504 606 l 1
 456 643 411 660 350 660 c 0
 233 660 110 573 110 345 c 0
 110 126 208 22 352 22 c 0
 415 22 460 36 505 61 c 1
 505 328 l 1
 363 328 l 1
 359 360 l 1
 540 360 l 1
 540 42 l 1
 482 8 417 -10 352 -10 c 0
 188 -10 74 109 74 345 c 0
 74 584 213 693 350 693 c 0
EndSplineSet
EndChar

StartChar: uni0048
Encoding: 72 72 40
Width: 663
Flags: W
LayerCount: 2
Fore
SplineSet
509 0 m 1
 509 344 l 1
 154 344 l 1
 154 0 l 1
 119 0 l 1
 119 682 l 1
 154 682 l 1
 154 376 l 1
 509 376 l 1
 509 682 l 1
 544 682 l 1
 544 0 l 1
 509 0 l 1
EndSplineSet
EndChar

StartChar: uni0049
Encoding: 73 73 41
Width: 273
Flags: W
LayerCount: 2
Fore
SplineSet
154 682 m 1
 154 0 l 1
 119 0 l 1
 119 682 l 1
 154 682 l 1
EndSplineSet
EndChar

StartChar: uni004A
Encoding: 74 74 42
Width: 281
Flags: W
LayerCount: 2
Fore
SplineSet
168 682 m 1
 168 89 l 2
 168 -17 141 -57 29 -106 c 1
 19 -80 l 1
 110 -37 133 -2 133 91 c 2
 133 682 l 1
 168 682 l 1
EndSplineSet
EndChar

StartChar: uni004B
Encoding: 75 75 43
Width: 518
Flags: W
LayerCount: 2
Fore
SplineSet
154 682 m 1
 154 0 l 1
 119 0 l 1
 119 682 l 1
 154 682 l 1
502 682 m 1
 201 367 l 1
 518 0 l 1
 475 0 l 1
 157 367 l 1
 460 682 l 1
 502 682 l 1
EndSplineSet
EndChar

StartChar: uni004C
Encoding: 76 76 44
Width: 462
Flags: W
LayerCount: 2
Fore
SplineSet
154 682 m 1
 154 33 l 1
 442 33 l 1
 436 0 l 1
 119 0 l 1
 119 682 l 1
 154 682 l 1
EndSplineSet
EndChar

StartChar: uni004D
Encoding: 77 77 45
Width: 765
Flags: W
LayerCount: 2
Fore
SplineSet
619 682 m 1
 691 0 l 1
 657 0 l 1
 620 340 l 2
 608 452 594 584 589 650 c 1
 399 83 l 1
 366 83 l 1
 172 650 l 1
 168 591 153 456 142 348 c 2
 108 0 l 1
 74 0 l 1
 144 682 l 1
 196 682 l 1
 383 126 l 1
 566 682 l 1
 619 682 l 1
EndSplineSet
EndChar

StartChar: uni004E
Encoding: 78 78 46
Width: 665
Flags: W
LayerCount: 2
Fore
SplineSet
547 682 m 1
 547 0 l 1
 503 0 l 1
 148 643 l 1
 151 603 153 550 153 430 c 2
 153 0 l 1
 119 0 l 1
 119 682 l 1
 163 682 l 1
 517 39 l 1
 515 78 513 146 513 237 c 2
 513 682 l 1
 547 682 l 1
EndSplineSet
EndChar

StartChar: uni004F
Encoding: 79 79 47
Width: 690
Flags: W
LayerCount: 2
Fore
SplineSet
345 693 m 0
 507 693 616 571 616 340 c 0
 616 118 512 -10 345 -10 c 0
 184 -10 74 114 74 339 c 0
 74 565 185 693 345 693 c 0
345 660 m 0
 206 660 110 553 110 339 c 0
 110 130 207 22 345 22 c 0
 491 22 580 130 580 340 c 0
 580 555 486 660 345 660 c 0
EndSplineSet
EndChar

StartChar: uni0050
Encoding: 80 80 48
Width: 562
Flags: W
LayerCount: 2
Fore
SplineSet
265 682 m 2
 420 682 509 623 509 483 c 0
 509 332 406 276 260 276 c 2
 154 276 l 1
 154 0 l 1
 119 0 l 1
 119 682 l 1
 265 682 l 2
263 308 m 2
 385 308 472 349 472 482 c 0
 472 607 398 651 265 651 c 2
 154 651 l 1
 154 308 l 1
 263 308 l 2
EndSplineSet
EndChar

StartChar: uni0051
Encoding: 81 81 49
Width: 690
Flags: W
LayerCount: 2
Fore
SplineSet
432 13 m 1
 505 11 581 -6 637 -56 c 1
 613 -85 l 1
 541 -23 465 -8 345 -8 c 0
 184 -8 74 114 74 339 c 0
 74 565 185 693 345 693 c 0
 507 693 616 571 616 340 c 0
 616 137 536 41 432 13 c 1
110 339 m 0
 110 130 207 22 345 22 c 0
 491 22 580 130 580 340 c 0
 580 555 486 660 345 660 c 0
 206 660 110 553 110 339 c 0
EndSplineSet
EndChar

StartChar: uni0052
Encoding: 82 82 50
Width: 579
Flags: W
LayerCount: 2
Fore
SplineSet
498 0 m 1
 313 318 l 1
 154 318 l 1
 154 0 l 1
 119 0 l 1
 119 682 l 1
 274 682 l 2
 434 682 505 618 505 502 c 0
 505 396 444 345 350 324 c 1
 540 0 l 1
 498 0 l 1
154 350 m 1
 281 350 l 2
 399 350 468 397 468 502 c 0
 468 598 415 651 271 651 c 2
 154 651 l 1
 154 350 l 1
EndSplineSet
EndChar

StartChar: uni0053
Encoding: 83 83 51
Width: 535
Flags: W
LayerCount: 2
Fore
SplineSet
265 693 m 0
 350 693 400 665 450 620 c 1
 428 596 l 1
 378 641 333 660 266 660 c 0
 171 660 111 608 111 532 c 0
 111 453 155 419 277 382 c 0
 410 342 471 297 471 184 c 0
 471 68 383 -10 257 -10 c 0
 167 -10 104 23 48 73 c 1
 70 97 l 1
 120 52 173 22 256 22 c 0
 363 22 436 84 436 182 c 0
 436 277 390 313 264 352 c 0
 126 395 75 440 75 532 c 0
 75 623 150 693 265 693 c 0
EndSplineSet
EndChar

StartChar: uni0054
Encoding: 84 84 52
Width: 480
Flags: W
LayerCount: 2
Fore
SplineSet
470 682 m 1
 464 649 l 1
 257 649 l 1
 257 0 l 1
 222 0 l 1
 222 649 l 1
 15 649 l 1
 15 682 l 1
 470 682 l 1
EndSplineSet
EndChar

StartChar: uni0055
Encoding: 85 85 53
Width: 644
Flags: W
LayerCount: 2
Fore
SplineSet
536 682 m 1
 536 209 l 2
 536 81 470 -10 323 -10 c 0
 174 -10 109 81 109 209 c 2
 109 682 l 1
 144 682 l 1
 144 212 l 2
 144 99 196 22 323 22 c 0
 450 22 500 101 500 212 c 2
 500 682 l 1
 536 682 l 1
EndSplineSet
EndChar

StartChar: uni0056
Encoding: 86 86 54
Width: 539
Flags: W
LayerCount: 2
Fore
SplineSet
515 682 m 1
 291 0 l 1
 248 0 l 1
 24 682 l 1
 61 682 l 1
 270 34 l 1
 478 682 l 1
 515 682 l 1
EndSplineSet
EndChar

StartChar: uni0057
Encoding: 87 87 55
Width: 798
Flags: W
LayerCount: 2
Fore
SplineSet
764 682 m 1
 606 0 l 1
 564 0 l 1
 399 646 l 1
 233 0 l 1
 192 0 l 1
 34 682 l 1
 71 682 l 1
 215 36 l 1
 378 682 l 1
 420 682 l 1
 585 36 l 1
 728 682 l 1
 764 682 l 1
EndSplineSet
EndChar

StartChar: uni0058
Encoding: 88 88 56
Width: 496
Flags: W
LayerCount: 2
Fore
SplineSet
265 370 m 1
 482 0 l 1
 442 0 l 1
 245 346 l 1
 53 0 l 1
 14 0 l 1
 224 369 l 1
 36 682 l 1
 76 682 l 1
 245 392 l 1
 412 682 l 1
 450 682 l 1
 265 370 l 1
EndSplineSet
EndChar

StartChar: uni0059
Encoding: 89 89 57
Width: 503
Flags: W
LayerCount: 2
Fore
SplineSet
484 682 m 1
 271 271 l 1
 271 0 l 1
 235 0 l 1
 235 270 l 1
 19 682 l 1
 59 682 l 1
 254 302 l 1
 445 682 l 1
 484 682 l 1
EndSplineSet
EndChar

StartChar: uni005A
Encoding: 90 90 58
Width: 512
Flags: W
LayerCount: 2
Fore
SplineSet
462 682 m 1
 462 652 l 1
 81 33 l 1
 451 33 l 1
 446 0 l 1
 39 0 l 1
 39 31 l 1
 422 650 l 1
 77 650 l 1
 77 682 l 1
 462 682 l 1
EndSplineSet
EndChar

StartChar: uni005B
Encoding: 91 91 59
Width: 314
Flags: W
LayerCount: 2
Fore
SplineSet
236 800 m 1
 236 772 l 1
 130 772 l 1
 130 -81 l 1
 236 -81 l 1
 236 -109 l 1
 98 -109 l 1
 98 800 l 1
 236 800 l 1
EndSplineSet
EndChar

StartChar: uni005C
Encoding: 92 92 60
Width: 520
Flags: W
LayerCount: 2
Fore
SplineSet
159 800 m 1
 391 -88 l 1
 360 -97 l 1
 128 792 l 1
 159 800 l 1
EndSplineSet
EndChar

StartChar: uni005D
Encoding: 93 93 61
Width: 314
Flags: W
LayerCount: 2
Fore
SplineSet
216 800 m 1
 216 -109 l 1
 78 -109 l 1
 78 -81 l 1
 184 -81 l 1
 184 772 l 1
 78 772 l 1
 78 800 l 1
 216 800 l 1
EndSplineSet
EndChar

StartChar: uni005E
Encoding: 94 94 62
Width: 524
Flags: W
LayerCount: 2
Fore
SplineSet
275 827 m 1
 456 527 l 1
 414 527 l 1
 262 786 l 1
 111 527 l 1
 68 527 l 1
 250 827 l 1
 275 827 l 1
EndSplineSet
EndChar

StartChar: uni005F
Encoding: 95 95 63
Width: 520
Flags: W
LayerCount: 2
Fore
SplineSet
37 -107 m 1
 37 -76 l 1
 484 -76 l 1
 484 -107 l 1
 37 -107 l 1
EndSplineSet
EndChar

StartChar: uni0060
Encoding: 96 96 64
Width: 256
Flags: W
LayerCount: 2
Fore
SplineSet
46 769 m 1
 226 673 l 1
 214 650 l 1
 30 734 l 1
 46 769 l 1
EndSplineSet
EndChar

StartChar: uni0061
Encoding: 97 97 65
Width: 526
Flags: W
LayerCount: 2
Fore
SplineSet
413 111 m 2
 413 44 427 26 457 14 c 1
 449 -10 l 1
 408 2 386 27 384 84 c 1
 346 22 291 -10 217 -10 c 0
 118 -10 59 51 59 144 c 0
 59 252 141 310 265 310 c 2
 379 310 l 1
 379 368 l 2
 379 456 347 500 250 500 c 0
 205 500 159 488 108 468 c 1
 99 496 l 1
 151 518 199 531 252 531 c 0
 365 531 413 476 413 371 c 2
 413 111 l 2
219 21 m 0
 295 21 345 59 379 123 c 1
 379 281 l 1
 272 281 l 2
 162 281 95 236 95 145 c 0
 95 66 143 21 219 21 c 0
EndSplineSet
EndChar

StartChar: uni0062
Encoding: 98 98 66
Width: 566
Flags: W
LayerCount: 2
Fore
SplineSet
311 531 m 0
 430 531 497 436 497 264 c 0
 497 94 429 -10 304 -10 c 0
 232 -10 179 28 147 72 c 1
 143 0 l 1
 114 0 l 1
 114 734 l 1
 148 739 l 1
 148 444 l 1
 186 495 239 531 311 531 c 0
302 21 m 0
 405 21 462 106 462 264 c 0
 462 421 408 500 309 500 c 0
 235 500 191 461 148 405 c 1
 148 110 l 1
 184 57 234 21 302 21 c 0
EndSplineSet
EndChar

StartChar: uni0063
Encoding: 99 99 67
Width: 463
Flags: W
LayerCount: 2
Fore
SplineSet
284 531 m 0
 341 531 381 516 423 480 c 1
 404 457 l 1
 372 485 336 499 285 499 c 0
 182 499 105 418 105 257 c 0
 105 100 181 21 284 21 c 0
 336 21 375 39 409 68 c 1
 428 44 l 1
 391 11 343 -10 286 -10 c 0
 156 -10 69 87 69 257 c 0
 69 426 155 531 284 531 c 0
EndSplineSet
EndChar

StartChar: uni0064
Encoding: 100 100 68
Width: 571
Flags: W
LayerCount: 2
Fore
SplineSet
424 739 m 1
 458 734 l 1
 458 0 l 1
 428 0 l 1
 424 86 l 1
 397 35 347 -10 263 -10 c 0
 146 -10 69 90 69 258 c 0
 69 419 145 531 273 531 c 0
 352 531 396 491 424 454 c 1
 424 739 l 1
265 21 m 0
 342 21 388 61 424 132 c 1
 424 413 l 1
 394 460 348 500 276 500 c 0
 175 500 104 411 105 258 c 0
 105 107 167 21 265 21 c 0
EndSplineSet
EndChar

StartChar: uni0065
Encoding: 101 101 69
Width: 528
Flags: W
LayerCount: 2
Fore
SplineSet
466 283 m 0
 466 268 465 252 464 243 c 1
 105 243 l 1
 111 89 184 21 283 21 c 0
 343 21 381 41 427 76 c 1
 445 52 l 1
 399 13 350 -10 283 -10 c 0
 152 -10 69 88 69 256 c 0
 69 426 149 531 271 531 c 0
 402 531 466 432 466 283 c 0
432 272 m 1
 432 295 l 2
 432 416 383 500 273 500 c 0
 184 500 109 431 105 272 c 1
 432 272 l 1
EndSplineSet
EndChar

StartChar: uni0066
Encoding: 102 102 70
Width: 312
Flags: W
LayerCount: 2
Fore
SplineSet
251 708 m 0
 190 708 151 681 151 612 c 2
 151 520 l 1
 296 520 l 1
 291 491 l 1
 151 491 l 1
 151 0 l 1
 117 0 l 1
 117 491 l 1
 29 491 l 1
 29 520 l 1
 117 520 l 1
 117 616 l 2
 117 694 169 739 248 739 c 0
 290 739 331 728 367 710 c 1
 354 683 l 1
 320 699 287 708 251 708 c 0
EndSplineSet
EndChar

StartChar: uni0067
Encoding: 103 103 71
Width: 496
Flags: W
LayerCount: 2
Fore
SplineSet
466 555 m 1
 477 519 l 1
 447 511 404 506 339 505 c 1
 389 480 425 436 425 356 c 0
 425 255 357 188 244 188 c 0
 218 188 195 192 175 199 c 1
 145 182 126 159 126 130 c 0
 126 95 150 69 219 69 c 2
 305 69 l 2
 405 69 463 18 463 -56 c 0
 463 -145 396 -200 251 -200 c 0
 102 -200 39 -159 39 -57 c 1
 72 -57 l 1
 74 -139 119 -169 251 -169 c 0
 378 -169 428 -126 428 -58 c 0
 428 2 382 38 302 38 c 2
 216 38 l 2
 134 38 91 76 91 124 c 0
 91 160 114 189 149 210 c 1
 90 240 61 288 61 359 c 0
 61 461 131 531 245 531 c 0
 391 529 422 539 466 555 c 1
245 501 m 0
 144 501 96 442 96 359 c 0
 96 265 159 217 244 217 c 0
 337 217 390 268 390 356 c 0
 390 441 344 501 245 501 c 0
EndSplineSet
EndChar

StartChar: uni0068
Encoding: 104 104 72
Width: 582
Flags: W
LayerCount: 2
Fore
SplineSet
333 531 m 0
 426 531 473 470 473 371 c 2
 473 0 l 1
 439 0 l 1
 439 366 l 2
 439 456 403 501 330 501 c 0
 250 501 196 452 148 382 c 1
 148 0 l 1
 114 0 l 1
 114 734 l 1
 148 740 l 1
 148 424 l 1
 194 488 253 531 333 531 c 0
EndSplineSet
EndChar

StartChar: uni0069
Encoding: 105 105 73
Width: 261
Flags: W
LayerCount: 2
Fore
SplineSet
130 734 m 0
 149 734 159 721 159 707 c 0
 159 692 149 679 130 679 c 0
 113 679 102 692 102 707 c 0
 102 721 113 734 130 734 c 0
148 520 m 1
 148 0 l 1
 114 0 l 1
 114 520 l 1
 148 520 l 1
EndSplineSet
EndChar

StartChar: uni006A
Encoding: 106 106 74
Width: 262
Flags: W
LayerCount: 2
Fore
SplineSet
130 734 m 0
 149 734 159 721 159 707 c 0
 159 692 149 679 130 679 c 0
 113 679 102 692 102 707 c 0
 102 721 113 734 130 734 c 0
149 520 m 1
 149 10 l 2
 149 -124 109 -156 27 -197 c 1
 17 -172 l 1
 86 -136 115 -107 115 10 c 2
 115 520 l 1
 149 520 l 1
EndSplineSet
EndChar

StartChar: uni006B
Encoding: 107 107 75
Width: 472
Flags: W
LayerCount: 2
Fore
SplineSet
148 739 m 1
 148 0 l 1
 114 0 l 1
 114 734 l 1
 148 739 l 1
434 520 m 1
 196 286 l 1
 458 0 l 1
 416 0 l 1
 154 284 l 1
 391 520 l 1
 434 520 l 1
EndSplineSet
EndChar

StartChar: uni006C
Encoding: 108 108 76
Width: 287
Flags: W
LayerCount: 2
Fore
SplineSet
189 -10 m 0
 142 -10 108 16 108 77 c 2
 108 734 l 1
 142 739 l 1
 142 78 l 2
 142 40 159 21 190 21 c 0
 204 21 217 24 229 29 c 1
 239 1 l 1
 226 -5 207 -10 189 -10 c 0
EndSplineSet
EndChar

StartChar: uni006D
Encoding: 109 109 77
Width: 849
Flags: W
LayerCount: 2
Fore
SplineSet
610 531 m 0
 693 531 741 470 741 371 c 2
 741 0 l 1
 707 0 l 1
 707 366 l 2
 707 456 671 501 607 501 c 0
 540 501 487 452 444 382 c 1
 444 0 l 1
 410 0 l 1
 410 366 l 2
 410 456 375 501 311 501 c 0
 244 501 190 452 148 382 c 1
 148 0 l 1
 114 0 l 1
 114 520 l 1
 143 520 l 1
 147 424 l 1
 188 487 247 531 313 531 c 0
 382 531 426 489 440 420 c 1
 482 485 541 531 610 531 c 0
EndSplineSet
EndChar

StartChar: uni006E
Encoding: 110 110 78
Width: 582
Flags: W
LayerCount: 2
Fore
SplineSet
333 531 m 0
 427 531 473 472 473 371 c 2
 473 0 l 1
 439 0 l 1
 439 366 l 2
 439 458 403 501 330 501 c 0
 250 501 196 452 148 382 c 1
 148 0 l 1
 114 0 l 1
 114 520 l 1
 143 520 l 1
 147 423 l 1
 192 487 252 531 333 531 c 0
EndSplineSet
EndChar

StartChar: uni006F
Encoding: 111 111 79
Width: 562
Flags: W
LayerCount: 2
Fore
SplineSet
282 531 m 0
 412 531 493 436 493 262 c 0
 493 90 410 -10 281 -10 c 0
 149 -10 69 91 69 259 c 0
 69 431 153 531 282 531 c 0
282 500 m 0
 174 500 105 418 105 259 c 0
 105 106 171 21 281 21 c 0
 389 21 458 104 458 262 c 0
 458 417 392 500 282 500 c 0
EndSplineSet
EndChar

StartChar: uni0070
Encoding: 112 112 80
Width: 566
Flags: W
LayerCount: 2
Fore
SplineSet
311 531 m 0
 432 531 497 436 497 264 c 0
 497 95 430 -10 304 -10 c 0
 233 -10 180 26 148 70 c 1
 148 -194 l 1
 114 -200 l 1
 114 520 l 1
 143 520 l 1
 145 441 l 1
 183 493 238 531 311 531 c 0
302 21 m 0
 406 21 462 106 462 264 c 0
 462 421 409 500 309 500 c 0
 235 500 191 461 148 405 c 1
 148 109 l 1
 184 57 234 21 302 21 c 0
EndSplineSet
EndChar

StartChar: uni0071
Encoding: 113 113 81
Width: 571
Flags: W
LayerCount: 2
Fore
SplineSet
428 520 m 1
 458 520 l 1
 458 -200 l 1
 424 -194 l 1
 424 83 l 1
 396 34 347 -10 263 -10 c 0
 146 -10 69 90 69 258 c 0
 69 419 145 531 274 531 c 0
 353 531 398 491 425 454 c 1
 428 520 l 1
266 21 m 0
 343 21 388 60 424 130 c 1
 424 415 l 1
 394 461 348 500 277 500 c 0
 175 500 104 411 105 258 c 0
 105 107 167 21 266 21 c 0
EndSplineSet
EndChar

StartChar: uni0072
Encoding: 114 114 82
Width: 364
Flags: W
LayerCount: 2
Fore
SplineSet
298 531 m 0
 321 531 338 528 350 525 c 1
 343 494 l 1
 330 498 314 500 297 500 c 0
 220 500 179 444 148 332 c 1
 148 0 l 1
 114 0 l 1
 114 520 l 1
 143 520 l 1
 145 397 l 1
 173 487 220 531 298 531 c 0
EndSplineSet
EndChar

StartChar: uni0073
Encoding: 115 115 83
Width: 452
Flags: W
LayerCount: 2
Fore
SplineSet
227 531 m 0
 289 531 336 512 385 473 c 1
 366 450 l 1
 321 484 283 500 228 500 c 0
 152 500 98 461 98 399 c 0
 98 341 136 316 235 290 c 0
 352 258 398 223 398 136 c 0
 398 48 325 -10 223 -10 c 0
 141 -10 89 19 44 56 c 1
 64 78 l 1
 110 42 153 21 223 21 c 0
 303 21 363 61 363 135 c 0
 363 206 331 232 218 263 c 0
 108 292 63 327 63 400 c 0
 63 477 135 531 227 531 c 0
EndSplineSet
EndChar

StartChar: uni0074
Encoding: 116 116 84
Width: 332
Flags: W
LayerCount: 2
Fore
SplineSet
317 46 m 1
 332 20 l 1
 303 2 268 -10 227 -10 c 0
 155 -10 109 33 109 119 c 2
 109 491 l 1
 24 491 l 1
 24 520 l 1
 109 520 l 1
 109 650 l 1
 143 653 l 1
 143 520 l 1
 285 520 l 1
 280 491 l 1
 143 491 l 1
 143 121 l 2
 143 55 172 21 230 21 c 0
 263 21 291 31 317 46 c 1
EndSplineSet
EndChar

StartChar: uni0075
Encoding: 117 117 85
Width: 577
Flags: W
LayerCount: 2
Fore
SplineSet
463 520 m 1
 463 0 l 1
 434 0 l 1
 433 101 l 1
 399 40 342 -10 256 -10 c 0
 163 -10 108 46 108 149 c 2
 108 520 l 1
 142 520 l 1
 142 152 l 2
 142 61 185 21 262 21 c 0
 338 21 390 70 429 139 c 1
 429 520 l 1
 463 520 l 1
EndSplineSet
EndChar

StartChar: uni0076
Encoding: 118 118 86
Width: 455
Flags: W
LayerCount: 2
Fore
SplineSet
435 520 m 1
 254 0 l 1
 210 0 l 1
 19 520 l 1
 58 520 l 1
 232 30 l 1
 398 520 l 1
 435 520 l 1
EndSplineSet
EndChar

StartChar: uni0077
Encoding: 119 119 87
Width: 685
Flags: W
LayerCount: 2
Fore
SplineSet
656 520 m 1
 523 0 l 1
 477 0 l 1
 344 487 l 1
 211 0 l 1
 165 0 l 1
 29 520 l 1
 66 520 l 1
 189 31 l 1
 324 520 l 1
 365 520 l 1
 500 30 l 1
 621 520 l 1
 656 520 l 1
EndSplineSet
EndChar

StartChar: uni0078
Encoding: 120 120 88
Width: 440
Flags: W
LayerCount: 2
Fore
SplineSet
240 279 m 1
 426 0 l 1
 385 0 l 1
 218 258 l 1
 54 0 l 1
 14 0 l 1
 198 278 l 1
 39 520 l 1
 79 520 l 1
 220 299 l 1
 362 520 l 1
 401 520 l 1
 240 279 l 1
EndSplineSet
EndChar

StartChar: uni0079
Encoding: 121 121 89
Width: 451
Flags: W
LayerCount: 2
Fore
SplineSet
431 520 m 1
 249 -2 l 2
 209 -117 172 -167 58 -198 c 1
 54 -171 l 1
 158 -141 181 -99 217 0 c 1
 205 0 l 1
 19 520 l 1
 57 520 l 1
 227 27 l 1
 394 520 l 1
 431 520 l 1
EndSplineSet
EndChar

StartChar: uni007A
Encoding: 122 122 90
Width: 407
Flags: W
LayerCount: 2
Fore
SplineSet
377 520 m 1
 377 493 l 1
 72 31 l 1
 371 31 l 1
 368 0 l 1
 30 0 l 1
 30 28 l 1
 335 489 l 1
 55 489 l 1
 55 520 l 1
 377 520 l 1
EndSplineSet
EndChar

StartChar: uni007B
Encoding: 123 123 91
Width: 329
Flags: W
LayerCount: 2
Fore
SplineSet
251 823 m 1
 251 795 l 1
 191 795 170 767 170 710 c 2
 170 447 l 2
 170 380 146 359 94 349 c 1
 146 339 170 318 170 251 c 2
 170 -12 l 2
 170 -69 191 -97 251 -97 c 1
 251 -125 l 1
 180 -125 138 -92 138 -16 c 2
 138 262 l 2
 138 315 105 333 58 333 c 1
 58 365 l 1
 105 365 138 383 138 436 c 2
 138 714 l 2
 138 790 180 823 251 823 c 1
EndSplineSet
EndChar

StartChar: uni007C
Encoding: 124 124 92
Width: 410
Flags: W
LayerCount: 2
Fore
SplineSet
221 802 m 1
 221 -99 l 1
 188 -99 l 1
 188 802 l 1
 221 802 l 1
EndSplineSet
EndChar

StartChar: uni007D
Encoding: 125 125 93
Width: 329
Flags: W
LayerCount: 2
Fore
SplineSet
78 823 m 1
 148 823 191 790 191 714 c 2
 191 436 l 2
 191 383 223 365 271 365 c 1
 271 333 l 1
 223 333 191 315 191 262 c 2
 191 -16 l 2
 191 -92 148 -125 78 -125 c 1
 78 -97 l 1
 137 -97 159 -69 159 -12 c 2
 159 251 l 2
 159 318 183 339 235 349 c 1
 183 359 159 380 159 447 c 2
 159 710 l 2
 159 767 137 795 78 795 c 1
 78 823 l 1
EndSplineSet
EndChar

StartChar: uni007E
Encoding: 126 126 94
Width: 460
Flags: W
LayerCount: 2
Fore
SplineSet
308 273 m 0
 252 273 201 329 155 329 c 0
 121 329 106 312 85 287 c 1
 63 300 l 1
 88 336 111 362 155 362 c 0
 214 362 261 306 308 306 c 0
 340 306 354 323 375 348 c 1
 397 334 l 1
 372 298 350 273 308 273 c 0
EndSplineSet
EndChar

StartChar: uni00A1
Encoding: 161 161 96
Width: 240
Flags: W
LayerCount: 2
Fore
SplineSet
120 460 m 0
 139 460 153 446 153 429 c 0
 153 410 139 396 120 396 c 0
 100 396 87 410 87 429 c 0
 87 446 100 460 120 460 c 0
137 251 m 1
 137 -194 l 1
 104 -194 l 1
 104 251 l 1
 137 251 l 1
EndSplineSet
EndChar

StartChar: uni00A2
Encoding: 162 162 97
Width: 463
Flags: W
LayerCount: 2
Fore
SplineSet
428 44 m 1
 394 13 350 -7 298 -10 c 1
 298 -147 l 1
 268 -147 l 1
 268 -9 l 1
 148 -1 69 95 69 257 c 0
 69 419 148 523 269 531 c 1
 269 677 l 1
 298 677 l 1
 298 531 l 1
 348 528 385 513 423 480 c 1
 404 457 l 1
 372 485 336 499 285 499 c 0
 182 499 105 418 105 257 c 0
 105 100 181 21 284 21 c 0
 336 21 375 39 409 68 c 1
 428 44 l 1
EndSplineSet
EndChar

StartChar: uni00A3
Encoding: 163 163 98
Width: 501
Flags: W
LayerCount: 2
Fore
SplineSet
177 148 m 2
 177 81 154 56 106 32 c 1
 440 32 l 1
 436 0 l 1
 59 0 l 1
 59 31 l 1
 118 61 143 84 143 146 c 2
 143 338 l 1
 78 338 l 1
 78 368 l 1
 143 368 l 1
 143 504 l 2
 143 598 196 674 303 674 c 0
 367 674 412 651 453 604 c 1
 429 584 l 1
 395 623 360 643 303 643 c 0
 218 643 177 584 177 503 c 2
 177 368 l 1
 395 368 l 1
 395 338 l 1
 177 338 l 1
 177 148 l 2
EndSplineSet
EndChar

StartChar: uni00A4
Encoding: 164 164 99
Width: 560
Flags: W
LayerCount: 2
Fore
SplineSet
459 341 m 0
 459 292 444 247 416 214 c 1
 496 134 l 1
 474 111 l 1
 393 192 l 1
 364 169 326 155 281 155 c 0
 235 155 197 169 168 193 c 1
 86 111 l 1
 64 134 l 1
 146 215 l 1
 118 248 103 292 103 341 c 0
 103 389 118 432 145 465 c 1
 64 546 l 1
 86 568 l 1
 167 487 l 1
 196 511 235 526 281 526 c 0
 327 526 365 512 394 488 c 1
 474 568 l 1
 496 546 l 1
 417 467 l 1
 444 434 459 389 459 341 c 0
137 340 m 0
 137 250 185 185 281 185 c 0
 379 185 426 251 426 340 c 0
 426 431 379 496 281 496 c 0
 185 496 137 431 137 340 c 0
EndSplineSet
EndChar

StartChar: uni00A5
Encoding: 165 165 100
Width: 495
Flags: W
LayerCount: 2
Fore
SplineSet
476 662 m 1
 280 333 l 1
 400 333 l 1
 400 303 l 1
 266 303 l 1
 266 191 l 1
 400 191 l 1
 400 160 l 1
 266 160 l 1
 266 0 l 1
 231 0 l 1
 231 160 l 1
 98 160 l 1
 98 191 l 1
 231 191 l 1
 231 303 l 1
 98 303 l 1
 98 333 l 1
 217 333 l 1
 19 662 l 1
 59 662 l 1
 249 338 l 1
 437 662 l 1
 476 662 l 1
EndSplineSet
EndChar

StartChar: uni00A6
Encoding: 166 166 101
Width: 410
Flags: W
LayerCount: 2
Fore
SplineSet
221 802 m 1
 221 443 l 1
 188 443 l 1
 188 802 l 1
 221 802 l 1
221 262 m 1
 221 -99 l 1
 188 -99 l 1
 188 262 l 1
 221 262 l 1
EndSplineSet
EndChar

StartChar: uni00A7
Encoding: 167 167 102
Width: 532
Flags: W
LayerCount: 2
Fore
SplineSet
360 161 m 1
 398 139 415 111 415 64 c 0
 415 -16 347 -66 255 -66 c 0
 188 -66 141 -49 96 -21 c 1
 113 5 l 1
 155 -22 199 -35 256 -35 c 0
 335 -35 380 6 380 61 c 0
 380 114 360 137 255 174 c 0
 139 215 93 243 93 321 c 0
 93 371 121 412 175 449 c 1
 134 473 120 501 120 544 c 0
 120 622 187 673 272 673 c 0
 339 673 380 654 422 628 c 1
 405 602 l 1
 362 629 325 642 273 642 c 0
 200 642 155 599 155 546 c 0
 155 491 178 469 289 432 c 0
 398 395 439 359 439 286 c 0
 439 236 417 197 360 161 c 1
128 323 m 0
 128 264 154 241 264 202 c 0
 292 193 316 184 335 175 c 1
 388 208 404 240 404 284 c 0
 404 337 387 367 279 404 c 0
 247 415 220 425 199 436 c 1
 149 402 128 366 128 323 c 0
EndSplineSet
EndChar

StartChar: uni00A8
Encoding: 168 168 103
Width: 290
Flags: W
LayerCount: 2
Fore
SplineSet
57 723 m 0
 74 723 85 711 85 696 c 0
 85 681 74 669 57 669 c 0
 41 669 30 681 30 696 c 0
 30 711 41 723 57 723 c 0
232 723 m 0
 249 723 260 711 260 696 c 0
 260 681 249 669 232 669 c 0
 215 669 204 681 204 696 c 0
 204 711 215 723 232 723 c 0
EndSplineSet
EndChar

StartChar: uni00A9
Encoding: 169 169 104
Width: 810
Flags: W
LayerCount: 2
Fore
SplineSet
405 727 m 0
 568 727 690 608 690 435 c 0
 690 264 568 143 405 143 c 0
 242 143 120 262 120 435 c 0
 120 606 242 727 405 727 c 0
406 698 m 0
 259 698 153 590 153 435 c 0
 153 277 259 172 406 172 c 0
 551 172 657 280 657 435 c 0
 657 593 551 698 406 698 c 0
404 609 m 0
 445 609 471 598 497 578 c 1
 481 556 l 1
 459 571 440 579 405 579 c 0
 361 579 302 548 302 437 c 0
 302 334 348 291 407 291 c 0
 446 291 469 304 490 319 c 1
 506 296 l 1
 482 277 450 261 406 261 c 0
 325 261 268 324 268 437 c 0
 268 559 341 609 404 609 c 0
EndSplineSet
EndChar

StartChar: uni00AA
Encoding: 170 170 105
Width: 500
Flags: W
LayerCount: 2
Fore
SplineSet
217 276 m 0
 137 276 88 321 88 392 c 0
 88 474 156 518 255 518 c 2
 344 518 l 1
 344 559 l 2
 344 623 320 652 243 652 c 0
 207 652 170 643 131 629 c 1
 121 657 l 1
 163 673 201 682 244 682 c 0
 337 682 378 643 378 562 c 2
 378 368 l 2
 378 319 390 308 412 299 c 1
 404 276 l 1
 371 284 352 302 348 342 c 1
 318 298 274 276 217 276 c 0
261 489 m 2
 176 489 124 459 124 392 c 0
 124 336 162 306 218 306 c 0
 277 306 317 335 344 381 c 1
 344 489 l 1
 261 489 l 2
87 32 m 1
 427 32 l 1
 427 0 l 1
 87 0 l 1
 87 32 l 1
EndSplineSet
EndChar

StartChar: uni00AB
Encoding: 171 171 106
Width: 541
Flags: W
LayerCount: 2
Fore
SplineSet
238 509 m 1
 261 494 l 1
 122 288 l 1
 261 83 l 1
 238 68 l 1
 83 277 l 1
 83 299 l 1
 238 509 l 1
436 509 m 1
 458 494 l 1
 320 288 l 1
 458 83 l 1
 436 68 l 1
 281 277 l 1
 281 299 l 1
 436 509 l 1
EndSplineSet
EndChar

StartChar: uni00AC
Encoding: 172 172 107
Width: 498
Flags: W
LayerCount: 2
Fore
SplineSet
424 337 m 1
 424 188 l 1
 389 188 l 1
 389 304 l 1
 74 304 l 1
 74 337 l 1
 424 337 l 1
EndSplineSet
EndChar

StartChar: uni00AD
Encoding: 173 173 108
Width: 399
Flags: W
LayerCount: 2
Fore
SplineSet
74 297 m 1
 74 329 l 1
 325 329 l 1
 325 297 l 1
 74 297 l 1
EndSplineSet
EndChar

StartChar: uni00AE
Encoding: 174 174 109
Width: 638
Flags: W
LayerCount: 2
Fore
SplineSet
319 728 m 0
 448 728 550 631 550 500 c 0
 550 373 448 270 319 270 c 0
 190 270 89 366 89 497 c 0
 89 624 190 728 319 728 c 0
319 297 m 0
 430 297 520 387 520 500 c 0
 520 616 432 700 319 700 c 0
 209 700 118 610 118 497 c 0
 118 381 209 297 319 297 c 0
412 558 m 0
 412 518 389 496 350 487 c 1
 424 367 l 1
 385 367 l 1
 318 483 l 1
 274 483 l 1
 274 367 l 1
 242 367 l 1
 242 637 l 1
 305 637 l 2
 378 637 412 611 412 558 c 0
274 609 m 1
 274 510 l 1
 319 510 l 2
 356 510 380 522 380 558 c 0
 380 598 355 609 310 609 c 2
 274 609 l 1
EndSplineSet
EndChar

StartChar: uni00AF
Encoding: 175 175 110
Width: 278
Flags: W
LayerCount: 2
Fore
SplineSet
248 682 m 1
 30 682 l 1
 30 714 l 1
 248 714 l 1
 248 682 l 1
EndSplineSet
EndChar

StartChar: uni00B0
Encoding: 176 176 111
Width: 519
Flags: W
LayerCount: 2
Fore
SplineSet
219 405 m 0
 147 405 78 459 78 549 c 0
 78 637 147 693 219 693 c 0
 297 693 361 637 361 548 c 0
 361 462 297 405 219 405 c 0
219 436 m 0
 286 436 327 481 327 548 c 0
 327 618 286 662 219 662 c 0
 159 662 112 618 112 549 c 0
 112 481 159 436 219 436 c 0
EndSplineSet
EndChar

StartChar: uni00B1
Encoding: 177 177 112
Width: 487
Flags: W
LayerCount: 2
Fore
SplineSet
75 319 m 1
 75 349 l 1
 228 349 l 1
 228 503 l 1
 260 503 l 1
 260 349 l 1
 412 349 l 1
 412 319 l 1
 260 319 l 1
 260 165 l 1
 228 165 l 1
 228 319 l 1
 75 319 l 1
75 71 m 1
 75 101 l 1
 412 101 l 1
 412 71 l 1
 75 71 l 1
EndSplineSet
EndChar

StartChar: uni00B2
Encoding: 178 178 113
Width: 400
Flags: W
LayerCount: 2
Fore
SplineSet
198 740 m 0
 270 740 313 694 313 633 c 0
 313 548 268 501 121 353 c 1
 326 353 l 1
 320 323 l 1
 81 323 l 1
 81 352 l 1
 244 517 279 559 279 630 c 0
 279 682 247 710 196 710 c 0
 153 710 122 692 98 664 c 1
 74 682 l 1
 110 723 148 740 198 740 c 0
EndSplineSet
EndChar

StartChar: uni00B3
Encoding: 179 179 114
Width: 400
Flags: W
LayerCount: 2
Fore
SplineSet
201 742 m 0
 271 742 318 700 318 639 c 0
 318 584 283 550 233 542 c 1
 285 540 328 504 328 438 c 0
 328 366 276 316 192 316 c 0
 141 316 103 335 71 369 c 1
 92 387 l 1
 124 355 156 345 191 345 c 0
 260 345 295 383 295 438 c 0
 295 502 255 526 196 526 c 2
 169 526 l 1
 173 554 l 1
 192 554 l 2
 236 554 285 578 285 638 c 0
 285 686 250 713 199 713 c 0
 162 713 135 703 100 675 c 1
 82 696 l 1
 116 725 149 742 201 742 c 0
EndSplineSet
EndChar

StartChar: uni00B4
Encoding: 180 180 115
Width: 256
Flags: W
LayerCount: 2
Fore
SplineSet
210 769 m 1
 226 734 l 1
 42 650 l 1
 30 673 l 1
 210 769 l 1
EndSplineSet
EndChar

StartChar: uni00B5
Encoding: 181 181 116
Width: 583
Flags: W
LayerCount: 2
Fore
SplineSet
489 -4 m 1
 459 -7 l 1
 444 35 436 61 432 113 c 1
 394 46 343 -10 259 -10 c 0
 196 -10 161 19 142 61 c 1
 146 16 147 -19 147 -69 c 2
 147 -194 l 1
 114 -196 l 1
 114 520 l 1
 148 520 l 1
 148 146 l 2
 148 54 202 21 259 21 c 0
 333 21 386 73 427 153 c 1
 427 520 l 1
 461 520 l 1
 461 174 l 2
 461 97 472 47 489 -4 c 1
EndSplineSet
EndChar

StartChar: uni00B6
Encoding: 182 182 117
Width: 690
Flags: W
LayerCount: 2
Fore
SplineSet
330 682 m 2
 531 682 l 1
 531 -194 l 1
 498 -200 l 1
 498 652 l 1
 360 652 l 1
 360 -194 l 1
 326 -200 l 1
 326 303 l 1
 163 308 109 392 109 493 c 0
 109 614 189 682 330 682 c 2
EndSplineSet
EndChar

StartChar: uni00B7
Encoding: 183 183 118
Width: 184
Flags: W
LayerCount: 2
Fore
SplineSet
92 357 m 0
 112 357 124 342 124 324 c 0
 124 307 112 292 92 292 c 0
 73 292 59 307 59 324 c 0
 59 342 73 357 92 357 c 0
EndSplineSet
EndChar

StartChar: uni00B8
Encoding: 184 184 119
Width: 224
Flags: W
LayerCount: 2
Fore
SplineSet
103 16 m 1
 103 -70 l 1
 166 -74 194 -99 194 -140 c 0
 194 -189 152 -218 102 -218 c 0
 70 -218 47 -209 30 -198 c 1
 44 -173 l 1
 57 -182 76 -188 102 -188 c 0
 134 -188 161 -173 161 -140 c 0
 161 -108 134 -94 72 -93 c 1
 79 16 l 1
 103 16 l 1
EndSplineSet
EndChar

StartChar: uni00B9
Encoding: 185 185 120
Width: 400
Flags: W
LayerCount: 2
Fore
SplineSet
247 734 m 1
 247 323 l 1
 215 323 l 1
 215 697 l 1
 108 635 l 1
 92 659 l 1
 221 734 l 1
 247 734 l 1
EndSplineSet
EndChar

StartChar: uni00BA
Encoding: 186 186 121
Width: 500
Flags: W
LayerCount: 2
Fore
SplineSet
248 682 m 0
 354 682 421 613 421 481 c 0
 421 351 352 276 247 276 c 0
 141 276 76 352 76 479 c 0
 76 607 144 682 248 682 c 0
249 652 m 0
 165 652 112 595 112 479 c 0
 112 367 164 306 248 306 c 0
 333 306 385 365 385 481 c 0
 385 594 336 652 249 652 c 0
78 0 m 1
 78 32 l 1
 418 32 l 1
 418 0 l 1
 78 0 l 1
EndSplineSet
EndChar

StartChar: uni00BB
Encoding: 187 187 122
Width: 531
Flags: W
LayerCount: 2
Fore
SplineSet
105 509 m 1
 261 299 l 1
 261 277 l 1
 105 68 l 1
 83 83 l 1
 222 288 l 1
 83 494 l 1
 105 509 l 1
293 509 m 1
 448 299 l 1
 448 277 l 1
 293 68 l 1
 271 83 l 1
 409 288 l 1
 271 494 l 1
 293 509 l 1
EndSplineSet
EndChar

StartChar: uni00BC
Encoding: 188 188 123
Width: 902
Flags: W
LayerCount: 2
Fore
SplineSet
642 745 m 1
 669 732 l 1
 260 -66 l 1
 233 -53 l 1
 642 745 l 1
247 271 m 1
 215 271 l 1
 215 645 l 1
 108 583 l 1
 92 607 l 1
 221 682 l 1
 247 682 l 1
 247 271 l 1
841 137 m 1
 841 108 l 1
 784 108 l 1
 784 0 l 1
 752 0 l 1
 752 108 l 1
 562 108 l 1
 562 133 l 1
 693 419 l 1
 720 408 l 1
 596 137 l 1
 752 137 l 1
 756 259 l 1
 784 259 l 1
 784 137 l 1
 841 137 l 1
EndSplineSet
EndChar

StartChar: uni00BD
Encoding: 189 189 124
Width: 902
Flags: W
LayerCount: 2
Fore
SplineSet
642 745 m 1
 669 732 l 1
 260 -66 l 1
 233 -53 l 1
 642 745 l 1
247 682 m 1
 247 271 l 1
 215 271 l 1
 215 645 l 1
 108 583 l 1
 92 607 l 1
 221 682 l 1
 247 682 l 1
700 417 m 0
 772 417 815 371 815 310 c 0
 815 225 770 178 623 30 c 1
 828 30 l 1
 822 0 l 1
 583 0 l 1
 583 29 l 1
 746 194 781 236 781 307 c 0
 781 359 749 387 698 387 c 0
 655 387 624 369 600 341 c 1
 576 359 l 1
 612 400 650 417 700 417 c 0
EndSplineSet
EndChar

StartChar: uni00BE
Encoding: 190 190 125
Width: 902
Flags: W
LayerCount: 2
Fore
SplineSet
642 745 m 1
 669 732 l 1
 260 -66 l 1
 233 -53 l 1
 642 745 l 1
328 386 m 0
 328 314 276 264 192 264 c 0
 141 264 103 283 71 317 c 1
 92 335 l 1
 124 303 156 293 191 293 c 0
 260 293 295 331 295 386 c 0
 295 450 255 474 196 474 c 2
 169 474 l 1
 173 502 l 1
 192 502 l 2
 236 502 285 526 285 586 c 0
 285 634 250 661 199 661 c 0
 162 661 135 651 100 623 c 1
 82 644 l 1
 116 673 149 690 201 690 c 0
 271 690 318 648 318 587 c 0
 318 532 283 498 233 490 c 1
 285 488 328 452 328 386 c 0
841 137 m 1
 841 108 l 1
 784 108 l 1
 784 0 l 1
 752 0 l 1
 752 108 l 1
 562 108 l 1
 562 133 l 1
 693 419 l 1
 720 408 l 1
 596 137 l 1
 752 137 l 1
 756 259 l 1
 784 259 l 1
 784 137 l 1
 841 137 l 1
EndSplineSet
EndChar

StartChar: uni00BF
Encoding: 191 191 126
Width: 439
Flags: W
LayerCount: 2
Fore
SplineSet
247 396 m 0
 226 396 214 410 214 429 c 0
 214 446 226 460 247 460 c 0
 266 460 279 446 279 429 c 0
 279 410 266 396 247 396 c 0
208 -200 m 0
 108 -200 49 -136 49 -68 c 0
 49 80 232 67 232 202 c 2
 232 251 l 1
 265 251 l 1
 265 199 l 2
 265 48 85 62 85 -68 c 0
 85 -125 133 -169 208 -169 c 0
 276 -169 318 -145 366 -93 c 1
 391 -112 l 1
 338 -172 284 -200 208 -200 c 0
EndSplineSet
EndChar

StartChar: uni00C0
Encoding: 192 192 127
Width: 559
Flags: W
LayerCount: 2
Fore
SplineSet
197 872 m 1
 376 783 l 1
 366 761 l 1
 180 837 l 1
 197 872 l 1
498 0 m 1
 432 197 l 1
 125 197 l 1
 59 0 l 1
 24 0 l 1
 258 682 l 1
 301 682 l 1
 535 0 l 1
 498 0 l 1
136 229 m 1
 421 229 l 1
 279 654 l 1
 136 229 l 1
EndSplineSet
EndChar

StartChar: uni00C1
Encoding: 193 193 128
Width: 559
Flags: W
LayerCount: 2
Fore
SplineSet
377 837 m 1
 191 761 l 1
 181 783 l 1
 360 872 l 1
 377 837 l 1
498 0 m 1
 432 197 l 1
 125 197 l 1
 59 0 l 1
 24 0 l 1
 258 682 l 1
 301 682 l 1
 535 0 l 1
 498 0 l 1
136 229 m 1
 421 229 l 1
 279 654 l 1
 136 229 l 1
EndSplineSet
EndChar

StartChar: uni00C2
Encoding: 194 194 129
Width: 559
Flags: W
LayerCount: 2
Fore
SplineSet
161 765 m 1
 144 784 l 1
 270 879 l 1
 289 879 l 1
 413 784 l 1
 397 765 l 1
 279 844 l 1
 161 765 l 1
498 0 m 1
 432 197 l 1
 125 197 l 1
 59 0 l 1
 24 0 l 1
 258 682 l 1
 301 682 l 1
 535 0 l 1
 498 0 l 1
136 229 m 1
 421 229 l 1
 279 654 l 1
 136 229 l 1
EndSplineSet
EndChar

StartChar: uni00C3
Encoding: 195 195 130
Width: 559
Flags: W
LayerCount: 2
Fore
SplineSet
339 800 m 0
 312 800 287 812 268 825 c 0
 250 837 236 843 221 843 c 0
 198 843 182 833 162 807 c 1
 141 819 l 1
 162 853 189 873 221 873 c 0
 243 873 264 863 284 850 c 0
 303 838 320 830 339 830 c 0
 360 830 375 841 397 873 c 1
 418 861 l 1
 396 817 369 800 339 800 c 0
498 0 m 1
 432 197 l 1
 125 197 l 1
 59 0 l 1
 24 0 l 1
 258 682 l 1
 301 682 l 1
 535 0 l 1
 498 0 l 1
136 229 m 1
 421 229 l 1
 279 654 l 1
 136 229 l 1
EndSplineSet
EndChar

StartChar: uni00C4
Encoding: 196 196 131
Width: 559
Flags: W
LayerCount: 2
Fore
SplineSet
191 849 m 0
 208 849 219 837 219 822 c 0
 219 807 208 795 191 795 c 0
 175 795 164 807 164 822 c 0
 164 837 175 849 191 849 c 0
366 849 m 0
 383 849 394 837 394 822 c 0
 394 807 383 795 366 795 c 0
 349 795 338 807 338 822 c 0
 338 837 349 849 366 849 c 0
498 0 m 1
 432 197 l 1
 125 197 l 1
 59 0 l 1
 24 0 l 1
 258 682 l 1
 301 682 l 1
 535 0 l 1
 498 0 l 1
136 229 m 1
 421 229 l 1
 279 654 l 1
 136 229 l 1
EndSplineSet
EndChar

StartChar: uni00C5
Encoding: 197 197 132
Width: 559
Flags: W
LayerCount: 2
Fore
SplineSet
280 936 m 0
 332 936 368 902 368 850 c 0
 368 799 332 765 280 765 c 0
 228 765 192 799 192 850 c 0
 192 902 228 936 280 936 c 0
280 910 m 0
 243 910 223 888 223 850 c 0
 223 813 243 791 280 791 c 0
 316 791 337 813 337 850 c 0
 337 888 317 910 280 910 c 0
498 0 m 1
 432 197 l 1
 125 197 l 1
 59 0 l 1
 24 0 l 1
 258 682 l 1
 301 682 l 1
 535 0 l 1
 498 0 l 1
136 229 m 1
 421 229 l 1
 279 654 l 1
 136 229 l 1
EndSplineSet
EndChar

StartChar: uni00C6
Encoding: 198 198 133
Width: 761
Flags: W
LayerCount: 2
Fore
SplineSet
490 32 m 1
 720 32 l 1
 720 0 l 1
 464 0 l 1
 414 192 l 1
 116 192 l 1
 43 0 l 1
 8 0 l 1
 271 682 l 1
 668 682 l 1
 663 650 l 1
 328 650 l 1
 400 374 l 1
 661 374 l 1
 661 343 l 1
 408 343 l 1
 490 32 l 1
129 224 m 1
 405 224 l 1
 293 654 l 1
 129 224 l 1
EndSplineSet
EndChar

StartChar: uni00C7
Encoding: 199 199 134
Width: 543
Flags: W
LayerCount: 2
Fore
SplineSet
347 -70 m 1
 410 -74 438 -99 438 -140 c 0
 438 -189 396 -218 346 -218 c 0
 314 -218 291 -209 274 -198 c 1
 288 -173 l 1
 301 -182 320 -188 346 -188 c 0
 378 -188 405 -173 405 -140 c 0
 405 -108 378 -94 316 -93 c 1
 321 -9 l 1
 179 1 74 122 74 341 c 0
 74 577 195 693 345 693 c 0
 421 693 466 670 510 633 c 1
 491 608 l 1
 444 644 408 660 347 660 c 0
 217 660 110 567 110 341 c 0
 110 127 214 23 343 23 c 0
 418 23 457 47 498 81 c 1
 518 56 l 1
 476 19 423 -9 347 -10 c 1
 347 -70 l 1
EndSplineSet
EndChar

StartChar: uni00C8
Encoding: 200 200 135
Width: 496
Flags: W
LayerCount: 2
Fore
SplineSet
206 872 m 1
 385 783 l 1
 375 761 l 1
 189 837 l 1
 206 872 l 1
449 682 m 1
 444 650 l 1
 154 650 l 1
 154 374 l 1
 405 374 l 1
 405 343 l 1
 154 343 l 1
 154 32 l 1
 455 32 l 1
 455 0 l 1
 119 0 l 1
 119 682 l 1
 449 682 l 1
EndSplineSet
EndChar

StartChar: uni00C9
Encoding: 201 201 136
Width: 496
Flags: W
LayerCount: 2
Fore
SplineSet
369 872 m 1
 386 837 l 1
 200 761 l 1
 190 783 l 1
 369 872 l 1
449 682 m 1
 444 650 l 1
 154 650 l 1
 154 374 l 1
 405 374 l 1
 405 343 l 1
 154 343 l 1
 154 32 l 1
 455 32 l 1
 455 0 l 1
 119 0 l 1
 119 682 l 1
 449 682 l 1
EndSplineSet
EndChar

StartChar: uni00CA
Encoding: 202 202 137
Width: 496
Flags: W
LayerCount: 2
Fore
SplineSet
170 765 m 1
 153 784 l 1
 279 879 l 1
 298 879 l 1
 422 784 l 1
 406 765 l 1
 288 844 l 1
 170 765 l 1
449 682 m 1
 444 650 l 1
 154 650 l 1
 154 374 l 1
 405 374 l 1
 405 343 l 1
 154 343 l 1
 154 32 l 1
 455 32 l 1
 455 0 l 1
 119 0 l 1
 119 682 l 1
 449 682 l 1
EndSplineSet
EndChar

StartChar: uni00CB
Encoding: 203 203 138
Width: 496
Flags: W
LayerCount: 2
Fore
SplineSet
200 849 m 0
 217 849 228 837 228 822 c 0
 228 807 217 795 200 795 c 0
 184 795 173 807 173 822 c 0
 173 837 184 849 200 849 c 0
375 849 m 0
 392 849 403 837 403 822 c 0
 403 807 392 795 375 795 c 0
 358 795 347 807 347 822 c 0
 347 837 358 849 375 849 c 0
449 682 m 1
 444 650 l 1
 154 650 l 1
 154 374 l 1
 405 374 l 1
 405 343 l 1
 154 343 l 1
 154 32 l 1
 455 32 l 1
 455 0 l 1
 119 0 l 1
 119 682 l 1
 449 682 l 1
EndSplineSet
EndChar

StartChar: uni00CC
Encoding: 204 204 139
Width: 273
Flags: W
LayerCount: 2
Fore
SplineSet
54 872 m 1
 233 783 l 1
 223 761 l 1
 37 837 l 1
 54 872 l 1
154 682 m 1
 154 0 l 1
 119 0 l 1
 119 682 l 1
 154 682 l 1
EndSplineSet
EndChar

StartChar: uni00CD
Encoding: 205 205 140
Width: 273
Flags: W
LayerCount: 2
Fore
SplineSet
216 872 m 1
 233 837 l 1
 47 761 l 1
 37 783 l 1
 216 872 l 1
154 682 m 1
 154 0 l 1
 119 0 l 1
 119 682 l 1
 154 682 l 1
EndSplineSet
EndChar

StartChar: uni00CE
Encoding: 206 206 141
Width: 273
Flags: W
LayerCount: 2
Fore
SplineSet
18 765 m 1
 1 784 l 1
 127 879 l 1
 146 879 l 1
 270 784 l 1
 254 765 l 1
 136 844 l 1
 18 765 l 1
154 682 m 1
 154 0 l 1
 119 0 l 1
 119 682 l 1
 154 682 l 1
EndSplineSet
EndChar

StartChar: uni00CF
Encoding: 207 207 142
Width: 273
Flags: W
LayerCount: 2
Fore
SplineSet
47 849 m 0
 64 849 75 837 75 822 c 0
 75 807 64 795 47 795 c 0
 31 795 20 807 20 822 c 0
 20 837 31 849 47 849 c 0
222 849 m 0
 239 849 250 837 250 822 c 0
 250 807 239 795 222 795 c 0
 205 795 194 807 194 822 c 0
 194 837 205 849 222 849 c 0
154 682 m 1
 154 0 l 1
 119 0 l 1
 119 682 l 1
 154 682 l 1
EndSplineSet
EndChar

StartChar: uni00D0
Encoding: 208 208 143
Width: 623
Flags: W
LayerCount: 2
Fore
SplineSet
249 682 m 2
 396 682 550 627 550 348 c 0
 550 61 388 0 253 0 c 2
 119 0 l 1
 119 336 l 1
 25 336 l 1
 25 368 l 1
 119 368 l 1
 119 682 l 1
 249 682 l 2
254 32 m 2
 380 32 513 89 513 348 c 0
 513 612 375 650 247 650 c 2
 154 650 l 1
 154 368 l 1
 342 368 l 1
 342 336 l 1
 154 336 l 1
 154 32 l 1
 254 32 l 2
EndSplineSet
EndChar

StartChar: uni00D1
Encoding: 209 209 144
Width: 665
Flags: W
LayerCount: 2
Fore
SplineSet
399 800 m 0
 372 800 347 812 328 825 c 0
 310 837 296 843 281 843 c 0
 258 843 242 833 222 807 c 1
 201 819 l 1
 222 853 249 873 281 873 c 0
 303 873 324 863 344 850 c 0
 363 838 380 830 399 830 c 0
 420 830 435 841 457 873 c 1
 478 861 l 1
 456 817 429 800 399 800 c 0
547 682 m 1
 547 0 l 1
 503 0 l 1
 148 643 l 1
 151 603 153 550 153 430 c 2
 153 0 l 1
 119 0 l 1
 119 682 l 1
 163 682 l 1
 517 39 l 1
 515 78 513 146 513 237 c 2
 513 682 l 1
 547 682 l 1
EndSplineSet
EndChar

StartChar: uni00D2
Encoding: 210 210 145
Width: 690
Flags: W
LayerCount: 2
Fore
SplineSet
263 872 m 1
 442 783 l 1
 432 761 l 1
 246 837 l 1
 263 872 l 1
345 693 m 0
 507 693 616 571 616 340 c 0
 616 118 512 -10 345 -10 c 0
 184 -10 74 114 74 339 c 0
 74 565 185 693 345 693 c 0
345 660 m 0
 206 660 110 553 110 339 c 0
 110 130 207 22 345 22 c 0
 491 22 580 130 580 340 c 0
 580 555 486 660 345 660 c 0
EndSplineSet
EndChar

StartChar: uni00D3
Encoding: 211 211 146
Width: 690
Flags: W
LayerCount: 2
Fore
SplineSet
426 872 m 1
 443 837 l 1
 257 761 l 1
 247 783 l 1
 426 872 l 1
345 693 m 0
 507 693 616 571 616 340 c 0
 616 118 512 -10 345 -10 c 0
 184 -10 74 114 74 339 c 0
 74 565 185 693 345 693 c 0
345 660 m 0
 206 660 110 553 110 339 c 0
 110 130 207 22 345 22 c 0
 491 22 580 130 580 340 c 0
 580 555 486 660 345 660 c 0
EndSplineSet
EndChar

StartChar: uni00D4
Encoding: 212 212 147
Width: 690
Flags: W
LayerCount: 2
Fore
SplineSet
227 765 m 1
 210 784 l 1
 336 879 l 1
 355 879 l 1
 479 784 l 1
 463 765 l 1
 345 844 l 1
 227 765 l 1
345 693 m 0
 507 693 616 571 616 340 c 0
 616 118 512 -10 345 -10 c 0
 184 -10 74 114 74 339 c 0
 74 565 185 693 345 693 c 0
345 660 m 0
 206 660 110 553 110 339 c 0
 110 130 207 22 345 22 c 0
 491 22 580 130 580 340 c 0
 580 555 486 660 345 660 c 0
EndSplineSet
EndChar

StartChar: uni00D5
Encoding: 213 213 148
Width: 690
Flags: W
LayerCount: 2
Fore
SplineSet
404 800 m 0
 377 800 352 812 333 825 c 0
 315 837 301 843 286 843 c 0
 263 843 247 833 227 807 c 1
 206 819 l 1
 227 853 254 873 286 873 c 0
 308 873 329 863 349 850 c 0
 368 838 385 830 404 830 c 0
 425 830 440 841 462 873 c 1
 483 861 l 1
 461 817 434 800 404 800 c 0
345 693 m 0
 507 693 616 571 616 340 c 0
 616 118 512 -10 345 -10 c 0
 184 -10 74 114 74 339 c 0
 74 565 185 693 345 693 c 0
345 660 m 0
 206 660 110 553 110 339 c 0
 110 130 207 22 345 22 c 0
 491 22 580 130 580 340 c 0
 580 555 486 660 345 660 c 0
EndSplineSet
EndChar

StartChar: uni00D6
Encoding: 214 214 149
Width: 690
Flags: W
LayerCount: 2
Fore
SplineSet
257 849 m 0
 274 849 285 837 285 822 c 0
 285 807 274 795 257 795 c 0
 241 795 230 807 230 822 c 0
 230 837 241 849 257 849 c 0
432 849 m 0
 449 849 460 837 460 822 c 0
 460 807 449 795 432 795 c 0
 415 795 404 807 404 822 c 0
 404 837 415 849 432 849 c 0
345 693 m 0
 507 693 616 571 616 340 c 0
 616 118 512 -10 345 -10 c 0
 184 -10 74 114 74 339 c 0
 74 565 185 693 345 693 c 0
345 660 m 0
 206 660 110 553 110 339 c 0
 110 130 207 22 345 22 c 0
 491 22 580 130 580 340 c 0
 580 555 486 660 345 660 c 0
EndSplineSet
EndChar

StartChar: uni00D7
Encoding: 215 215 150
Width: 489
Flags: W
LayerCount: 2
Fore
SplineSet
371 461 m 1
 395 438 l 1
 267 308 l 1
 395 177 l 1
 371 154 l 1
 245 286 l 1
 118 154 l 1
 94 177 l 1
 220 306 l 1
 94 438 l 1
 118 461 l 1
 242 328 l 1
 371 461 l 1
EndSplineSet
EndChar

StartChar: uni00D8
Encoding: 216 216 151
Width: 690
Flags: W
LayerCount: 2
Fore
SplineSet
457 670 m 1
 555 625 616 513 616 340 c 0
 616 118 512 -10 345 -10 c 0
 314 -10 286 -6 259 3 c 1
 228 -115 l 1
 194 -105 l 1
 231 15 l 1
 134 61 74 172 74 339 c 0
 74 565 185 693 345 693 c 0
 375 693 402 689 428 681 c 1
 461 804 l 1
 495 794 l 1
 457 670 l 1
110 339 m 0
 110 186 162 87 243 45 c 1
 420 649 l 1
 397 656 372 660 345 660 c 0
 206 660 110 553 110 339 c 0
345 22 m 0
 491 22 580 130 580 340 c 0
 580 499 529 597 446 638 c 1
 268 35 l 1
 292 26 317 22 345 22 c 0
EndSplineSet
EndChar

StartChar: uni00D9
Encoding: 217 217 152
Width: 644
Flags: W
LayerCount: 2
Fore
SplineSet
240 872 m 1
 419 783 l 1
 409 761 l 1
 223 837 l 1
 240 872 l 1
536 682 m 1
 536 209 l 2
 536 81 470 -10 323 -10 c 0
 174 -10 109 81 109 209 c 2
 109 682 l 1
 144 682 l 1
 144 212 l 2
 144 99 196 22 323 22 c 0
 450 22 500 101 500 212 c 2
 500 682 l 1
 536 682 l 1
EndSplineSet
EndChar

StartChar: uni00DA
Encoding: 218 218 153
Width: 644
Flags: W
LayerCount: 2
Fore
SplineSet
403 872 m 1
 420 837 l 1
 234 761 l 1
 224 783 l 1
 403 872 l 1
536 682 m 1
 536 209 l 2
 536 81 470 -10 323 -10 c 0
 174 -10 109 81 109 209 c 2
 109 682 l 1
 144 682 l 1
 144 212 l 2
 144 99 196 22 323 22 c 0
 450 22 500 101 500 212 c 2
 500 682 l 1
 536 682 l 1
EndSplineSet
EndChar

StartChar: uni00DB
Encoding: 219 219 154
Width: 644
Flags: W
LayerCount: 2
Fore
SplineSet
204 765 m 1
 187 784 l 1
 313 879 l 1
 332 879 l 1
 456 784 l 1
 440 765 l 1
 322 844 l 1
 204 765 l 1
536 682 m 1
 536 209 l 2
 536 81 470 -10 323 -10 c 0
 174 -10 109 81 109 209 c 2
 109 682 l 1
 144 682 l 1
 144 212 l 2
 144 99 196 22 323 22 c 0
 450 22 500 101 500 212 c 2
 500 682 l 1
 536 682 l 1
EndSplineSet
EndChar

StartChar: uni00DC
Encoding: 220 220 155
Width: 644
Flags: W
LayerCount: 2
Fore
SplineSet
234 849 m 0
 251 849 262 837 262 822 c 0
 262 807 251 795 234 795 c 0
 218 795 207 807 207 822 c 0
 207 837 218 849 234 849 c 0
409 849 m 0
 426 849 437 837 437 822 c 0
 437 807 426 795 409 795 c 0
 392 795 381 807 381 822 c 0
 381 837 392 849 409 849 c 0
536 682 m 1
 536 209 l 2
 536 81 470 -10 323 -10 c 0
 174 -10 109 81 109 209 c 2
 109 682 l 1
 144 682 l 1
 144 212 l 2
 144 99 196 22 323 22 c 0
 450 22 500 101 500 212 c 2
 500 682 l 1
 536 682 l 1
EndSplineSet
EndChar

StartChar: uni00DD
Encoding: 221 221 156
Width: 503
Flags: W
LayerCount: 2
Fore
SplineSet
332 872 m 1
 349 837 l 1
 163 761 l 1
 153 783 l 1
 332 872 l 1
484 682 m 1
 271 271 l 1
 271 0 l 1
 235 0 l 1
 235 270 l 1
 19 682 l 1
 59 682 l 1
 254 302 l 1
 445 682 l 1
 484 682 l 1
EndSplineSet
EndChar

StartChar: uni00DE
Encoding: 222 222 157
Width: 562
Flags: W
LayerCount: 2
Fore
SplineSet
265 557 m 2
 420 557 509 497 509 357 c 0
 509 199 406 143 260 143 c 2
 154 143 l 1
 154 0 l 1
 119 0 l 1
 119 682 l 1
 154 682 l 1
 154 557 l 1
 265 557 l 2
263 175 m 2
 385 175 472 215 472 356 c 0
 472 482 398 525 265 525 c 2
 154 525 l 1
 154 175 l 1
 263 175 l 2
EndSplineSet
EndChar

StartChar: uni00DF
Encoding: 223 223 158
Width: 574
Flags: W
LayerCount: 2
Fore
SplineSet
292 739 m 0
 382 739 445 685 445 610 c 0
 445 502 325 489 325 421 c 0
 325 335 520 328 520 151 c 0
 520 56 462 -10 368 -10 c 0
 326 -10 299 0 276 12 c 1
 289 38 l 1
 307 29 329 21 367 21 c 0
 438 21 485 67 485 151 c 0
 485 316 291 310 291 421 c 0
 291 503 410 510 410 609 c 0
 410 670 363 708 292 708 c 0
 210 708 148 656 148 537 c 2
 148 0 l 1
 114 0 l 1
 114 541 l 2
 114 670 189 739 292 739 c 0
EndSplineSet
EndChar

StartChar: uni00E0
Encoding: 224 224 159
Width: 526
Flags: W
LayerCount: 2
Fore
SplineSet
169 769 m 1
 349 673 l 1
 337 650 l 1
 153 734 l 1
 169 769 l 1
413 111 m 2
 413 44 427 26 457 14 c 1
 449 -10 l 1
 408 2 386 27 384 84 c 1
 346 22 291 -10 217 -10 c 0
 118 -10 59 51 59 144 c 0
 59 252 141 310 265 310 c 2
 379 310 l 1
 379 368 l 2
 379 456 347 500 250 500 c 0
 205 500 159 488 108 468 c 1
 99 496 l 1
 151 518 199 531 252 531 c 0
 365 531 413 476 413 371 c 2
 413 111 l 2
219 21 m 0
 295 21 345 59 379 123 c 1
 379 281 l 1
 272 281 l 2
 162 281 95 236 95 145 c 0
 95 66 143 21 219 21 c 0
EndSplineSet
EndChar

StartChar: uni00E1
Encoding: 225 225 160
Width: 526
Flags: W
LayerCount: 2
Fore
SplineSet
339 734 m 1
 155 650 l 1
 143 673 l 1
 323 769 l 1
 339 734 l 1
413 111 m 2
 413 44 427 26 457 14 c 1
 449 -10 l 1
 408 1 386 26 383 83 c 1
 346 22 291 -10 217 -10 c 0
 118 -10 59 51 59 144 c 0
 59 252 141 310 265 310 c 2
 379 310 l 1
 379 368 l 2
 379 456 347 500 250 500 c 0
 205 500 159 488 108 468 c 1
 99 496 l 1
 151 518 199 531 252 531 c 0
 365 531 413 476 413 371 c 2
 413 111 l 2
219 21 m 0
 294 21 345 59 379 122 c 1
 379 281 l 1
 272 281 l 2
 162 281 95 236 95 145 c 0
 95 66 143 21 219 21 c 0
EndSplineSet
EndChar

StartChar: uni00E2
Encoding: 226 226 161
Width: 526
Flags: W
LayerCount: 2
Fore
SplineSet
133 650 m 1
 116 670 l 1
 241 770 l 1
 260 770 l 1
 385 670 l 1
 369 650 l 1
 250 735 l 1
 133 650 l 1
413 111 m 2
 413 44 427 26 457 14 c 1
 449 -10 l 1
 408 2 386 27 384 84 c 1
 346 22 291 -10 217 -10 c 0
 118 -10 59 51 59 144 c 0
 59 252 141 310 265 310 c 2
 379 310 l 1
 379 368 l 2
 379 456 347 500 250 500 c 0
 205 500 159 488 108 468 c 1
 99 496 l 1
 151 518 199 531 252 531 c 0
 365 531 413 476 413 371 c 2
 413 111 l 2
219 21 m 0
 295 21 345 59 379 123 c 1
 379 281 l 1
 272 281 l 2
 162 281 95 236 95 145 c 0
 95 66 143 21 219 21 c 0
EndSplineSet
EndChar

StartChar: uni00E3
Encoding: 227 227 162
Width: 526
Flags: W
LayerCount: 2
Fore
SplineSet
310 674 m 0
 283 674 258 686 239 699 c 0
 221 711 207 717 192 717 c 0
 169 717 153 707 133 681 c 1
 112 693 l 1
 133 727 160 747 192 747 c 0
 214 747 235 737 255 724 c 0
 274 712 291 704 310 704 c 0
 331 704 346 715 368 747 c 1
 389 735 l 1
 367 691 340 674 310 674 c 0
413 111 m 2
 413 44 427 26 457 14 c 1
 449 -10 l 1
 408 2 386 27 384 84 c 1
 346 22 291 -10 217 -10 c 0
 118 -10 59 51 59 144 c 0
 59 252 141 310 265 310 c 2
 379 310 l 1
 379 368 l 2
 379 456 347 500 250 500 c 0
 205 500 159 488 108 468 c 1
 99 496 l 1
 151 518 199 531 252 531 c 0
 365 531 413 476 413 371 c 2
 413 111 l 2
219 21 m 0
 295 21 345 59 379 123 c 1
 379 281 l 1
 272 281 l 2
 162 281 95 236 95 145 c 0
 95 66 143 21 219 21 c 0
EndSplineSet
EndChar

StartChar: uni00E4
Encoding: 228 228 163
Width: 526
Flags: W
LayerCount: 2
Fore
SplineSet
163 723 m 0
 180 723 191 711 191 696 c 0
 191 681 180 669 163 669 c 0
 147 669 136 681 136 696 c 0
 136 711 147 723 163 723 c 0
338 723 m 0
 355 723 366 711 366 696 c 0
 366 681 355 669 338 669 c 0
 321 669 310 681 310 696 c 0
 310 711 321 723 338 723 c 0
413 111 m 2
 413 44 427 26 457 14 c 1
 449 -10 l 1
 408 2 386 27 384 84 c 1
 346 22 291 -10 217 -10 c 0
 118 -10 59 51 59 144 c 0
 59 252 141 310 265 310 c 2
 379 310 l 1
 379 368 l 2
 379 456 347 500 250 500 c 0
 205 500 159 488 108 468 c 1
 99 496 l 1
 151 518 199 531 252 531 c 0
 365 531 413 476 413 371 c 2
 413 111 l 2
219 21 m 0
 295 21 345 59 379 123 c 1
 379 281 l 1
 272 281 l 2
 162 281 95 236 95 145 c 0
 95 66 143 21 219 21 c 0
EndSplineSet
EndChar

StartChar: uni00E5
Encoding: 229 229 164
Width: 526
Flags: W
LayerCount: 2
Fore
SplineSet
252 810 m 0
 304 810 340 776 340 724 c 0
 340 673 304 639 252 639 c 0
 200 639 164 673 164 724 c 0
 164 776 200 810 252 810 c 0
252 784 m 0
 215 784 195 762 195 724 c 0
 195 687 215 665 252 665 c 0
 288 665 309 687 309 724 c 0
 309 762 289 784 252 784 c 0
413 111 m 2
 413 44 427 26 457 14 c 1
 449 -10 l 1
 408 2 386 27 384 84 c 1
 346 22 291 -10 217 -10 c 0
 118 -10 59 51 59 144 c 0
 59 252 141 310 265 310 c 2
 379 310 l 1
 379 368 l 2
 379 456 347 500 250 500 c 0
 205 500 159 488 108 468 c 1
 99 496 l 1
 151 518 199 531 252 531 c 0
 365 531 413 476 413 371 c 2
 413 111 l 2
219 21 m 0
 295 21 345 59 379 123 c 1
 379 281 l 1
 272 281 l 2
 162 281 95 236 95 145 c 0
 95 66 143 21 219 21 c 0
EndSplineSet
EndChar

StartChar: uni00E6
Encoding: 230 230 165
Width: 838
Flags: W
LayerCount: 2
Fore
SplineSet
776 283 m 0
 776 268 775 252 774 243 c 1
 415 243 l 1
 421 89 494 21 593 21 c 0
 654 21 692 41 737 76 c 1
 755 52 l 1
 709 13 660 -10 593 -10 c 0
 509 -10 444 31 409 105 c 1
 351 21 294 -10 218 -10 c 0
 118 -10 59 51 59 144 c 0
 59 252 141 311 266 311 c 2
 379 311 l 1
 379 368 l 2
 379 456 347 500 251 500 c 0
 205 500 159 488 109 468 c 1
 99 496 l 1
 152 518 199 531 252 531 c 0
 350 531 399 489 410 409 c 1
 444 490 504 531 586 531 c 0
 712 531 776 432 776 283 c 0
742 272 m 1
 742 295 l 2
 742 416 693 500 586 500 c 0
 494 500 420 431 415 272 c 1
 742 272 l 1
219 21 m 0
 292 21 342 56 397 135 c 1
 385 170 379 210 379 256 c 2
 379 281 l 1
 272 281 l 2
 162 281 95 236 95 145 c 0
 95 66 143 21 219 21 c 0
EndSplineSet
EndChar

StartChar: uni00E7
Encoding: 231 231 166
Width: 463
Flags: W
LayerCount: 2
Fore
SplineSet
292 -70 m 1
 355 -74 383 -99 383 -140 c 0
 383 -189 341 -218 291 -218 c 0
 259 -218 236 -209 219 -198 c 1
 233 -173 l 1
 246 -182 265 -188 291 -188 c 0
 323 -188 350 -173 350 -140 c 0
 350 -108 323 -94 261 -93 c 1
 266 -9 l 1
 147 0 69 96 69 257 c 0
 69 426 155 531 284 531 c 0
 341 531 381 516 423 480 c 1
 404 457 l 1
 372 485 336 499 285 499 c 0
 182 499 105 418 105 257 c 0
 105 100 181 21 284 21 c 0
 336 21 375 39 409 68 c 1
 428 44 l 1
 392 12 346 -9 292 -10 c 1
 292 -70 l 1
EndSplineSet
EndChar

StartChar: uni00E8
Encoding: 232 232 167
Width: 528
Flags: W
LayerCount: 2
Fore
SplineSet
192 769 m 1
 372 673 l 1
 360 650 l 1
 176 734 l 1
 192 769 l 1
466 283 m 0
 466 268 465 252 464 243 c 1
 105 243 l 1
 111 89 184 21 283 21 c 0
 343 21 381 41 427 76 c 1
 445 52 l 1
 399 13 350 -10 283 -10 c 0
 152 -10 69 88 69 256 c 0
 69 426 149 531 271 531 c 0
 402 531 466 432 466 283 c 0
432 272 m 1
 432 295 l 2
 432 416 383 500 273 500 c 0
 184 500 109 431 105 272 c 1
 432 272 l 1
EndSplineSet
EndChar

StartChar: uni00E9
Encoding: 233 233 168
Width: 528
Flags: W
LayerCount: 2
Fore
SplineSet
362 734 m 1
 178 650 l 1
 166 673 l 1
 346 769 l 1
 362 734 l 1
466 283 m 0
 466 268 465 252 464 243 c 1
 104 243 l 1
 111 89 184 21 283 21 c 0
 343 21 381 41 427 76 c 1
 445 52 l 1
 399 13 350 -10 283 -10 c 0
 152 -10 69 88 69 256 c 0
 69 426 149 531 271 531 c 0
 402 531 466 432 466 283 c 0
432 272 m 1
 432 295 l 2
 432 416 383 500 273 500 c 0
 184 500 109 431 104 272 c 1
 432 272 l 1
EndSplineSet
EndChar

StartChar: uni00EA
Encoding: 234 234 169
Width: 528
Flags: W
LayerCount: 2
Fore
SplineSet
273 735 m 1
 156 650 l 1
 139 670 l 1
 264 770 l 1
 283 770 l 1
 408 670 l 1
 392 650 l 1
 273 735 l 1
466 283 m 0
 466 268 465 252 464 243 c 1
 104 243 l 1
 111 89 184 21 283 21 c 0
 343 21 381 41 427 76 c 1
 445 52 l 1
 399 13 350 -10 283 -10 c 0
 152 -10 69 88 69 256 c 0
 69 426 149 531 271 531 c 0
 402 531 466 432 466 283 c 0
432 272 m 1
 432 295 l 2
 432 416 383 500 273 500 c 0
 184 500 109 431 104 272 c 1
 432 272 l 1
EndSplineSet
EndChar

StartChar: uni00EB
Encoding: 235 235 170
Width: 528
Flags: W
LayerCount: 2
Fore
SplineSet
186 723 m 0
 203 723 214 711 214 696 c 0
 214 681 203 669 186 669 c 0
 170 669 159 681 159 696 c 0
 159 711 170 723 186 723 c 0
361 723 m 0
 378 723 389 711 389 696 c 0
 389 681 378 669 361 669 c 0
 344 669 333 681 333 696 c 0
 333 711 344 723 361 723 c 0
466 283 m 0
 466 268 465 252 464 243 c 1
 105 243 l 1
 111 89 184 21 283 21 c 0
 343 21 381 41 427 76 c 1
 445 52 l 1
 399 13 350 -10 283 -10 c 0
 152 -10 69 88 69 256 c 0
 69 426 149 531 271 531 c 0
 402 531 466 432 466 283 c 0
432 272 m 1
 432 295 l 2
 432 416 383 500 273 500 c 0
 184 500 109 431 105 272 c 1
 432 272 l 1
EndSplineSet
EndChar

StartChar: uni00EC
Encoding: 236 236 171
Width: 261
Flags: W
LayerCount: 2
Fore
SplineSet
49 769 m 1
 229 673 l 1
 217 650 l 1
 33 734 l 1
 49 769 l 1
148 520 m 1
 148 0 l 1
 114 0 l 1
 114 520 l 1
 148 520 l 1
EndSplineSet
EndChar

StartChar: uni00ED
Encoding: 237 237 172
Width: 261
Flags: W
LayerCount: 2
Fore
SplineSet
203 769 m 1
 219 734 l 1
 35 650 l 1
 23 673 l 1
 203 769 l 1
148 520 m 1
 148 0 l 1
 114 0 l 1
 114 520 l 1
 148 520 l 1
EndSplineSet
EndChar

StartChar: uni00EE
Encoding: 238 238 173
Width: 261
Flags: W
LayerCount: 2
Fore
SplineSet
12 650 m 1
 -5 670 l 1
 120 770 l 1
 139 770 l 1
 264 670 l 1
 248 650 l 1
 129 735 l 1
 12 650 l 1
148 520 m 1
 148 0 l 1
 114 0 l 1
 114 520 l 1
 148 520 l 1
EndSplineSet
EndChar

StartChar: uni00EF
Encoding: 239 239 174
Width: 261
Flags: W
LayerCount: 2
Fore
SplineSet
42 723 m 0
 59 723 70 711 70 696 c 0
 70 681 59 669 42 669 c 0
 26 669 15 681 15 696 c 0
 15 711 26 723 42 723 c 0
217 723 m 0
 234 723 245 711 245 696 c 0
 245 681 234 669 217 669 c 0
 200 669 189 681 189 696 c 0
 189 711 200 723 217 723 c 0
148 520 m 1
 148 0 l 1
 114 0 l 1
 114 520 l 1
 148 520 l 1
EndSplineSet
EndChar

StartChar: uni00F0
Encoding: 240 240 175
Width: 546
Flags: W
LayerCount: 2
Fore
SplineSet
313 665 m 1
 412 586 472 479 472 290 c 0
 472 85 390 -10 270 -10 c 0
 141 -10 69 84 69 231 c 0
 69 353 137 464 260 464 c 0
 332 464 387 429 433 373 c 1
 421 485 377 573 291 642 c 1
 210 560 l 1
 183 571 l 1
 268 658 l 1
 233 680 185 702 139 711 c 1
 147 740 l 1
 195 730 243 710 289 681 c 1
 358 752 l 1
 380 733 l 1
 313 665 l 1
270 21 m 0
 375 21 437 114 437 293 c 0
 437 313 436 325 435 336 c 1
 387 396 329 433 263 433 c 0
 162 433 105 344 105 230 c 0
 105 99 165 21 270 21 c 0
EndSplineSet
EndChar

StartChar: uni00F1
Encoding: 241 241 176
Width: 582
Flags: W
LayerCount: 2
Fore
SplineSet
238 717 m 0
 215 717 199 707 179 681 c 1
 158 693 l 1
 179 727 206 747 238 747 c 0
 260 747 281 737 301 724 c 0
 320 712 337 704 356 704 c 0
 377 704 392 715 414 747 c 1
 435 735 l 1
 413 691 386 674 356 674 c 0
 329 674 304 686 285 699 c 0
 267 711 253 717 238 717 c 0
333 531 m 0
 427 531 473 472 473 371 c 2
 473 0 l 1
 439 0 l 1
 439 366 l 2
 439 458 403 501 330 501 c 0
 250 501 196 452 148 382 c 1
 148 0 l 1
 114 0 l 1
 114 520 l 1
 143 520 l 1
 147 423 l 1
 192 487 252 531 333 531 c 0
EndSplineSet
EndChar

StartChar: uni00F2
Encoding: 242 242 177
Width: 562
Flags: W
LayerCount: 2
Fore
SplineSet
200 769 m 1
 380 673 l 1
 368 650 l 1
 184 734 l 1
 200 769 l 1
282 531 m 0
 412 531 493 436 493 262 c 0
 493 90 410 -10 281 -10 c 0
 149 -10 69 91 69 259 c 0
 69 431 153 531 282 531 c 0
282 500 m 0
 174 500 105 418 105 259 c 0
 105 106 171 21 281 21 c 0
 389 21 458 104 458 262 c 0
 458 417 392 500 282 500 c 0
EndSplineSet
EndChar

StartChar: uni00F3
Encoding: 243 243 178
Width: 562
Flags: W
LayerCount: 2
Fore
SplineSet
354 769 m 1
 370 734 l 1
 186 650 l 1
 174 673 l 1
 354 769 l 1
282 531 m 0
 412 531 493 436 493 262 c 0
 493 90 410 -10 281 -10 c 0
 149 -10 69 91 69 259 c 0
 69 431 153 531 282 531 c 0
282 500 m 0
 174 500 105 418 105 259 c 0
 105 106 171 21 281 21 c 0
 389 21 458 104 458 262 c 0
 458 417 392 500 282 500 c 0
EndSplineSet
EndChar

StartChar: uni00F4
Encoding: 244 244 179
Width: 562
Flags: W
LayerCount: 2
Fore
SplineSet
164 650 m 1
 147 670 l 1
 272 770 l 1
 291 770 l 1
 416 670 l 1
 400 650 l 1
 281 735 l 1
 164 650 l 1
282 531 m 0
 412 531 493 436 493 262 c 0
 493 90 410 -10 281 -10 c 0
 149 -10 69 91 69 259 c 0
 69 431 153 531 282 531 c 0
282 500 m 0
 174 500 105 418 105 259 c 0
 105 106 171 21 281 21 c 0
 389 21 458 104 458 262 c 0
 458 417 392 500 282 500 c 0
EndSplineSet
EndChar

StartChar: uni00F5
Encoding: 245 245 180
Width: 562
Flags: W
LayerCount: 2
Fore
SplineSet
341 674 m 0
 314 674 289 686 270 699 c 0
 252 711 238 717 223 717 c 0
 200 717 184 707 164 681 c 1
 143 693 l 1
 164 727 191 747 223 747 c 0
 245 747 266 737 286 724 c 0
 305 712 322 704 341 704 c 0
 362 704 377 715 399 747 c 1
 420 735 l 1
 398 691 371 674 341 674 c 0
282 531 m 0
 412 531 493 436 493 262 c 0
 493 90 410 -10 281 -10 c 0
 149 -10 69 91 69 259 c 0
 69 431 153 531 282 531 c 0
282 500 m 0
 174 500 105 418 105 259 c 0
 105 106 171 21 281 21 c 0
 389 21 458 104 458 262 c 0
 458 417 392 500 282 500 c 0
EndSplineSet
EndChar

StartChar: uni00F6
Encoding: 246 246 181
Width: 562
Flags: W
LayerCount: 2
Fore
SplineSet
193 723 m 0
 210 723 221 711 221 696 c 0
 221 681 210 669 193 669 c 0
 177 669 166 681 166 696 c 0
 166 711 177 723 193 723 c 0
368 723 m 0
 385 723 396 711 396 696 c 0
 396 681 385 669 368 669 c 0
 351 669 340 681 340 696 c 0
 340 711 351 723 368 723 c 0
282 531 m 0
 412 531 493 436 493 262 c 0
 493 90 410 -10 281 -10 c 0
 149 -10 69 91 69 259 c 0
 69 431 153 531 282 531 c 0
282 500 m 0
 174 500 105 418 105 259 c 0
 105 106 171 21 281 21 c 0
 389 21 458 104 458 262 c 0
 458 417 392 500 282 500 c 0
EndSplineSet
EndChar

StartChar: uni00F7
Encoding: 247 247 182
Width: 489
Flags: W
LayerCount: 2
Fore
SplineSet
244 575 m 0
 265 575 277 561 277 542 c 0
 277 525 265 511 244 511 c 0
 225 511 212 525 212 542 c 0
 212 561 225 575 244 575 c 0
74 315 m 1
 74 347 l 1
 415 347 l 1
 415 315 l 1
 74 315 l 1
244 151 m 0
 265 151 277 136 277 118 c 0
 277 101 265 86 244 86 c 0
 225 86 212 101 212 118 c 0
 212 136 225 151 244 151 c 0
EndSplineSet
EndChar

StartChar: uni00F8
Encoding: 248 248 183
Width: 562
Flags: W
LayerCount: 2
Fore
SplineSet
381 508 m 1
 452 470 493 386 493 262 c 0
 493 90 410 -10 281 -10 c 0
 256 -10 233 -6 212 1 c 1
 169 -122 l 1
 139 -113 l 1
 183 13 l 1
 110 52 69 138 69 259 c 0
 69 431 153 531 282 531 c 0
 307 531 331 527 352 520 c 1
 392 643 l 1
 422 634 l 1
 381 508 l 1
105 259 m 0
 105 151 138 77 196 43 c 1
 343 490 l 1
 325 497 304 500 282 500 c 0
 174 500 105 418 105 259 c 0
281 21 m 0
 389 21 458 104 458 262 c 0
 458 371 426 444 369 478 c 1
 221 31 l 1
 239 24 259 21 281 21 c 0
EndSplineSet
EndChar

StartChar: uni00F9
Encoding: 249 249 184
Width: 577
Flags: W
LayerCount: 2
Fore
SplineSet
204 769 m 1
 384 673 l 1
 372 650 l 1
 188 734 l 1
 204 769 l 1
463 520 m 1
 463 0 l 1
 434 0 l 1
 433 101 l 1
 399 40 342 -10 256 -10 c 0
 163 -10 108 46 108 149 c 2
 108 520 l 1
 142 520 l 1
 142 152 l 2
 142 61 185 21 262 21 c 0
 338 21 390 70 429 139 c 1
 429 520 l 1
 463 520 l 1
EndSplineSet
EndChar

StartChar: uni00FA
Encoding: 250 250 185
Width: 577
Flags: W
LayerCount: 2
Fore
SplineSet
358 769 m 1
 374 734 l 1
 190 650 l 1
 178 673 l 1
 358 769 l 1
463 520 m 1
 463 0 l 1
 434 0 l 1
 433 101 l 1
 399 40 342 -10 256 -10 c 0
 163 -10 108 46 108 149 c 2
 108 520 l 1
 142 520 l 1
 142 152 l 2
 142 61 185 21 262 21 c 0
 338 21 390 70 429 139 c 1
 429 520 l 1
 463 520 l 1
EndSplineSet
EndChar

StartChar: uni00FB
Encoding: 251 251 186
Width: 577
Flags: W
LayerCount: 2
Fore
SplineSet
168 650 m 1
 151 670 l 1
 276 770 l 1
 295 770 l 1
 420 670 l 1
 404 650 l 1
 285 735 l 1
 168 650 l 1
463 520 m 1
 463 0 l 1
 434 0 l 1
 433 101 l 1
 399 40 342 -10 256 -10 c 0
 163 -10 108 46 108 149 c 2
 108 520 l 1
 142 520 l 1
 142 152 l 2
 142 61 185 21 262 21 c 0
 338 21 390 70 429 139 c 1
 429 520 l 1
 463 520 l 1
EndSplineSet
EndChar

StartChar: uni00FC
Encoding: 252 252 187
Width: 577
Flags: W
LayerCount: 2
Fore
SplineSet
198 723 m 0
 215 723 226 711 226 696 c 0
 226 681 215 669 198 669 c 0
 182 669 171 681 171 696 c 0
 171 711 182 723 198 723 c 0
373 723 m 0
 390 723 401 711 401 696 c 0
 401 681 390 669 373 669 c 0
 356 669 345 681 345 696 c 0
 345 711 356 723 373 723 c 0
463 520 m 1
 463 0 l 1
 434 0 l 1
 433 101 l 1
 399 40 342 -10 256 -10 c 0
 163 -10 108 46 108 149 c 2
 108 520 l 1
 142 520 l 1
 142 152 l 2
 142 61 185 21 262 21 c 0
 338 21 390 70 429 139 c 1
 429 520 l 1
 463 520 l 1
EndSplineSet
EndChar

StartChar: uni00FD
Encoding: 253 253 188
Width: 451
Flags: W
LayerCount: 2
Fore
SplineSet
298 769 m 1
 314 734 l 1
 130 650 l 1
 118 673 l 1
 298 769 l 1
431 520 m 1
 249 -2 l 2
 209 -117 172 -167 58 -198 c 1
 54 -171 l 1
 158 -141 181 -99 217 0 c 1
 205 0 l 1
 19 520 l 1
 57 520 l 1
 227 27 l 1
 394 520 l 1
 431 520 l 1
EndSplineSet
EndChar

StartChar: uni00FE
Encoding: 254 254 189
Width: 566
Flags: W
LayerCount: 2
Fore
SplineSet
311 531 m 0
 432 531 497 436 497 264 c 0
 497 95 430 -10 304 -10 c 0
 233 -10 180 26 148 70 c 1
 148 -193 l 1
 114 -200 l 1
 114 734 l 1
 148 739 l 1
 148 443 l 1
 186 495 239 531 311 531 c 0
302 21 m 0
 406 21 462 106 462 264 c 0
 462 421 409 500 309 500 c 0
 235 500 191 461 148 405 c 1
 148 109 l 1
 184 57 234 21 302 21 c 0
EndSplineSet
EndChar

StartChar: uni00FF
Encoding: 255 255 190
Width: 451
Flags: W
LayerCount: 2
Fore
SplineSet
137 723 m 0
 154 723 165 711 165 696 c 0
 165 681 154 669 137 669 c 0
 121 669 110 681 110 696 c 0
 110 711 121 723 137 723 c 0
312 723 m 0
 329 723 340 711 340 696 c 0
 340 681 329 669 312 669 c 0
 295 669 284 681 284 696 c 0
 284 711 295 723 312 723 c 0
431 520 m 1
 249 -2 l 2
 209 -117 172 -167 58 -198 c 1
 54 -171 l 1
 158 -141 181 -99 217 0 c 1
 205 0 l 1
 19 520 l 1
 57 520 l 1
 227 27 l 1
 394 520 l 1
 431 520 l 1
EndSplineSet
EndChar

StartChar: uni0100
Encoding: 256 256 191
Width: 559
Flags: W
LayerCount: 2
Fore
SplineSet
389 808 m 1
 171 808 l 1
 171 840 l 1
 389 840 l 1
 389 808 l 1
498 0 m 1
 432 197 l 1
 125 197 l 1
 59 0 l 1
 24 0 l 1
 258 682 l 1
 301 682 l 1
 535 0 l 1
 498 0 l 1
136 229 m 1
 421 229 l 1
 279 654 l 1
 136 229 l 1
EndSplineSet
EndChar

StartChar: uni0101
Encoding: 257 257 192
Width: 526
Flags: W
LayerCount: 2
Fore
SplineSet
360 682 m 1
 142 682 l 1
 142 714 l 1
 360 714 l 1
 360 682 l 1
413 111 m 2
 413 44 427 26 457 14 c 1
 449 -10 l 1
 408 2 386 27 384 84 c 1
 346 22 291 -10 217 -10 c 0
 118 -10 59 51 59 144 c 0
 59 252 141 310 265 310 c 2
 379 310 l 1
 379 368 l 2
 379 456 347 500 250 500 c 0
 205 500 159 488 108 468 c 1
 99 496 l 1
 151 518 199 531 252 531 c 0
 365 531 413 476 413 371 c 2
 413 111 l 2
219 21 m 0
 295 21 345 59 379 123 c 1
 379 281 l 1
 272 281 l 2
 162 281 95 236 95 145 c 0
 95 66 143 21 219 21 c 0
EndSplineSet
EndChar

StartChar: uni0102
Encoding: 258 258 193
Width: 559
Flags: W
LayerCount: 2
Fore
SplineSet
279 769 m 0
 218 769 173 808 164 854 c 1
 189 859 l 1
 201 825 232 801 279 801 c 0
 326 801 358 825 370 859 c 1
 395 854 l 1
 386 808 341 769 279 769 c 0
498 0 m 1
 432 197 l 1
 125 197 l 1
 59 0 l 1
 24 0 l 1
 258 682 l 1
 301 682 l 1
 535 0 l 1
 498 0 l 1
136 229 m 1
 421 229 l 1
 279 654 l 1
 136 229 l 1
EndSplineSet
EndChar

StartChar: uni0103
Encoding: 259 259 194
Width: 526
Flags: W
LayerCount: 2
Fore
SplineSet
251 660 m 0
 190 660 145 699 136 754 c 1
 161 760 l 1
 173 716 204 691 251 691 c 0
 298 691 330 716 342 760 c 1
 367 754 l 1
 358 699 313 660 251 660 c 0
413 111 m 2
 413 44 427 26 457 14 c 1
 449 -10 l 1
 408 1 386 26 383 83 c 1
 346 22 291 -10 217 -10 c 0
 118 -10 59 51 59 144 c 0
 59 252 141 310 265 310 c 2
 379 310 l 1
 379 368 l 2
 379 456 347 500 250 500 c 0
 205 500 159 488 108 468 c 1
 99 496 l 1
 151 518 199 531 252 531 c 0
 365 531 413 476 413 371 c 2
 413 111 l 2
219 21 m 0
 294 21 345 59 379 122 c 1
 379 281 l 1
 272 281 l 2
 162 281 95 236 95 145 c 0
 95 66 143 21 219 21 c 0
EndSplineSet
EndChar

StartChar: uni0104
Encoding: 260 260 195
Width: 559
Flags: W
LayerCount: 2
Fore
SplineSet
411 -121 m 0
 411 -153 432 -175 478 -175 c 0
 496 -175 513 -173 535 -169 c 1
 531 -202 l 1
 511 -206 496 -208 477 -208 c 0
 406 -208 375 -170 375 -123 c 0
 375 -67 417 -28 495 8 c 1
 432 197 l 1
 125 197 l 1
 59 0 l 1
 24 0 l 1
 258 682 l 1
 301 682 l 1
 535 0 l 1
 532 0 l 1
 454 -37 411 -66 411 -121 c 0
136 229 m 1
 421 229 l 1
 279 654 l 1
 136 229 l 1
EndSplineSet
EndChar

StartChar: uni0105
Encoding: 261 261 196
Width: 526
Flags: W
LayerCount: 2
Fore
SplineSet
328 -131 m 0
 328 -163 349 -185 395 -185 c 0
 413 -185 430 -183 452 -179 c 1
 448 -212 l 1
 428 -216 413 -218 394 -218 c 0
 323 -218 292 -180 292 -133 c 0
 292 -75 337 -35 421 2 c 1
 398 17 385 41 384 84 c 1
 346 22 291 -10 217 -10 c 0
 118 -10 59 51 59 144 c 0
 59 252 141 310 265 310 c 2
 379 310 l 1
 379 368 l 2
 379 456 347 500 250 500 c 0
 205 500 159 488 108 468 c 1
 99 496 l 1
 151 518 199 531 252 531 c 0
 365 531 413 476 413 371 c 2
 413 111 l 2
 413 44 427 26 457 14 c 1
 449 -10 l 1
 371 -47 328 -76 328 -131 c 0
379 123 m 1
 379 281 l 1
 272 281 l 2
 162 281 95 236 95 145 c 0
 95 66 143 21 219 21 c 0
 295 21 345 59 379 123 c 1
EndSplineSet
EndChar

StartChar: uni0106
Encoding: 262 262 197
Width: 543
Flags: W
LayerCount: 2
Fore
SplineSet
423 872 m 1
 440 837 l 1
 254 761 l 1
 244 783 l 1
 423 872 l 1
345 693 m 0
 421 693 466 670 510 633 c 1
 491 608 l 1
 444 644 408 660 347 660 c 0
 217 660 110 567 110 341 c 0
 110 127 214 23 343 23 c 0
 418 23 457 47 498 81 c 1
 518 56 l 1
 475 18 421 -10 342 -10 c 0
 189 -10 74 112 74 341 c 0
 74 577 195 693 345 693 c 0
EndSplineSet
EndChar

StartChar: uni0107
Encoding: 263 263 198
Width: 463
Flags: W
LayerCount: 2
Fore
SplineSet
356 769 m 1
 372 734 l 1
 188 650 l 1
 176 673 l 1
 356 769 l 1
284 531 m 0
 341 531 381 516 423 480 c 1
 404 457 l 1
 372 485 336 499 285 499 c 0
 182 499 105 418 105 257 c 0
 105 100 181 21 284 21 c 0
 336 21 375 39 409 68 c 1
 428 44 l 1
 391 11 343 -10 286 -10 c 0
 156 -10 69 87 69 257 c 0
 69 426 155 531 284 531 c 0
EndSplineSet
EndChar

StartChar: uni010C
Encoding: 268 268 199
Width: 543
Flags: W
LayerCount: 2
Fore
SplineSet
460 873 m 1
 476 853 l 1
 352 758 l 1
 333 758 l 1
 207 853 l 1
 224 873 l 1
 342 793 l 1
 460 873 l 1
345 693 m 0
 421 693 466 670 510 633 c 1
 491 608 l 1
 444 644 408 660 347 660 c 0
 217 660 110 567 110 341 c 0
 110 127 214 23 343 23 c 0
 418 23 457 47 498 81 c 1
 518 56 l 1
 475 18 421 -10 342 -10 c 0
 189 -10 74 112 74 341 c 0
 74 577 195 693 345 693 c 0
EndSplineSet
EndChar

StartChar: uni010D
Encoding: 269 269 200
Width: 463
Flags: W
LayerCount: 2
Fore
SplineSet
401 758 m 1
 417 738 l 1
 293 637 l 1
 274 637 l 1
 148 738 l 1
 165 758 l 1
 283 673 l 1
 401 758 l 1
284 531 m 0
 341 531 381 516 423 480 c 1
 404 457 l 1
 372 485 336 499 285 499 c 0
 182 499 105 418 105 257 c 0
 105 100 181 21 284 21 c 0
 336 21 375 39 409 68 c 1
 428 44 l 1
 391 11 343 -10 286 -10 c 0
 156 -10 69 87 69 257 c 0
 69 426 155 531 284 531 c 0
EndSplineSet
EndChar

StartChar: uni010E
Encoding: 270 270 201
Width: 623
Flags: W
LayerCount: 2
Fore
SplineSet
415 873 m 1
 431 853 l 1
 307 758 l 1
 288 758 l 1
 162 853 l 1
 179 873 l 1
 297 793 l 1
 415 873 l 1
249 682 m 2
 397 682 550 627 550 348 c 0
 550 61 388 0 253 0 c 2
 119 0 l 1
 119 682 l 1
 249 682 l 2
247 650 m 2
 154 650 l 1
 154 32 l 1
 254 32 l 2
 380 32 513 89 513 348 c 0
 513 612 375 650 247 650 c 2
EndSplineSet
EndChar

StartChar: uni010F
Encoding: 271 271 202
Width: 572
Flags: W
LayerCount: 2
Fore
SplineSet
424 454 m 1
 424 739 l 1
 458 734 l 1
 458 0 l 1
 428 0 l 1
 424 86 l 1
 397 35 347 -10 263 -10 c 0
 146 -10 69 90 69 258 c 0
 69 419 145 531 273 531 c 0
 352 531 396 491 424 454 c 1
546 738 m 1
 582 733 l 1
 550 584 l 1
 527 587 l 1
 546 738 l 1
265 21 m 0
 342 21 388 61 424 132 c 1
 424 413 l 1
 394 460 348 500 276 500 c 0
 175 500 104 411 105 258 c 0
 105 107 167 21 265 21 c 0
EndSplineSet
EndChar

StartChar: uni0110
Encoding: 272 272 203
Width: 623
Flags: W
LayerCount: 2
Fore
SplineSet
249 682 m 2
 396 682 550 627 550 348 c 0
 550 61 388 0 253 0 c 2
 119 0 l 1
 119 336 l 1
 25 336 l 1
 25 368 l 1
 119 368 l 1
 119 682 l 1
 249 682 l 2
254 32 m 2
 380 32 513 89 513 348 c 0
 513 612 375 650 247 650 c 2
 154 650 l 1
 154 368 l 1
 342 368 l 1
 342 336 l 1
 154 336 l 1
 154 32 l 1
 254 32 l 2
EndSplineSet
EndChar

StartChar: uni0111
Encoding: 273 273 204
Width: 582
Flags: W
LayerCount: 2
Fore
SplineSet
458 654 m 1
 538 654 l 1
 538 624 l 1
 458 624 l 1
 458 0 l 1
 428 0 l 1
 424 86 l 1
 397 35 347 -10 263 -10 c 0
 146 -10 69 90 69 258 c 0
 69 419 145 531 273 531 c 0
 352 531 396 491 424 454 c 1
 424 624 l 1
 260 624 l 1
 260 654 l 1
 424 654 l 1
 424 739 l 1
 458 734 l 1
 458 654 l 1
265 21 m 0
 342 21 388 61 424 132 c 1
 424 413 l 1
 394 460 348 500 276 500 c 0
 175 500 104 411 105 258 c 0
 105 107 167 21 265 21 c 0
EndSplineSet
EndChar

StartChar: uni0112
Encoding: 274 274 205
Width: 496
Flags: W
LayerCount: 2
Fore
SplineSet
397 808 m 1
 179 808 l 1
 179 840 l 1
 397 840 l 1
 397 808 l 1
449 682 m 1
 444 650 l 1
 154 650 l 1
 154 374 l 1
 405 374 l 1
 405 343 l 1
 154 343 l 1
 154 32 l 1
 455 32 l 1
 455 0 l 1
 119 0 l 1
 119 682 l 1
 449 682 l 1
EndSplineSet
EndChar

StartChar: uni0113
Encoding: 275 275 206
Width: 528
Flags: W
LayerCount: 2
Fore
SplineSet
383 682 m 1
 165 682 l 1
 165 714 l 1
 383 714 l 1
 383 682 l 1
466 283 m 0
 466 268 465 252 464 243 c 1
 105 243 l 1
 111 89 184 21 283 21 c 0
 343 21 381 41 427 76 c 1
 445 52 l 1
 399 13 350 -10 283 -10 c 0
 152 -10 69 88 69 256 c 0
 69 426 149 531 271 531 c 0
 402 531 466 432 466 283 c 0
432 272 m 1
 432 295 l 2
 432 416 383 500 273 500 c 0
 184 500 109 431 105 272 c 1
 432 272 l 1
EndSplineSet
EndChar

StartChar: uni0116
Encoding: 278 278 207
Width: 496
Flags: W
LayerCount: 2
Fore
SplineSet
288 860 m 0
 307 860 317 847 317 833 c 0
 317 818 307 805 288 805 c 0
 271 805 260 818 260 833 c 0
 260 847 271 860 288 860 c 0
449 682 m 1
 444 650 l 1
 154 650 l 1
 154 374 l 1
 405 374 l 1
 405 343 l 1
 154 343 l 1
 154 32 l 1
 455 32 l 1
 455 0 l 1
 119 0 l 1
 119 682 l 1
 449 682 l 1
EndSplineSet
EndChar

StartChar: uni0117
Encoding: 279 279 208
Width: 528
Flags: W
LayerCount: 2
Fore
SplineSet
274 734 m 0
 293 734 303 721 303 707 c 0
 303 692 293 679 274 679 c 0
 257 679 246 692 246 707 c 0
 246 721 257 734 274 734 c 0
466 283 m 0
 466 268 465 252 464 243 c 1
 105 243 l 1
 111 89 184 21 283 21 c 0
 343 21 381 41 427 76 c 1
 445 52 l 1
 399 13 350 -10 283 -10 c 0
 152 -10 69 88 69 256 c 0
 69 426 149 531 271 531 c 0
 402 531 466 432 466 283 c 0
432 272 m 1
 432 295 l 2
 432 416 383 500 273 500 c 0
 184 500 109 431 105 272 c 1
 432 272 l 1
EndSplineSet
EndChar

StartChar: uni0118
Encoding: 280 280 209
Width: 496
Flags: W
LayerCount: 2
Fore
SplineSet
429 0 m 1
 351 -37 308 -66 308 -121 c 0
 308 -153 329 -175 375 -175 c 0
 393 -175 410 -173 432 -169 c 1
 428 -202 l 1
 408 -206 393 -208 374 -208 c 0
 303 -208 272 -170 272 -123 c 0
 272 -71 308 -34 376 0 c 1
 119 0 l 1
 119 682 l 1
 449 682 l 1
 444 650 l 1
 154 650 l 1
 154 374 l 1
 405 374 l 1
 405 343 l 1
 154 343 l 1
 154 32 l 1
 455 32 l 1
 455 0 l 1
 429 0 l 1
EndSplineSet
EndChar

StartChar: uni0119
Encoding: 281 281 210
Width: 528
Flags: W
LayerCount: 2
Fore
SplineSet
466 283 m 0
 466 268 465 252 464 243 c 1
 105 243 l 1
 111 89 184 21 283 21 c 0
 343 21 381 41 427 76 c 1
 445 52 l 1
 419 30 393 13 362 3 c 1
 286 -33 246 -62 246 -116 c 0
 246 -148 269 -170 316 -170 c 0
 334 -170 348 -168 369 -164 c 1
 366 -197 l 1
 346 -201 331 -203 311 -203 c 0
 241 -203 210 -165 210 -118 c 0
 210 -73 237 -39 292 -10 c 1
 283 -10 l 2
 152 -10 69 88 69 256 c 0
 69 426 149 531 271 531 c 0
 402 531 466 432 466 283 c 0
432 272 m 1
 432 295 l 2
 432 416 383 500 273 500 c 0
 184 500 109 431 105 272 c 1
 432 272 l 1
EndSplineSet
EndChar

StartChar: uni011A
Encoding: 282 282 211
Width: 496
Flags: W
LayerCount: 2
Fore
SplineSet
406 873 m 1
 422 853 l 1
 298 758 l 1
 279 758 l 1
 153 853 l 1
 170 873 l 1
 288 793 l 1
 406 873 l 1
449 682 m 1
 444 650 l 1
 154 650 l 1
 154 374 l 1
 405 374 l 1
 405 343 l 1
 154 343 l 1
 154 32 l 1
 455 32 l 1
 455 0 l 1
 119 0 l 1
 119 682 l 1
 449 682 l 1
EndSplineSet
EndChar

StartChar: uni011B
Encoding: 283 283 212
Width: 528
Flags: W
LayerCount: 2
Fore
SplineSet
284 637 m 1
 265 637 l 1
 139 738 l 1
 156 758 l 1
 274 673 l 1
 392 758 l 1
 408 738 l 1
 284 637 l 1
466 283 m 0
 466 268 465 252 464 243 c 1
 104 243 l 1
 111 89 184 21 283 21 c 0
 343 21 381 41 427 76 c 1
 445 52 l 1
 399 13 350 -10 283 -10 c 0
 152 -10 69 88 69 256 c 0
 69 426 149 531 271 531 c 0
 402 531 466 432 466 283 c 0
432 272 m 1
 432 295 l 2
 432 416 383 500 273 500 c 0
 184 500 109 431 104 272 c 1
 432 272 l 1
EndSplineSet
EndChar

StartChar: uni011E
Encoding: 286 286 213
Width: 609
Flags: W
LayerCount: 2
Fore
SplineSet
349 769 m 0
 288 769 243 808 234 854 c 1
 259 859 l 1
 271 825 302 801 349 801 c 0
 396 801 428 825 440 859 c 1
 465 854 l 1
 456 808 411 769 349 769 c 0
350 693 m 0
 423 693 472 672 525 631 c 1
 504 606 l 1
 456 643 411 660 350 660 c 0
 233 660 110 573 110 345 c 0
 110 126 208 22 352 22 c 0
 415 22 460 36 505 61 c 1
 505 328 l 1
 363 328 l 1
 359 360 l 1
 540 360 l 1
 540 42 l 1
 482 8 417 -10 352 -10 c 0
 188 -10 74 109 74 345 c 0
 74 584 213 693 350 693 c 0
EndSplineSet
EndChar

StartChar: uni011F
Encoding: 287 287 214
Width: 496
Flags: W
LayerCount: 2
Fore
SplineSet
245 660 m 0
 184 660 139 699 130 754 c 1
 155 760 l 1
 167 716 198 691 245 691 c 0
 292 691 324 716 336 760 c 1
 361 754 l 1
 352 699 307 660 245 660 c 0
466 555 m 1
 477 519 l 1
 447 511 404 506 339 505 c 1
 389 480 425 436 425 356 c 0
 425 255 357 188 244 188 c 0
 218 188 195 192 175 199 c 1
 145 182 126 159 126 130 c 0
 126 95 150 69 219 69 c 2
 305 69 l 2
 405 69 463 18 463 -56 c 0
 463 -145 396 -200 251 -200 c 0
 102 -200 39 -159 39 -57 c 1
 72 -57 l 1
 74 -139 119 -169 251 -169 c 0
 378 -169 428 -126 428 -58 c 0
 428 2 382 38 302 38 c 2
 216 38 l 2
 134 38 91 76 91 124 c 0
 91 160 114 189 149 210 c 1
 90 240 61 288 61 359 c 0
 61 461 131 531 245 531 c 0
 391 529 422 539 466 555 c 1
245 501 m 0
 144 501 96 442 96 359 c 0
 96 265 159 217 244 217 c 0
 337 217 390 268 390 356 c 0
 390 441 344 501 245 501 c 0
EndSplineSet
EndChar

StartChar: uni0122
Encoding: 290 290 215
Width: 609
Flags: W
LayerCount: 2
Fore
SplineSet
350 693 m 0
 423 693 472 672 525 631 c 1
 504 606 l 1
 456 643 411 660 350 660 c 0
 233 660 110 573 110 345 c 0
 110 126 208 22 352 22 c 0
 415 22 460 36 505 61 c 1
 505 328 l 1
 363 328 l 1
 359 360 l 1
 540 360 l 1
 540 42 l 1
 482 8 417 -10 352 -10 c 0
 188 -10 74 109 74 345 c 0
 74 584 213 693 350 693 c 0
335 -90 m 0
 358 -90 370 -105 370 -123 c 0
 370 -139 365 -149 350 -181 c 2
 311 -267 l 1
 288 -267 l 1
 322 -154 l 1
 309 -148 301 -139 301 -123 c 0
 301 -105 315 -90 335 -90 c 0
EndSplineSet
EndChar

StartChar: uni0123
Encoding: 291 291 216
Width: 496
Flags: W
LayerCount: 2
Fore
SplineSet
241 592 m 0
 218 592 206 607 206 625 c 0
 206 641 211 651 225 683 c 2
 265 769 l 1
 288 769 l 1
 254 656 l 1
 267 651 274 641 274 625 c 0
 274 607 260 592 241 592 c 0
466 555 m 1
 477 519 l 1
 447 511 404 506 339 505 c 1
 389 480 425 436 425 356 c 0
 425 255 357 188 244 188 c 0
 218 188 195 192 175 199 c 1
 145 182 126 159 126 130 c 0
 126 95 150 69 219 69 c 2
 305 69 l 2
 405 69 463 18 463 -56 c 0
 463 -145 396 -200 251 -200 c 0
 102 -200 39 -159 39 -57 c 1
 72 -57 l 1
 74 -139 119 -169 251 -169 c 0
 378 -169 428 -126 428 -58 c 0
 428 2 382 38 302 38 c 2
 216 38 l 2
 134 38 91 76 91 124 c 0
 91 160 114 189 149 210 c 1
 90 240 61 288 61 359 c 0
 61 461 131 531 245 531 c 0
 391 529 422 539 466 555 c 1
245 501 m 0
 144 501 96 442 96 359 c 0
 96 265 159 217 244 217 c 0
 337 217 390 268 390 356 c 0
 390 441 344 501 245 501 c 0
EndSplineSet
EndChar

StartChar: uni012A
Encoding: 298 298 217
Width: 273
Flags: W
LayerCount: 2
Fore
SplineSet
245 808 m 1
 27 808 l 1
 27 840 l 1
 245 840 l 1
 245 808 l 1
154 682 m 1
 154 0 l 1
 119 0 l 1
 119 682 l 1
 154 682 l 1
EndSplineSet
EndChar

StartChar: uni012B
Encoding: 299 299 218
Width: 261
Flags: W
LayerCount: 2
Fore
SplineSet
240 682 m 1
 22 682 l 1
 22 714 l 1
 240 714 l 1
 240 682 l 1
148 520 m 1
 148 0 l 1
 114 0 l 1
 114 520 l 1
 148 520 l 1
EndSplineSet
EndChar

StartChar: uni012E
Encoding: 302 302 219
Width: 273
Flags: W
LayerCount: 2
Fore
SplineSet
100 -175 m 0
 118 -175 135 -173 157 -169 c 1
 153 -202 l 1
 133 -206 118 -208 99 -208 c 0
 28 -208 -3 -170 -3 -123 c 0
 -3 -66 39 -27 119 9 c 1
 119 682 l 1
 154 682 l 1
 154 0 l 1
 76 -37 33 -66 33 -121 c 0
 33 -153 54 -175 100 -175 c 0
EndSplineSet
EndChar

StartChar: uni012F
Encoding: 303 303 220
Width: 261
Flags: W
LayerCount: 2
Fore
SplineSet
130 734 m 0
 149 734 159 721 159 707 c 0
 159 692 149 679 130 679 c 0
 113 679 102 692 102 707 c 0
 102 721 113 734 130 734 c 0
26 -121 m 0
 26 -153 47 -175 93 -175 c 0
 111 -175 128 -173 150 -169 c 1
 146 -202 l 1
 126 -206 111 -208 92 -208 c 0
 21 -208 -10 -170 -10 -123 c 0
 -10 -66 33 -27 114 10 c 1
 114 520 l 1
 148 520 l 1
 148 0 l 1
 147 0 l 1
 69 -37 26 -66 26 -121 c 0
EndSplineSet
EndChar

StartChar: uni0130
Encoding: 304 304 221
Width: 273
Flags: W
LayerCount: 2
Fore
SplineSet
135 860 m 0
 154 860 164 847 164 833 c 0
 164 818 154 805 135 805 c 0
 118 805 107 818 107 833 c 0
 107 847 118 860 135 860 c 0
154 682 m 1
 154 0 l 1
 119 0 l 1
 119 682 l 1
 154 682 l 1
EndSplineSet
EndChar

StartChar: uni0131
Encoding: 305 305 222
Width: 261
Flags: W
LayerCount: 2
Fore
SplineSet
148 520 m 1
 148 0 l 1
 114 0 l 1
 114 520 l 1
 148 520 l 1
EndSplineSet
EndChar

StartChar: uni0136
Encoding: 310 310 223
Width: 518
Flags: W
LayerCount: 2
Fore
SplineSet
154 682 m 1
 154 0 l 1
 119 0 l 1
 119 682 l 1
 154 682 l 1
502 682 m 1
 201 367 l 1
 518 0 l 1
 475 0 l 1
 157 367 l 1
 460 682 l 1
 502 682 l 1
298 -90 m 0
 321 -90 333 -105 333 -123 c 0
 333 -139 328 -149 313 -181 c 2
 274 -267 l 1
 251 -267 l 1
 285 -154 l 1
 272 -148 264 -139 264 -123 c 0
 264 -105 278 -90 298 -90 c 0
EndSplineSet
EndChar

StartChar: uni0137
Encoding: 311 311 224
Width: 472
Flags: W
LayerCount: 2
Fore
SplineSet
148 739 m 1
 148 0 l 1
 114 0 l 1
 114 734 l 1
 148 739 l 1
434 520 m 1
 196 286 l 1
 458 0 l 1
 416 0 l 1
 154 284 l 1
 391 520 l 1
 434 520 l 1
266 -90 m 0
 289 -90 301 -105 301 -123 c 0
 301 -139 296 -149 281 -181 c 2
 242 -267 l 1
 219 -267 l 1
 253 -154 l 1
 240 -148 232 -139 232 -123 c 0
 232 -105 246 -90 266 -90 c 0
EndSplineSet
EndChar

StartChar: uni0139
Encoding: 313 313 225
Width: 462
Flags: W
LayerCount: 2
Fore
SplineSet
217 872 m 1
 234 837 l 1
 48 761 l 1
 38 783 l 1
 217 872 l 1
154 682 m 1
 154 33 l 1
 442 33 l 1
 436 0 l 1
 119 0 l 1
 119 682 l 1
 154 682 l 1
EndSplineSet
EndChar

StartChar: uni013A
Encoding: 314 314 226
Width: 287
Flags: W
LayerCount: 2
Fore
SplineSet
206 924 m 1
 223 889 l 1
 37 813 l 1
 27 835 l 1
 206 924 l 1
189 -10 m 0
 142 -10 108 16 108 77 c 2
 108 734 l 1
 142 739 l 1
 142 78 l 2
 142 40 159 21 190 21 c 0
 204 21 217 24 229 29 c 1
 239 1 l 1
 226 -5 207 -10 189 -10 c 0
EndSplineSet
EndChar

StartChar: uni013B
Encoding: 315 315 227
Width: 462
Flags: W
LayerCount: 2
Fore
SplineSet
154 682 m 1
 154 33 l 1
 442 33 l 1
 436 0 l 1
 119 0 l 1
 119 682 l 1
 154 682 l 1
278 -90 m 0
 301 -90 313 -105 313 -123 c 0
 313 -139 308 -149 293 -181 c 2
 254 -267 l 1
 231 -267 l 1
 265 -154 l 1
 252 -148 244 -139 244 -123 c 0
 244 -105 258 -90 278 -90 c 0
EndSplineSet
EndChar

StartChar: uni013C
Encoding: 316 316 228
Width: 287
Flags: W
LayerCount: 2
Fore
SplineSet
189 -10 m 0
 142 -10 108 16 108 77 c 2
 108 734 l 1
 142 739 l 1
 142 78 l 2
 142 40 159 21 190 21 c 0
 204 21 217 24 229 29 c 1
 239 1 l 1
 226 -5 207 -10 189 -10 c 0
178 -90 m 0
 201 -90 213 -105 213 -123 c 0
 213 -139 208 -149 193 -181 c 2
 154 -267 l 1
 131 -267 l 1
 165 -154 l 1
 152 -148 144 -139 144 -123 c 0
 144 -105 158 -90 178 -90 c 0
EndSplineSet
EndChar

StartChar: uni013D
Encoding: 317 317 229
Width: 462
Flags: W
LayerCount: 2
Fore
SplineSet
247 532 m 1
 278 682 l 1
 242 686 l 1
 224 535 l 1
 247 532 l 1
154 682 m 1
 154 33 l 1
 442 33 l 1
 436 0 l 1
 119 0 l 1
 119 682 l 1
 154 682 l 1
EndSplineSet
EndChar

StartChar: uni013E
Encoding: 318 318 230
Width: 287
Flags: W
LayerCount: 2
Fore
SplineSet
189 -10 m 0
 142 -10 108 16 108 77 c 2
 108 734 l 1
 142 739 l 1
 142 78 l 2
 142 40 159 21 190 21 c 0
 204 21 217 24 229 29 c 1
 239 1 l 1
 226 -5 207 -10 189 -10 c 0
235 584 m 1
 266 734 l 1
 230 738 l 1
 212 587 l 1
 235 584 l 1
EndSplineSet
EndChar

StartChar: uni0141
Encoding: 321 321 231
Width: 469
Flags: W
LayerCount: 2
Fore
SplineSet
160 33 m 1
 449 33 l 1
 443 0 l 1
 125 0 l 1
 125 299 l 1
 55 255 l 1
 41 279 l 1
 125 332 l 1
 125 682 l 1
 160 682 l 1
 160 354 l 1
 356 476 l 1
 371 452 l 1
 160 320 l 1
 160 33 l 1
EndSplineSet
EndChar

StartChar: uni0142
Encoding: 322 322 232
Width: 290
Flags: W
LayerCount: 2
Fore
SplineSet
197 21 m 0
 211 21 224 24 236 29 c 1
 246 1 l 1
 233 -5 214 -10 195 -10 c 0
 149 -10 115 16 115 77 c 2
 115 337 l 1
 53 299 l 1
 39 322 l 1
 115 370 l 1
 115 734 l 1
 149 739 l 1
 149 391 l 1
 253 455 l 1
 267 430 l 1
 149 358 l 1
 149 78 l 2
 149 40 166 21 197 21 c 0
EndSplineSet
EndChar

StartChar: uni0143
Encoding: 323 323 233
Width: 665
Flags: W
LayerCount: 2
Fore
SplineSet
420 872 m 1
 437 837 l 1
 251 761 l 1
 241 783 l 1
 420 872 l 1
547 682 m 1
 547 0 l 1
 503 0 l 1
 148 643 l 1
 151 603 153 550 153 430 c 2
 153 0 l 1
 119 0 l 1
 119 682 l 1
 163 682 l 1
 517 39 l 1
 515 78 513 146 513 237 c 2
 513 682 l 1
 547 682 l 1
EndSplineSet
EndChar

StartChar: uni0144
Encoding: 324 324 234
Width: 582
Flags: W
LayerCount: 2
Fore
SplineSet
385 734 m 1
 201 650 l 1
 189 673 l 1
 369 769 l 1
 385 734 l 1
333 531 m 0
 427 531 473 472 473 371 c 2
 473 0 l 1
 439 0 l 1
 439 366 l 2
 439 458 403 501 330 501 c 0
 250 501 196 452 148 382 c 1
 148 0 l 1
 114 0 l 1
 114 520 l 1
 143 520 l 1
 147 423 l 1
 192 487 252 531 333 531 c 0
EndSplineSet
EndChar

StartChar: uni0145
Encoding: 325 325 235
Width: 665
Flags: W
LayerCount: 2
Fore
SplineSet
547 682 m 1
 547 0 l 1
 503 0 l 1
 148 643 l 1
 151 603 153 550 153 430 c 2
 153 0 l 1
 119 0 l 1
 119 682 l 1
 163 682 l 1
 517 39 l 1
 515 78 513 146 513 237 c 2
 513 682 l 1
 547 682 l 1
330 -90 m 0
 353 -90 365 -105 365 -123 c 0
 365 -139 360 -149 345 -181 c 2
 306 -267 l 1
 283 -267 l 1
 317 -154 l 1
 304 -148 296 -139 296 -123 c 0
 296 -105 310 -90 330 -90 c 0
EndSplineSet
EndChar

StartChar: uni0146
Encoding: 326 326 236
Width: 582
Flags: W
LayerCount: 2
Fore
SplineSet
333 531 m 0
 427 531 473 472 473 371 c 2
 473 0 l 1
 439 0 l 1
 439 366 l 2
 439 458 403 501 330 501 c 0
 250 501 196 452 148 382 c 1
 148 0 l 1
 114 0 l 1
 114 520 l 1
 143 520 l 1
 147 423 l 1
 192 487 252 531 333 531 c 0
288 -90 m 0
 311 -90 323 -105 323 -123 c 0
 323 -139 318 -149 303 -181 c 2
 264 -267 l 1
 241 -267 l 1
 275 -154 l 1
 262 -148 254 -139 254 -123 c 0
 254 -105 268 -90 288 -90 c 0
EndSplineSet
EndChar

StartChar: uni0147
Encoding: 327 327 237
Width: 665
Flags: W
LayerCount: 2
Fore
SplineSet
458 873 m 1
 474 853 l 1
 350 758 l 1
 331 758 l 1
 205 853 l 1
 222 873 l 1
 340 793 l 1
 458 873 l 1
547 682 m 1
 547 0 l 1
 503 0 l 1
 148 643 l 1
 151 603 153 550 153 430 c 2
 153 0 l 1
 119 0 l 1
 119 682 l 1
 163 682 l 1
 517 39 l 1
 515 78 513 146 513 237 c 2
 513 682 l 1
 547 682 l 1
EndSplineSet
EndChar

StartChar: uni0148
Encoding: 328 328 238
Width: 582
Flags: W
LayerCount: 2
Fore
SplineSet
307 637 m 1
 288 637 l 1
 162 738 l 1
 179 758 l 1
 297 673 l 1
 415 758 l 1
 431 738 l 1
 307 637 l 1
333 531 m 0
 427 531 473 472 473 371 c 2
 473 0 l 1
 439 0 l 1
 439 366 l 2
 439 458 403 501 330 501 c 0
 250 501 196 452 148 382 c 1
 148 0 l 1
 114 0 l 1
 114 520 l 1
 143 520 l 1
 147 423 l 1
 192 487 252 531 333 531 c 0
EndSplineSet
EndChar

StartChar: uni014C
Encoding: 332 332 239
Width: 690
Flags: W
LayerCount: 2
Fore
SplineSet
454 808 m 1
 236 808 l 1
 236 840 l 1
 454 840 l 1
 454 808 l 1
345 693 m 0
 507 693 616 571 616 340 c 0
 616 118 512 -10 345 -10 c 0
 184 -10 74 114 74 339 c 0
 74 565 185 693 345 693 c 0
345 660 m 0
 206 660 110 553 110 339 c 0
 110 130 207 22 345 22 c 0
 491 22 580 130 580 340 c 0
 580 555 486 660 345 660 c 0
EndSplineSet
EndChar

StartChar: uni014D
Encoding: 333 333 240
Width: 562
Flags: W
LayerCount: 2
Fore
SplineSet
391 682 m 1
 173 682 l 1
 173 714 l 1
 391 714 l 1
 391 682 l 1
282 531 m 0
 412 531 493 436 493 262 c 0
 493 90 410 -10 281 -10 c 0
 149 -10 69 91 69 259 c 0
 69 431 153 531 282 531 c 0
282 500 m 0
 174 500 105 418 105 259 c 0
 105 106 171 21 281 21 c 0
 389 21 458 104 458 262 c 0
 458 417 392 500 282 500 c 0
EndSplineSet
EndChar

StartChar: uni0150
Encoding: 336 336 241
Width: 690
Flags: W
LayerCount: 2
Fore
SplineSet
370 895 m 1
 400 875 l 1
 289 730 l 1
 269 743 l 1
 370 895 l 1
491 886 m 1
 520 864 l 1
 401 725 l 1
 382 739 l 1
 491 886 l 1
345 693 m 0
 507 693 616 571 616 340 c 0
 616 118 512 -10 345 -10 c 0
 184 -10 74 114 74 339 c 0
 74 565 185 693 345 693 c 0
345 660 m 0
 206 660 110 553 110 339 c 0
 110 130 207 22 345 22 c 0
 491 22 580 130 580 340 c 0
 580 555 486 660 345 660 c 0
EndSplineSet
EndChar

StartChar: uni0151
Encoding: 337 337 242
Width: 562
Flags: W
LayerCount: 2
Fore
SplineSet
307 773 m 1
 337 753 l 1
 226 598 l 1
 206 611 l 1
 307 773 l 1
428 764 m 1
 457 742 l 1
 338 593 l 1
 319 607 l 1
 428 764 l 1
282 531 m 0
 412 531 493 436 493 262 c 0
 493 90 410 -10 281 -10 c 0
 149 -10 69 91 69 259 c 0
 69 431 153 531 282 531 c 0
282 500 m 0
 174 500 105 418 105 259 c 0
 105 106 171 21 281 21 c 0
 389 21 458 104 458 262 c 0
 458 417 392 500 282 500 c 0
EndSplineSet
EndChar

StartChar: uni0152
Encoding: 338 338 243
Width: 851
Flags: W
LayerCount: 2
Fore
SplineSet
810 32 m 1
 810 0 l 1
 402 0 l 1
 381 -7 358 -10 335 -10 c 0
 184 -10 74 114 74 339 c 0
 74 565 185 693 335 693 c 0
 360 693 385 689 407 682 c 1
 804 682 l 1
 800 650 l 1
 469 650 l 1
 545 600 590 507 596 374 c 1
 760 374 l 1
 760 343 l 1
 596 343 l 1
 595 187 547 82 466 32 c 1
 810 32 l 1
110 339 m 0
 110 130 207 22 335 22 c 0
 471 22 560 130 560 349 c 0
 560 555 466 660 335 660 c 0
 206 660 110 553 110 339 c 0
EndSplineSet
EndChar

StartChar: uni0153
Encoding: 339 339 244
Width: 917
Flags: W
LayerCount: 2
Fore
SplineSet
855 283 m 0
 855 268 854 252 853 243 c 1
 493 243 l 1
 500 89 573 21 672 21 c 0
 732 21 770 41 815 76 c 1
 834 52 l 1
 787 13 739 -10 671 -10 c 0
 574 -10 505 48 475 142 c 1
 444 48 376 -10 281 -10 c 0
 149 -10 69 91 69 259 c 0
 69 431 153 531 282 531 c 0
 379 531 447 474 476 379 c 1
 506 472 571 531 660 531 c 0
 791 531 855 432 855 283 c 0
281 21 m 0
 389 21 458 104 458 262 c 0
 458 417 392 500 282 500 c 0
 174 500 105 418 105 259 c 0
 105 106 171 21 281 21 c 0
821 272 m 1
 821 295 l 2
 821 416 771 500 662 500 c 0
 573 500 498 431 493 272 c 1
 821 272 l 1
EndSplineSet
EndChar

StartChar: uni0154
Encoding: 340 340 245
Width: 579
Flags: W
LayerCount: 2
Fore
SplineSet
383 837 m 1
 197 761 l 1
 187 783 l 1
 366 872 l 1
 383 837 l 1
498 0 m 1
 313 318 l 1
 154 318 l 1
 154 0 l 1
 119 0 l 1
 119 682 l 1
 274 682 l 2
 434 682 505 618 505 502 c 0
 505 396 444 345 350 324 c 1
 540 0 l 1
 498 0 l 1
154 350 m 1
 281 350 l 2
 399 350 468 397 468 502 c 0
 468 598 415 651 271 651 c 2
 154 651 l 1
 154 350 l 1
EndSplineSet
EndChar

StartChar: uni0155
Encoding: 341 341 246
Width: 364
Flags: W
LayerCount: 2
Fore
SplineSet
318 734 m 1
 134 650 l 1
 122 673 l 1
 302 769 l 1
 318 734 l 1
298 531 m 0
 321 531 338 528 350 525 c 1
 343 494 l 1
 330 498 314 500 297 500 c 0
 220 500 179 444 148 332 c 1
 148 0 l 1
 114 0 l 1
 114 520 l 1
 143 520 l 1
 145 397 l 1
 173 487 220 531 298 531 c 0
EndSplineSet
EndChar

StartChar: uni0156
Encoding: 342 342 247
Width: 579
Flags: W
LayerCount: 2
Fore
SplineSet
350 324 m 1
 540 0 l 1
 498 0 l 1
 313 318 l 1
 154 318 l 1
 154 0 l 1
 119 0 l 1
 119 682 l 1
 274 682 l 2
 434 682 505 618 505 502 c 0
 505 396 444 345 350 324 c 1
154 350 m 1
 281 350 l 2
 399 350 468 397 468 502 c 0
 468 598 415 651 271 651 c 2
 154 651 l 1
 154 350 l 1
303 -90 m 0
 326 -90 338 -105 338 -123 c 0
 338 -139 333 -149 318 -181 c 2
 279 -267 l 1
 256 -267 l 1
 290 -154 l 1
 277 -148 269 -139 269 -123 c 0
 269 -105 283 -90 303 -90 c 0
EndSplineSet
EndChar

StartChar: uni0157
Encoding: 343 343 248
Width: 364
Flags: W
LayerCount: 2
Fore
SplineSet
298 531 m 0
 321 531 338 528 350 525 c 1
 343 494 l 1
 330 498 314 500 297 500 c 0
 220 500 179 444 148 332 c 1
 148 0 l 1
 114 0 l 1
 114 520 l 1
 143 520 l 1
 145 397 l 1
 173 487 220 531 298 531 c 0
129 -90 m 0
 152 -90 164 -105 164 -123 c 0
 164 -139 159 -149 144 -181 c 2
 105 -267 l 1
 82 -267 l 1
 116 -154 l 1
 103 -148 95 -139 95 -123 c 0
 95 -105 109 -90 129 -90 c 0
EndSplineSet
EndChar

StartChar: uni0158
Encoding: 344 344 249
Width: 579
Flags: W
LayerCount: 2
Fore
SplineSet
296 758 m 1
 277 758 l 1
 151 853 l 1
 168 873 l 1
 286 793 l 1
 404 873 l 1
 420 853 l 1
 296 758 l 1
498 0 m 1
 313 318 l 1
 154 318 l 1
 154 0 l 1
 119 0 l 1
 119 682 l 1
 274 682 l 2
 434 682 505 618 505 502 c 0
 505 396 444 345 350 324 c 1
 540 0 l 1
 498 0 l 1
154 350 m 1
 281 350 l 2
 399 350 468 397 468 502 c 0
 468 598 415 651 271 651 c 2
 154 651 l 1
 154 350 l 1
EndSplineSet
EndChar

StartChar: uni0159
Encoding: 345 345 250
Width: 364
Flags: W
LayerCount: 2
Fore
SplineSet
239 637 m 1
 220 637 l 1
 94 738 l 1
 111 758 l 1
 229 673 l 1
 347 758 l 1
 363 738 l 1
 239 637 l 1
145 397 m 1
 173 487 220 531 298 531 c 0
 321 531 338 528 350 525 c 1
 343 494 l 1
 330 498 314 500 297 500 c 0
 220 500 179 444 148 332 c 1
 148 0 l 1
 114 0 l 1
 114 520 l 1
 143 520 l 1
 145 397 l 1
EndSplineSet
EndChar

StartChar: uni015A
Encoding: 346 346 251
Width: 535
Flags: W
LayerCount: 2
Fore
SplineSet
349 872 m 1
 366 837 l 1
 180 761 l 1
 170 783 l 1
 349 872 l 1
265 693 m 0
 350 693 400 665 450 620 c 1
 428 596 l 1
 378 641 333 660 266 660 c 0
 171 660 111 608 111 532 c 0
 111 453 155 419 277 382 c 0
 410 342 471 297 471 184 c 0
 471 68 383 -10 257 -10 c 0
 167 -10 104 23 48 73 c 1
 70 97 l 1
 120 52 173 22 256 22 c 0
 363 22 436 84 436 182 c 0
 436 277 390 313 264 352 c 0
 126 395 75 440 75 532 c 0
 75 623 150 693 265 693 c 0
EndSplineSet
EndChar

StartChar: uni015B
Encoding: 347 347 252
Width: 452
Flags: W
LayerCount: 2
Fore
SplineSet
303 769 m 1
 319 734 l 1
 135 650 l 1
 123 673 l 1
 303 769 l 1
227 531 m 0
 289 531 336 512 385 473 c 1
 366 450 l 1
 321 484 283 500 228 500 c 0
 152 500 98 461 98 399 c 0
 98 341 136 316 235 290 c 0
 352 258 398 223 398 136 c 0
 398 48 325 -10 223 -10 c 0
 141 -10 89 19 44 56 c 1
 64 78 l 1
 110 42 153 21 223 21 c 0
 303 21 363 61 363 135 c 0
 363 206 331 232 218 263 c 0
 108 292 63 327 63 400 c 0
 63 477 135 531 227 531 c 0
EndSplineSet
EndChar

StartChar: uni015E
Encoding: 350 350 253
Width: 535
Flags: W
LayerCount: 2
Fore
SplineSet
471 184 m 0
 471 71 388 -5 268 -10 c 1
 268 -70 l 1
 331 -74 359 -99 359 -140 c 0
 359 -189 317 -218 267 -218 c 0
 235 -218 212 -209 195 -198 c 1
 209 -173 l 1
 222 -182 241 -188 267 -188 c 0
 299 -188 326 -173 326 -140 c 0
 326 -108 299 -94 237 -93 c 1
 242 -10 l 1
 160 -6 101 26 48 73 c 1
 70 97 l 1
 120 52 173 22 256 22 c 0
 363 22 436 84 436 182 c 0
 436 277 390 313 264 352 c 0
 126 395 75 440 75 532 c 0
 75 623 150 693 265 693 c 0
 350 693 400 665 450 620 c 1
 428 596 l 1
 378 641 333 660 266 660 c 0
 171 660 111 608 111 532 c 0
 111 453 155 419 277 382 c 0
 410 342 471 297 471 184 c 0
EndSplineSet
EndChar

StartChar: uni015F
Encoding: 351 351 254
Width: 452
Flags: W
LayerCount: 2
Fore
SplineSet
398 136 m 0
 398 51 330 -6 234 -10 c 1
 234 -70 l 1
 297 -74 325 -99 325 -140 c 0
 325 -189 283 -218 233 -218 c 0
 201 -218 178 -209 161 -198 c 1
 175 -173 l 1
 188 -182 207 -188 233 -188 c 0
 265 -188 292 -173 292 -140 c 0
 292 -108 265 -94 203 -93 c 1
 208 -10 l 1
 135 -6 86 21 44 56 c 1
 64 78 l 1
 110 42 153 21 223 21 c 0
 303 21 363 61 363 135 c 0
 363 206 331 232 218 263 c 0
 108 292 63 327 63 400 c 0
 63 477 135 531 227 531 c 0
 289 531 336 512 385 473 c 1
 366 450 l 1
 321 484 283 500 228 500 c 0
 152 500 98 461 98 399 c 0
 98 341 136 316 235 290 c 0
 352 258 398 223 398 136 c 0
EndSplineSet
EndChar

StartChar: uni0160
Encoding: 352 352 255
Width: 535
Flags: W
LayerCount: 2
Fore
SplineSet
386 873 m 1
 402 853 l 1
 278 758 l 1
 259 758 l 1
 133 853 l 1
 150 873 l 1
 268 793 l 1
 386 873 l 1
265 693 m 0
 350 693 400 665 450 620 c 1
 428 596 l 1
 378 641 333 660 266 660 c 0
 171 660 111 608 111 532 c 0
 111 453 155 419 277 382 c 0
 410 342 471 297 471 184 c 0
 471 68 383 -10 257 -10 c 0
 167 -10 104 23 48 73 c 1
 70 97 l 1
 120 52 173 22 256 22 c 0
 363 22 436 84 436 182 c 0
 436 277 390 313 264 352 c 0
 126 395 75 440 75 532 c 0
 75 623 150 693 265 693 c 0
EndSplineSet
EndChar

StartChar: uni0161
Encoding: 353 353 256
Width: 452
Flags: W
LayerCount: 2
Fore
SplineSet
349 758 m 1
 365 738 l 1
 241 637 l 1
 222 637 l 1
 96 738 l 1
 113 758 l 1
 231 673 l 1
 349 758 l 1
227 531 m 0
 289 531 336 512 385 473 c 1
 366 450 l 1
 321 484 283 500 228 500 c 0
 152 500 98 461 98 399 c 0
 98 341 136 316 235 290 c 0
 352 258 398 223 398 136 c 0
 398 48 325 -10 223 -10 c 0
 141 -10 89 19 44 56 c 1
 64 78 l 1
 110 42 153 21 223 21 c 0
 303 21 363 61 363 135 c 0
 363 206 331 232 218 263 c 0
 108 292 63 327 63 400 c 0
 63 477 135 531 227 531 c 0
EndSplineSet
EndChar

StartChar: uni0162
Encoding: 354 354 257
Width: 480
Flags: W
LayerCount: 2
Fore
SplineSet
257 -70 m 1
 320 -74 348 -99 348 -140 c 0
 348 -189 305 -218 256 -218 c 0
 224 -218 201 -209 184 -198 c 1
 198 -173 l 1
 211 -182 230 -188 256 -188 c 0
 288 -188 315 -173 315 -140 c 0
 315 -108 288 -94 226 -93 c 1
 232 0 l 1
 222 0 l 1
 222 649 l 1
 15 649 l 1
 15 682 l 1
 470 682 l 1
 464 649 l 1
 257 649 l 1
 257 -70 l 1
EndSplineSet
EndChar

StartChar: uni0163
Encoding: 355 355 258
Width: 332
Flags: W
LayerCount: 2
Fore
SplineSet
231 -70 m 1
 294 -74 322 -99 322 -140 c 0
 322 -189 280 -218 230 -218 c 0
 198 -218 175 -209 158 -198 c 1
 172 -173 l 1
 185 -182 204 -188 230 -188 c 0
 262 -188 289 -173 289 -140 c 0
 289 -108 262 -94 200 -93 c 1
 205 -9 l 1
 146 -1 109 42 109 119 c 2
 109 491 l 1
 24 491 l 1
 24 520 l 1
 109 520 l 1
 109 650 l 1
 143 653 l 1
 143 520 l 1
 285 520 l 1
 280 491 l 1
 143 491 l 1
 143 121 l 2
 143 55 172 21 230 21 c 0
 263 21 291 31 317 46 c 1
 332 20 l 1
 304 3 270 -9 231 -10 c 1
 231 -70 l 1
EndSplineSet
EndChar

StartChar: uni0164
Encoding: 356 356 259
Width: 480
Flags: W
LayerCount: 2
Fore
SplineSet
358 873 m 1
 374 853 l 1
 250 758 l 1
 231 758 l 1
 105 853 l 1
 122 873 l 1
 240 793 l 1
 358 873 l 1
470 682 m 1
 464 649 l 1
 257 649 l 1
 257 0 l 1
 222 0 l 1
 222 649 l 1
 15 649 l 1
 15 682 l 1
 470 682 l 1
EndSplineSet
EndChar

StartChar: uni0165
Encoding: 357 357 260
Width: 332
Flags: W
LayerCount: 2
Fore
SplineSet
253 735 m 1
 222 585 l 1
 199 588 l 1
 217 739 l 1
 253 735 l 1
317 46 m 1
 332 20 l 1
 303 2 268 -10 227 -10 c 0
 155 -10 109 33 109 119 c 2
 109 491 l 1
 24 491 l 1
 24 520 l 1
 109 520 l 1
 109 650 l 1
 143 653 l 1
 143 520 l 1
 285 520 l 1
 280 491 l 1
 143 491 l 1
 143 121 l 2
 143 55 172 21 230 21 c 0
 263 21 291 31 317 46 c 1
EndSplineSet
EndChar

StartChar: uni016A
Encoding: 362 362 261
Width: 644
Flags: W
LayerCount: 2
Fore
SplineSet
432 808 m 1
 214 808 l 1
 214 840 l 1
 432 840 l 1
 432 808 l 1
536 682 m 1
 536 209 l 2
 536 81 470 -10 323 -10 c 0
 174 -10 109 81 109 209 c 2
 109 682 l 1
 144 682 l 1
 144 212 l 2
 144 99 196 22 323 22 c 0
 450 22 500 101 500 212 c 2
 500 682 l 1
 536 682 l 1
EndSplineSet
EndChar

StartChar: uni016B
Encoding: 363 363 262
Width: 577
Flags: W
LayerCount: 2
Fore
SplineSet
395 682 m 1
 177 682 l 1
 177 714 l 1
 395 714 l 1
 395 682 l 1
463 520 m 1
 463 0 l 1
 434 0 l 1
 433 101 l 1
 399 40 342 -10 256 -10 c 0
 163 -10 108 46 108 149 c 2
 108 520 l 1
 142 520 l 1
 142 152 l 2
 142 61 185 21 262 21 c 0
 338 21 390 70 429 139 c 1
 429 520 l 1
 463 520 l 1
EndSplineSet
EndChar

StartChar: uni016E
Encoding: 366 366 263
Width: 644
Flags: W
LayerCount: 2
Fore
SplineSet
323 936 m 0
 375 936 411 902 411 850 c 0
 411 799 375 765 323 765 c 0
 271 765 235 799 235 850 c 0
 235 902 271 936 323 936 c 0
323 910 m 0
 286 910 266 888 266 850 c 0
 266 813 286 791 323 791 c 0
 359 791 380 813 380 850 c 0
 380 888 360 910 323 910 c 0
536 682 m 1
 536 209 l 2
 536 81 470 -10 323 -10 c 0
 174 -10 109 81 109 209 c 2
 109 682 l 1
 144 682 l 1
 144 212 l 2
 144 99 196 22 323 22 c 0
 450 22 500 101 500 212 c 2
 500 682 l 1
 536 682 l 1
EndSplineSet
EndChar

StartChar: uni016F
Encoding: 367 367 264
Width: 577
Flags: W
LayerCount: 2
Fore
SplineSet
286 810 m 0
 338 810 374 776 374 724 c 0
 374 673 338 639 286 639 c 0
 234 639 198 673 198 724 c 0
 198 776 234 810 286 810 c 0
286 784 m 0
 249 784 229 762 229 724 c 0
 229 687 249 665 286 665 c 0
 322 665 343 687 343 724 c 0
 343 762 323 784 286 784 c 0
463 520 m 1
 463 0 l 1
 434 0 l 1
 433 101 l 1
 399 40 342 -10 256 -10 c 0
 163 -10 108 46 108 149 c 2
 108 520 l 1
 142 520 l 1
 142 152 l 2
 142 61 185 21 262 21 c 0
 338 21 390 70 429 139 c 1
 429 520 l 1
 463 520 l 1
EndSplineSet
EndChar

StartChar: uni0170
Encoding: 368 368 265
Width: 644
Flags: W
LayerCount: 2
Fore
SplineSet
347 895 m 1
 377 875 l 1
 266 730 l 1
 246 743 l 1
 347 895 l 1
468 886 m 1
 497 864 l 1
 378 725 l 1
 359 739 l 1
 468 886 l 1
536 682 m 1
 536 209 l 2
 536 81 470 -10 323 -10 c 0
 174 -10 109 81 109 209 c 2
 109 682 l 1
 144 682 l 1
 144 212 l 2
 144 99 196 22 323 22 c 0
 450 22 500 101 500 212 c 2
 500 682 l 1
 536 682 l 1
EndSplineSet
EndChar

StartChar: uni0171
Encoding: 369 369 266
Width: 577
Flags: W
LayerCount: 2
Fore
SplineSet
312 773 m 1
 342 753 l 1
 231 598 l 1
 211 611 l 1
 312 773 l 1
433 764 m 1
 462 742 l 1
 343 593 l 1
 324 607 l 1
 433 764 l 1
463 520 m 1
 463 0 l 1
 434 0 l 1
 433 101 l 1
 399 40 342 -10 256 -10 c 0
 163 -10 108 46 108 149 c 2
 108 520 l 1
 142 520 l 1
 142 152 l 2
 142 61 185 21 262 21 c 0
 338 21 390 70 429 139 c 1
 429 520 l 1
 463 520 l 1
EndSplineSet
EndChar

StartChar: uni0172
Encoding: 370 370 267
Width: 644
Flags: W
LayerCount: 2
Fore
SplineSet
500 682 m 1
 536 682 l 1
 536 209 l 2
 536 104 492 24 395 -1 c 1
 318 -38 277 -67 277 -121 c 0
 277 -153 300 -175 347 -175 c 0
 365 -175 379 -173 400 -169 c 1
 397 -202 l 1
 377 -206 362 -208 342 -208 c 0
 272 -208 241 -170 241 -123 c 0
 241 -75 272 -40 333 -10 c 1
 323 -10 l 2
 174 -10 109 81 109 209 c 2
 109 682 l 1
 144 682 l 1
 144 212 l 2
 144 99 196 22 323 22 c 0
 450 22 500 101 500 212 c 2
 500 682 l 1
EndSplineSet
EndChar

StartChar: uni0173
Encoding: 371 371 268
Width: 577
Flags: W
LayerCount: 2
Fore
SplineSet
409 -175 m 0
 427 -175 444 -173 466 -169 c 1
 462 -202 l 1
 442 -206 427 -208 408 -208 c 0
 337 -208 306 -170 306 -123 c 0
 306 -65 351 -25 434 11 c 1
 433 101 l 1
 399 40 342 -10 256 -10 c 0
 163 -10 108 46 108 149 c 2
 108 520 l 1
 142 520 l 1
 142 152 l 2
 142 61 185 21 262 21 c 0
 338 21 390 70 429 139 c 1
 429 520 l 1
 463 520 l 1
 463 0 l 1
 385 -37 342 -66 342 -121 c 0
 342 -153 363 -175 409 -175 c 0
EndSplineSet
EndChar

StartChar: uni0178
Encoding: 376 376 269
Width: 503
Flags: W
LayerCount: 2
Fore
SplineSet
163 849 m 0
 180 849 191 837 191 822 c 0
 191 807 180 795 163 795 c 0
 147 795 136 807 136 822 c 0
 136 837 147 849 163 849 c 0
338 849 m 0
 355 849 366 837 366 822 c 0
 366 807 355 795 338 795 c 0
 321 795 310 807 310 822 c 0
 310 837 321 849 338 849 c 0
484 682 m 1
 271 271 l 1
 271 0 l 1
 235 0 l 1
 235 270 l 1
 19 682 l 1
 59 682 l 1
 254 302 l 1
 445 682 l 1
 484 682 l 1
EndSplineSet
EndChar

StartChar: uni0179
Encoding: 377 377 270
Width: 512
Flags: W
LayerCount: 2
Fore
SplineSet
338 872 m 1
 355 837 l 1
 169 761 l 1
 159 783 l 1
 338 872 l 1
462 682 m 1
 462 652 l 1
 81 33 l 1
 451 33 l 1
 446 0 l 1
 39 0 l 1
 39 31 l 1
 422 650 l 1
 77 650 l 1
 77 682 l 1
 462 682 l 1
EndSplineSet
EndChar

StartChar: uni017A
Encoding: 378 378 271
Width: 407
Flags: W
LayerCount: 2
Fore
SplineSet
286 769 m 1
 302 734 l 1
 118 650 l 1
 106 673 l 1
 286 769 l 1
377 520 m 1
 377 493 l 1
 72 31 l 1
 371 31 l 1
 368 0 l 1
 30 0 l 1
 30 28 l 1
 335 489 l 1
 55 489 l 1
 55 520 l 1
 377 520 l 1
EndSplineSet
EndChar

StartChar: uni017B
Encoding: 379 379 272
Width: 512
Flags: W
LayerCount: 2
Fore
SplineSet
257 860 m 0
 276 860 286 847 286 833 c 0
 286 818 276 805 257 805 c 0
 240 805 229 818 229 833 c 0
 229 847 240 860 257 860 c 0
462 682 m 1
 462 652 l 1
 81 33 l 1
 451 33 l 1
 446 0 l 1
 39 0 l 1
 39 31 l 1
 422 650 l 1
 77 650 l 1
 77 682 l 1
 462 682 l 1
EndSplineSet
EndChar

StartChar: uni017C
Encoding: 380 380 273
Width: 407
Flags: W
LayerCount: 2
Fore
SplineSet
214 734 m 0
 233 734 243 721 243 707 c 0
 243 692 233 679 214 679 c 0
 197 679 186 692 186 707 c 0
 186 721 197 734 214 734 c 0
377 520 m 1
 377 493 l 1
 72 31 l 1
 371 31 l 1
 368 0 l 1
 30 0 l 1
 30 28 l 1
 335 489 l 1
 55 489 l 1
 55 520 l 1
 377 520 l 1
EndSplineSet
EndChar

StartChar: uni017D
Encoding: 381 381 274
Width: 512
Flags: W
LayerCount: 2
Fore
SplineSet
375 873 m 1
 391 853 l 1
 267 758 l 1
 248 758 l 1
 122 853 l 1
 139 873 l 1
 257 793 l 1
 375 873 l 1
462 682 m 1
 462 652 l 1
 81 33 l 1
 451 33 l 1
 446 0 l 1
 39 0 l 1
 39 31 l 1
 422 650 l 1
 77 650 l 1
 77 682 l 1
 462 682 l 1
EndSplineSet
EndChar

StartChar: uni017E
Encoding: 382 382 275
Width: 407
Flags: W
LayerCount: 2
Fore
SplineSet
332 758 m 1
 348 738 l 1
 224 637 l 1
 205 637 l 1
 79 738 l 1
 96 758 l 1
 214 673 l 1
 332 758 l 1
377 520 m 1
 377 493 l 1
 72 31 l 1
 371 31 l 1
 368 0 l 1
 30 0 l 1
 30 28 l 1
 335 489 l 1
 55 489 l 1
 55 520 l 1
 377 520 l 1
EndSplineSet
EndChar

StartChar: uni0192
Encoding: 402 402 276
Width: 311
Flags: W
LayerCount: 2
Fore
SplineSet
250 708 m 0
 189 708 151 681 151 612 c 2
 151 520 l 1
 295 520 l 1
 290 491 l 1
 151 491 l 1
 151 10 l 2
 151 -124 111 -156 29 -197 c 1
 19 -172 l 1
 88 -136 117 -107 117 10 c 2
 117 491 l 1
 29 491 l 1
 29 520 l 1
 117 520 l 1
 117 616 l 2
 117 694 169 739 248 739 c 0
 289 739 331 728 366 710 c 1
 353 683 l 1
 319 699 286 708 250 708 c 0
EndSplineSet
EndChar

StartChar: uni0218
Encoding: 536 536 277
Width: 535
Flags: W
LayerCount: 2
Fore
SplineSet
265 693 m 0
 350 693 400 665 450 620 c 1
 428 596 l 1
 378 641 333 660 266 660 c 0
 171 660 111 608 111 532 c 0
 111 453 155 419 277 382 c 0
 410 342 471 297 471 184 c 0
 471 68 383 -10 257 -10 c 0
 167 -10 104 23 48 73 c 1
 70 97 l 1
 120 52 173 22 256 22 c 0
 363 22 436 84 436 182 c 0
 436 277 390 313 264 352 c 0
 126 395 75 440 75 532 c 0
 75 623 150 693 265 693 c 0
260 -90 m 0
 283 -90 295 -105 295 -123 c 0
 295 -139 290 -149 275 -181 c 2
 236 -267 l 1
 213 -267 l 1
 247 -154 l 1
 234 -148 226 -139 226 -123 c 0
 226 -105 240 -90 260 -90 c 0
EndSplineSet
EndChar

StartChar: uni0219
Encoding: 537 537 278
Width: 452
Flags: W
LayerCount: 2
Fore
SplineSet
227 531 m 0
 289 531 336 512 385 473 c 1
 366 450 l 1
 321 484 283 500 228 500 c 0
 152 500 98 461 98 399 c 0
 98 341 136 316 235 290 c 0
 352 258 398 223 398 136 c 0
 398 48 325 -10 223 -10 c 0
 141 -10 89 19 44 56 c 1
 64 78 l 1
 110 42 153 21 223 21 c 0
 303 21 363 61 363 135 c 0
 363 206 331 232 218 263 c 0
 108 292 63 327 63 400 c 0
 63 477 135 531 227 531 c 0
225 -90 m 0
 248 -90 260 -105 260 -123 c 0
 260 -139 255 -149 240 -181 c 2
 201 -267 l 1
 178 -267 l 1
 212 -154 l 1
 199 -148 191 -139 191 -123 c 0
 191 -105 205 -90 225 -90 c 0
EndSplineSet
EndChar

StartChar: uni021A
Encoding: 538 538 279
Width: 480
Flags: W
LayerCount: 2
Fore
SplineSet
470 682 m 1
 464 649 l 1
 257 649 l 1
 257 0 l 1
 222 0 l 1
 222 649 l 1
 15 649 l 1
 15 682 l 1
 470 682 l 1
238 -90 m 0
 261 -90 273 -105 273 -123 c 0
 273 -139 268 -149 253 -181 c 2
 214 -267 l 1
 191 -267 l 1
 225 -154 l 1
 212 -148 204 -139 204 -123 c 0
 204 -105 218 -90 238 -90 c 0
EndSplineSet
EndChar

StartChar: uni021B
Encoding: 539 539 280
Width: 332
Flags: W
LayerCount: 2
Fore
SplineSet
332 20 m 1
 303 2 268 -10 227 -10 c 0
 155 -10 109 33 109 119 c 2
 109 491 l 1
 24 491 l 1
 24 520 l 1
 109 520 l 1
 109 650 l 1
 143 653 l 1
 143 520 l 1
 285 520 l 1
 280 491 l 1
 143 491 l 1
 143 121 l 2
 143 55 172 21 230 21 c 0
 263 21 291 31 317 46 c 1
 332 20 l 1
222 -90 m 0
 245 -90 257 -105 257 -123 c 0
 257 -139 252 -149 237 -181 c 2
 198 -267 l 1
 175 -267 l 1
 209 -154 l 1
 196 -148 188 -139 188 -123 c 0
 188 -105 202 -90 222 -90 c 0
EndSplineSet
EndChar

StartChar: uni0237
Encoding: 567 567 281
Width: 262
Flags: W
LayerCount: 2
Fore
SplineSet
149 520 m 1
 149 10 l 2
 149 -124 109 -156 27 -197 c 1
 17 -172 l 1
 86 -136 115 -107 115 10 c 2
 115 520 l 1
 149 520 l 1
EndSplineSet
EndChar

StartChar: uni0300
Encoding: 768 768 282
Width: 0
Flags: W
LayerCount: 2
Fore
SplineSet
-210 769 m 1
 -30 673 l 1
 -42 650 l 1
 -226 734 l 1
 -210 769 l 1
EndSplineSet
EndChar

StartChar: uni0301
Encoding: 769 769 283
Width: 0
Flags: W
LayerCount: 2
Fore
SplineSet
-46 769 m 1
 -30 734 l 1
 -214 650 l 1
 -226 673 l 1
 -46 769 l 1
EndSplineSet
EndChar

StartChar: uni0302
Encoding: 770 770 284
Width: 0
Flags: W
LayerCount: 2
Fore
SplineSet
-282 650 m 1
 -299 670 l 1
 -174 770 l 1
 -155 770 l 1
 -30 670 l 1
 -46 650 l 1
 -165 735 l 1
 -282 650 l 1
EndSplineSet
EndChar

StartChar: uni0303
Encoding: 771 771 285
Width: 0
Flags: W
LayerCount: 2
Fore
SplineSet
-109 674 m 0
 -136 674 -161 686 -180 699 c 0
 -198 711 -212 717 -227 717 c 0
 -250 717 -266 707 -286 681 c 1
 -307 693 l 1
 -286 727 -259 747 -227 747 c 0
 -205 747 -184 737 -164 724 c 0
 -145 712 -128 704 -109 704 c 0
 -88 704 -73 715 -51 747 c 1
 -30 735 l 1
 -52 691 -79 674 -109 674 c 0
EndSplineSet
EndChar

StartChar: uni0304
Encoding: 772 772 286
Width: 0
Flags: W
LayerCount: 2
Fore
SplineSet
-30 682 m 1
 -248 682 l 1
 -248 714 l 1
 -30 714 l 1
 -30 682 l 1
EndSplineSet
EndChar

StartChar: uni0305
Encoding: 773 773 287
Width: 0
Flags: W
LayerCount: 2
Fore
SplineSet
-30 682 m 1
 -426 682 l 1
 -426 709 l 1
 -30 709 l 1
 -30 682 l 1
EndSplineSet
EndChar

StartChar: uni0306
Encoding: 774 774 288
Width: 0
Flags: W
LayerCount: 2
Fore
SplineSet
-146 660 m 0
 -207 660 -252 699 -261 754 c 1
 -236 760 l 1
 -224 716 -193 691 -146 691 c 0
 -99 691 -67 716 -55 760 c 1
 -30 754 l 1
 -39 699 -84 660 -146 660 c 0
EndSplineSet
EndChar

StartChar: uni0307
Encoding: 775 775 289
Width: 0
Flags: W
LayerCount: 2
Fore
SplineSet
-59 734 m 0
 -40 734 -30 721 -30 707 c 0
 -30 692 -40 679 -59 679 c 0
 -76 679 -87 692 -87 707 c 0
 -87 721 -76 734 -59 734 c 0
EndSplineSet
EndChar

StartChar: uni0308
Encoding: 776 776 290
Width: 0
Flags: W
LayerCount: 2
Fore
SplineSet
-233 723 m 0
 -216 723 -205 711 -205 696 c 0
 -205 681 -216 669 -233 669 c 0
 -249 669 -260 681 -260 696 c 0
 -260 711 -249 723 -233 723 c 0
-58 723 m 0
 -41 723 -30 711 -30 696 c 0
 -30 681 -41 669 -58 669 c 0
 -75 669 -86 681 -86 696 c 0
 -86 711 -75 723 -58 723 c 0
EndSplineSet
EndChar

StartChar: uni0309
Encoding: 777 777 291
Width: 0
Flags: W
LayerCount: 2
Fore
SplineSet
-132 620 m 1
 -132 696 l 1
 -93 697 -64 709 -64 745 c 0
 -64 773 -82 789 -113 789 c 0
 -137 789 -153 784 -171 775 c 1
 -183 799 l 1
 -162 811 -140 818 -111 818 c 0
 -60 818 -29 789 -29 747 c 0
 -29 704 -54 681 -99 676 c 1
 -99 620 l 1
 -132 620 l 1
EndSplineSet
EndChar

StartChar: uni030A
Encoding: 778 778 292
Width: 0
Flags: W
LayerCount: 2
Fore
SplineSet
-118 810 m 0
 -66 810 -30 776 -30 724 c 0
 -30 673 -66 639 -118 639 c 0
 -170 639 -206 673 -206 724 c 0
 -206 776 -170 810 -118 810 c 0
-118 784 m 0
 -155 784 -175 762 -175 724 c 0
 -175 687 -155 665 -118 665 c 0
 -82 665 -61 687 -61 724 c 0
 -61 762 -81 784 -118 784 c 0
EndSplineSet
EndChar

StartChar: uni030B
Encoding: 779 779 293
Width: 0
Flags: W
LayerCount: 2
Fore
SplineSet
-180 773 m 1
 -150 753 l 1
 -261 598 l 1
 -281 611 l 1
 -180 773 l 1
-59 764 m 1
 -30 742 l 1
 -149 593 l 1
 -168 607 l 1
 -59 764 l 1
EndSplineSet
EndChar

StartChar: uni030C
Encoding: 780 780 294
Width: 0
Flags: W
LayerCount: 2
Fore
SplineSet
-46 758 m 1
 -30 738 l 1
 -154 637 l 1
 -173 637 l 1
 -299 738 l 1
 -282 758 l 1
 -164 673 l 1
 -46 758 l 1
EndSplineSet
EndChar

StartChar: uni030D
Encoding: 781 781 295
Width: 0
Flags: W
LayerCount: 2
Fore
SplineSet
-66 638 m 1
 -66 843 l 1
 -30 843 l 1
 -30 638 l 1
 -66 638 l 1
EndSplineSet
EndChar

StartChar: uni030F
Encoding: 783 783 296
Width: 0
Flags: W
LayerCount: 2
Fore
SplineSet
-210 796 m 1
 -136 660 l 1
 -160 648 l 1
 -244 779 l 1
 -210 796 l 1
-96 796 m 1
 -30 664 l 1
 -54 652 l 1
 -130 778 l 1
 -96 796 l 1
EndSplineSet
EndChar

StartChar: uni0311
Encoding: 785 785 297
Width: 0
Flags: W
LayerCount: 2
Fore
SplineSet
-146 730 m 0
 -84 730 -39 691 -30 635 c 1
 -55 630 l 1
 -67 674 -99 698 -146 698 c 0
 -193 698 -224 674 -236 630 c 1
 -261 635 l 1
 -252 691 -207 730 -146 730 c 0
EndSplineSet
EndChar

StartChar: uni0312
Encoding: 786 786 298
Width: 0
Flags: W
LayerCount: 2
Fore
SplineSet
-77 592 m 0
 -100 592 -112 607 -112 625 c 0
 -112 641 -107 651 -93 683 c 2
 -53 769 l 1
 -30 769 l 1
 -64 656 l 1
 -51 651 -44 641 -44 625 c 0
 -44 607 -58 592 -77 592 c 0
EndSplineSet
EndChar

StartChar: uni0313
Encoding: 787 787 299
Width: 0
Flags: W
LayerCount: 2
Fore
SplineSet
-65 769 m 0
 -42 769 -30 755 -30 737 c 0
 -30 721 -35 710 -50 678 c 2
 -89 592 l 1
 -112 592 l 1
 -78 706 l 1
 -91 711 -99 720 -99 737 c 0
 -99 755 -85 769 -65 769 c 0
EndSplineSet
EndChar

StartChar: uni0316
Encoding: 790 790 300
Width: 0
Flags: W
LayerCount: 2
Fore
SplineSet
-209 -60 m 1
 -30 -149 l 1
 -40 -171 l 1
 -226 -95 l 1
 -209 -60 l 1
EndSplineSet
EndChar

StartChar: uni0317
Encoding: 791 791 301
Width: 0
Flags: W
LayerCount: 2
Fore
SplineSet
-47 -60 m 1
 -30 -95 l 1
 -216 -171 l 1
 -226 -149 l 1
 -47 -60 l 1
EndSplineSet
EndChar

StartChar: uni0318
Encoding: 792 792 302
Width: 0
Flags: W
LayerCount: 2
Fore
SplineSet
-62 -73 m 1
 -30 -73 l 1
 -30 -332 l 1
 -62 -332 l 1
 -62 -218 l 1
 -193 -218 l 1
 -193 -188 l 1
 -62 -188 l 1
 -62 -73 l 1
EndSplineSet
EndChar

StartChar: uni0319
Encoding: 793 793 303
Width: 0
Flags: W
LayerCount: 2
Fore
SplineSet
-161 -73 m 1
 -161 -188 l 1
 -30 -188 l 1
 -30 -218 l 1
 -161 -218 l 1
 -161 -332 l 1
 -193 -332 l 1
 -193 -73 l 1
 -161 -73 l 1
EndSplineSet
EndChar

StartChar: uni031A
Encoding: 794 794 304
Width: 0
Flags: W
LayerCount: 2
Fore
SplineSet
-184 752 m 1
 -30 752 l 1
 -30 591 l 1
 -62 591 l 1
 -62 722 l 1
 -184 722 l 1
 -184 752 l 1
EndSplineSet
EndChar

StartChar: uni031B
Encoding: 795 795 305
Width: 0
Flags: W
LayerCount: 2
Fore
SplineSet
-118 438 m 1
 -127 461 l 1
 -79 466 -61 484 -61 523 c 0
 -61 552 -67 575 -75 595 c 1
 -48 604 l 1
 -39 586 -30 559 -30 523 c 0
 -30 469 -61 442 -118 438 c 1
EndSplineSet
EndChar

StartChar: uni031C
Encoding: 796 796 306
Width: 0
Flags: W
LayerCount: 2
Fore
SplineSet
-30 -238 m 1
 -30 -212 l 1
 -67 -212 -87 -190 -87 -152 c 0
 -87 -114 -67 -92 -30 -92 c 1
 -30 -67 l 1
 -82 -67 -118 -101 -118 -152 c 0
 -118 -204 -82 -238 -30 -238 c 1
EndSplineSet
EndChar

StartChar: uni031D
Encoding: 797 797 307
Width: 0
Flags: W
LayerCount: 2
Fore
SplineSet
-30 -253 m 1
 -30 -283 l 1
 -299 -283 l 1
 -299 -253 l 1
 -181 -253 l 1
 -181 -112 l 1
 -149 -112 l 1
 -149 -253 l 1
 -30 -253 l 1
EndSplineSet
EndChar

StartChar: uni031E
Encoding: 798 798 308
Width: 0
Flags: W
LayerCount: 2
Fore
SplineSet
-30 -142 m 1
 -149 -142 l 1
 -149 -283 l 1
 -181 -283 l 1
 -181 -142 l 1
 -299 -142 l 1
 -299 -112 l 1
 -30 -112 l 1
 -30 -142 l 1
EndSplineSet
EndChar

StartChar: uni031F
Encoding: 799 799 309
Width: 0
Flags: W
LayerCount: 2
Fore
SplineSet
-129 -87 m 1
 -129 -181 l 1
 -30 -181 l 1
 -30 -209 l 1
 -129 -209 l 1
 -129 -303 l 1
 -160 -303 l 1
 -160 -209 l 1
 -258 -209 l 1
 -258 -181 l 1
 -160 -181 l 1
 -160 -87 l 1
 -129 -87 l 1
EndSplineSet
EndChar

StartChar: uni0320
Encoding: 800 800 310
Width: 0
Flags: W
LayerCount: 2
Fore
SplineSet
-258 -209 m 1
 -258 -181 l 1
 -30 -181 l 1
 -30 -209 l 1
 -258 -209 l 1
EndSplineSet
EndChar

StartChar: uni0321
Encoding: 801 801 311
Width: 0
Flags: W
LayerCount: 2
Fore
SplineSet
-137 -200 m 0
 -179 -200 -210 -184 -230 -168 c 1
 -214 -146 l 1
 -194 -159 -173 -170 -138 -170 c 0
 -98 -170 -64 -148 -64 -80 c 2
 -64 1 l 1
 -30 1 l 1
 -30 -80 l 2
 -30 -161 -75 -200 -137 -200 c 0
EndSplineSet
EndChar

StartChar: uni0323
Encoding: 803 803 312
Width: 0
Flags: W
LayerCount: 2
Fore
SplineSet
-58 -149 m 0
 -77 -149 -87 -136 -87 -122 c 0
 -87 -108 -77 -95 -58 -95 c 0
 -41 -95 -30 -108 -30 -122 c 0
 -30 -136 -41 -149 -58 -149 c 0
EndSplineSet
EndChar

StartChar: uni0324
Encoding: 804 804 313
Width: 0
Flags: W
LayerCount: 2
Fore
SplineSet
-233 -95 m 0
 -216 -95 -205 -107 -205 -122 c 0
 -205 -137 -216 -149 -233 -149 c 0
 -249 -149 -260 -137 -260 -122 c 0
 -260 -107 -249 -95 -233 -95 c 0
-58 -95 m 0
 -41 -95 -30 -107 -30 -122 c 0
 -30 -137 -41 -149 -58 -149 c 0
 -75 -149 -86 -137 -86 -122 c 0
 -86 -107 -75 -95 -58 -95 c 0
EndSplineSet
EndChar

StartChar: uni0325
Encoding: 805 805 314
Width: 0
Flags: W
LayerCount: 2
Fore
SplineSet
-118 -67 m 0
 -66 -67 -30 -101 -30 -152 c 0
 -30 -204 -66 -238 -118 -238 c 0
 -170 -238 -206 -204 -206 -152 c 0
 -206 -101 -170 -67 -118 -67 c 0
-118 -92 m 0
 -155 -92 -175 -114 -175 -152 c 0
 -175 -190 -155 -212 -118 -212 c 0
 -82 -212 -61 -190 -61 -152 c 0
 -61 -114 -81 -92 -118 -92 c 0
EndSplineSet
EndChar

StartChar: uni0326
Encoding: 806 806 315
Width: 0
Flags: W
LayerCount: 2
Fore
SplineSet
-65 -90 m 0
 -42 -90 -30 -105 -30 -123 c 0
 -30 -139 -35 -149 -50 -181 c 2
 -89 -267 l 1
 -112 -267 l 1
 -78 -154 l 1
 -91 -148 -99 -139 -99 -123 c 0
 -99 -105 -85 -90 -65 -90 c 0
EndSplineSet
EndChar

StartChar: uni0327
Encoding: 807 807 316
Width: 0
Flags: W
LayerCount: 2
Fore
SplineSet
-121 16 m 1
 -121 -70 l 1
 -58 -74 -30 -99 -30 -140 c 0
 -30 -189 -72 -218 -122 -218 c 0
 -154 -218 -177 -209 -194 -198 c 1
 -180 -173 l 1
 -167 -182 -148 -188 -122 -188 c 0
 -90 -188 -63 -173 -63 -140 c 0
 -63 -108 -90 -94 -152 -93 c 1
 -145 16 l 1
 -121 16 l 1
EndSplineSet
EndChar

StartChar: uni0328
Encoding: 808 808 317
Width: 0
Flags: W
LayerCount: 2
Fore
SplineSet
-44 19 m 1
 -33 0 l 1
 -111 -37 -154 -66 -154 -121 c 0
 -154 -153 -133 -175 -87 -175 c 0
 -69 -175 -52 -173 -30 -169 c 1
 -34 -202 l 1
 -54 -206 -69 -208 -88 -208 c 0
 -159 -208 -190 -170 -190 -123 c 0
 -190 -61 -139 -20 -44 19 c 1
EndSplineSet
EndChar

StartChar: uni0329
Encoding: 809 809 318
Width: 0
Flags: W
LayerCount: 2
Fore
SplineSet
-66 -282 m 1
 -66 -78 l 1
 -30 -78 l 1
 -30 -282 l 1
 -66 -282 l 1
EndSplineSet
EndChar

StartChar: uni032A
Encoding: 810 810 319
Width: 0
Flags: W
LayerCount: 2
Fore
SplineSet
-284 -221 m 1
 -284 -101 l 1
 -30 -101 l 1
 -30 -221 l 1
 -62 -221 l 1
 -62 -131 l 1
 -252 -131 l 1
 -252 -221 l 1
 -284 -221 l 1
EndSplineSet
EndChar

StartChar: uni032B
Encoding: 811 811 320
Width: 0
Flags: W
LayerCount: 2
Fore
SplineSet
-51 -66 m 1
 -30 -68 l 1
 -36 -126 -66 -165 -107 -165 c 0
 -142 -165 -168 -137 -179 -93 c 1
 -190 -137 -216 -165 -251 -165 c 0
 -292 -165 -322 -126 -328 -68 c 1
 -307 -66 l 1
 -301 -105 -282 -129 -251 -129 c 0
 -220 -129 -201 -105 -195 -66 c 1
 -163 -66 l 1
 -157 -105 -138 -129 -107 -129 c 0
 -76 -129 -58 -105 -51 -66 c 1
EndSplineSet
EndChar

StartChar: uni032C
Encoding: 812 812 321
Width: 0
Flags: W
LayerCount: 2
Fore
SplineSet
-46 -75 m 1
 -30 -94 l 1
 -154 -190 l 1
 -173 -190 l 1
 -299 -94 l 1
 -282 -75 l 1
 -164 -154 l 1
 -46 -75 l 1
EndSplineSet
EndChar

StartChar: uni032D
Encoding: 813 813 322
Width: 0
Flags: W
LayerCount: 2
Fore
SplineSet
-282 -191 m 1
 -299 -172 l 1
 -174 -71 l 1
 -155 -71 l 1
 -30 -172 l 1
 -46 -191 l 1
 -165 -106 l 1
 -282 -191 l 1
EndSplineSet
EndChar

StartChar: uni032F
Encoding: 815 815 323
Width: 0
Flags: W
LayerCount: 2
Fore
SplineSet
-146 -61 m 0
 -84 -61 -39 -100 -30 -156 c 1
 -55 -161 l 1
 -67 -117 -99 -93 -146 -93 c 0
 -193 -93 -224 -117 -236 -161 c 1
 -261 -156 l 1
 -252 -100 -207 -61 -146 -61 c 0
EndSplineSet
EndChar

StartChar: uni0330
Encoding: 816 816 324
Width: 0
Flags: W
LayerCount: 2
Fore
SplineSet
-109 -157 m 0
 -136 -157 -161 -145 -180 -132 c 0
 -198 -120 -212 -114 -227 -114 c 0
 -250 -114 -266 -124 -286 -149 c 1
 -307 -137 l 1
 -286 -104 -259 -84 -227 -84 c 0
 -205 -84 -184 -94 -164 -107 c 0
 -145 -119 -128 -127 -109 -127 c 0
 -88 -127 -73 -116 -51 -84 c 1
 -30 -96 l 1
 -52 -140 -79 -157 -109 -157 c 0
EndSplineSet
EndChar

StartChar: uni0331
Encoding: 817 817 325
Width: 0
Flags: W
LayerCount: 2
Fore
SplineSet
-30 -149 m 1
 -248 -149 l 1
 -248 -117 l 1
 -30 -117 l 1
 -30 -149 l 1
EndSplineSet
EndChar

StartChar: uni0332
Encoding: 818 818 326
Width: 0
Flags: W
LayerCount: 2
Fore
SplineSet
-30 -149 m 1
 -357 -149 l 1
 -357 -117 l 1
 -30 -117 l 1
 -30 -149 l 1
EndSplineSet
EndChar

StartChar: uni0334
Encoding: 820 820 327
Width: 0
Flags: W
LayerCount: 2
Fore
SplineSet
-119 273 m 0
 -175 273 -226 329 -272 329 c 0
 -306 329 -321 312 -342 287 c 1
 -364 300 l 1
 -339 336 -316 362 -272 362 c 0
 -213 362 -167 306 -119 306 c 0
 -87 306 -73 323 -52 348 c 1
 -30 334 l 1
 -55 298 -77 273 -119 273 c 0
EndSplineSet
EndChar

StartChar: uni0335
Encoding: 821 821 328
Width: 0
Flags: W
LayerCount: 2
Fore
SplineSet
-322 297 m 1
 -322 329 l 1
 -71 329 l 1
 -71 297 l 1
 -322 297 l 1
EndSplineSet
EndChar

StartChar: uni0336
Encoding: 822 822 329
Width: 0
Flags: W
LayerCount: 2
Fore
SplineSet
-718 298 m 1
 -718 329 l 1
 -30 329 l 1
 -30 298 l 1
 -718 298 l 1
EndSplineSet
EndChar

StartChar: uni0339
Encoding: 825 825 330
Width: 0
Flags: W
LayerCount: 2
Fore
SplineSet
-118 -238 m 1
 -66 -238 -30 -204 -30 -152 c 0
 -30 -101 -66 -67 -118 -67 c 1
 -118 -92 l 1
 -81 -92 -61 -114 -61 -152 c 0
 -61 -190 -81 -212 -118 -212 c 1
 -118 -238 l 1
EndSplineSet
EndChar

StartChar: uni033A
Encoding: 826 826 331
Width: 0
Flags: W
LayerCount: 2
Fore
SplineSet
-284 -100 m 1
 -252 -100 l 1
 -252 -190 l 1
 -62 -190 l 1
 -62 -100 l 1
 -30 -100 l 1
 -30 -220 l 1
 -284 -220 l 1
 -284 -100 l 1
EndSplineSet
EndChar

StartChar: uni033B
Encoding: 827 827 332
Width: 0
Flags: W
LayerCount: 2
Fore
SplineSet
-274 -220 m 1
 -274 -80 l 1
 -30 -80 l 1
 -30 -220 l 1
 -274 -220 l 1
-243 -192 m 1
 -61 -192 l 1
 -61 -109 l 1
 -243 -109 l 1
 -243 -192 l 1
EndSplineSet
EndChar

StartChar: uni033C
Encoding: 828 828 333
Width: 0
Flags: W
LayerCount: 2
Fore
SplineSet
-107 -71 m 0
 -66 -71 -36 -110 -30 -169 c 1
 -51 -171 l 1
 -58 -132 -76 -108 -107 -108 c 0
 -138 -108 -157 -132 -163 -171 c 1
 -195 -171 l 1
 -201 -132 -220 -108 -251 -108 c 0
 -282 -108 -301 -132 -307 -171 c 1
 -328 -169 l 1
 -322 -110 -292 -71 -251 -71 c 0
 -216 -71 -190 -99 -179 -144 c 1
 -168 -99 -142 -71 -107 -71 c 0
EndSplineSet
EndChar

StartChar: uni033D
Encoding: 829 829 334
Width: 0
Flags: W
LayerCount: 2
Fore
SplineSet
-153 726 m 1
 -49 600 l 1
 -87 600 l 1
 -172 709 l 1
 -257 600 l 1
 -292 600 l 1
 -190 725 l 1
 -279 835 l 1
 -243 835 l 1
 -171 742 l 1
 -98 835 l 1
 -62 835 l 1
 -153 726 l 1
EndSplineSet
EndChar

StartChar: uni0342
Encoding: 834 834 335
Width: 0
Flags: W
LayerCount: 2
Fore
SplineSet
-109 674 m 0
 -136 674 -161 686 -180 699 c 0
 -198 711 -212 717 -227 717 c 0
 -250 717 -266 707 -286 681 c 1
 -307 693 l 1
 -286 727 -259 747 -227 747 c 0
 -205 747 -184 737 -164 724 c 0
 -145 712 -128 704 -109 704 c 0
 -88 704 -73 715 -51 747 c 1
 -30 735 l 1
 -52 691 -79 674 -109 674 c 0
EndSplineSet
EndChar

StartChar: uni0345
Encoding: 837 837 336
Width: 0
Flags: W
LayerCount: 2
Fore
SplineSet
-101 -161 m 0
 -149 -161 -174 -128 -174 -87 c 2
 -174 -48 l 1
 -141 -48 l 1
 -141 -86 l 2
 -141 -117 -127 -132 -100 -132 c 0
 -77 -132 -65 -126 -48 -115 c 1
 -30 -135 l 1
 -51 -151 -72 -161 -101 -161 c 0
EndSplineSet
EndChar

StartChar: uni035C
Encoding: 860 860 337
Width: 0
Flags: W
LayerCount: 2
Fore
SplineSet
323 -66 m 1
 252 -123 153 -200 -1 -200 c 0
 -156 -200 -255 -123 -326 -66 c 1
 -312 -48 l 1
 -246 -94 -149 -166 -1 -166 c 0
 146 -166 244 -94 310 -48 c 1
 323 -66 l 1
EndSplineSet
EndChar

StartChar: uni0361
Encoding: 865 865 338
Width: 0
Flags: W
LayerCount: 2
Fore
SplineSet
325 648 m 1
 312 630 l 1
 246 676 148 748 1 748 c 0
 -147 748 -244 676 -310 630 c 1
 -324 648 l 1
 -253 705 -154 782 1 782 c 0
 155 782 254 705 325 648 c 1
EndSplineSet
EndChar

StartChar: uni037E
Encoding: 894 894 339
Width: 184
Flags: W
LayerCount: 2
Fore
SplineSet
92 460 m 0
 112 460 124 446 124 428 c 0
 124 410 112 396 92 396 c 0
 73 396 59 410 59 428 c 0
 59 446 73 460 92 460 c 0
92 54 m 0
 112 54 124 40 124 22 c 0
 124 8 118 -7 112 -21 c 2
 64 -141 l 1
 38 -141 l 1
 78 -7 l 1
 66 -2 59 9 59 22 c 0
 59 40 73 54 92 54 c 0
EndSplineSet
EndChar

StartChar: uni0384
Encoding: 900 900 340
Width: 100
Flags: W
LayerCount: 2
Fore
SplineSet
30 746 m 1
 70 744 l 1
 55 602 l 1
 31 602 l 1
 30 746 l 1
EndSplineSet
EndChar

StartChar: uni0385
Encoding: 901 901 341
Width: 290
Flags: W
LayerCount: 2
Fore
SplineSet
133 833 m 1
 169 831 l 1
 155 708 l 1
 134 708 l 1
 133 833 l 1
57 693 m 0
 74 693 85 681 85 666 c 0
 85 651 74 639 57 639 c 0
 41 639 30 651 30 666 c 0
 30 681 41 693 57 693 c 0
232 693 m 0
 249 693 260 681 260 666 c 0
 260 651 249 639 232 639 c 0
 215 639 204 651 204 666 c 0
 204 681 215 693 232 693 c 0
EndSplineSet
EndChar

StartChar: uni0386
Encoding: 902 902 342
Width: 561
Flags: W
LayerCount: 2
Fore
SplineSet
107 685 m 1
 149 682 l 1
 134 531 l 1
 108 531 l 1
 107 685 l 1
499 0 m 1
 433 197 l 1
 127 197 l 1
 61 0 l 1
 25 0 l 1
 259 682 l 1
 303 682 l 1
 537 0 l 1
 499 0 l 1
138 229 m 1
 423 229 l 1
 281 654 l 1
 138 229 l 1
EndSplineSet
EndChar

StartChar: uni0387
Encoding: 903 903 343
Width: 184
Flags: W
LayerCount: 2
Fore
SplineSet
92 357 m 0
 112 357 124 342 124 324 c 0
 124 307 112 292 92 292 c 0
 73 292 59 307 59 324 c 0
 59 342 73 357 92 357 c 0
EndSplineSet
EndChar

StartChar: uni0388
Encoding: 904 904 344
Width: 520
Flags: W
LayerCount: 2
Fore
SplineSet
50 685 m 1
 92 682 l 1
 77 531 l 1
 51 531 l 1
 50 685 l 1
473 682 m 1
 469 650 l 1
 178 650 l 1
 178 374 l 1
 429 374 l 1
 429 343 l 1
 178 343 l 1
 178 32 l 1
 479 32 l 1
 479 0 l 1
 143 0 l 1
 143 682 l 1
 473 682 l 1
EndSplineSet
EndChar

StartChar: uni0389
Encoding: 905 905 345
Width: 688
Flags: W
LayerCount: 2
Fore
SplineSet
50 685 m 1
 92 682 l 1
 77 531 l 1
 51 531 l 1
 50 685 l 1
534 0 m 1
 534 344 l 1
 178 344 l 1
 178 0 l 1
 143 0 l 1
 143 682 l 1
 178 682 l 1
 178 376 l 1
 534 376 l 1
 534 682 l 1
 569 682 l 1
 569 0 l 1
 534 0 l 1
EndSplineSet
EndChar

StartChar: uni038A
Encoding: 906 906 346
Width: 297
Flags: W
LayerCount: 2
Fore
SplineSet
50 685 m 1
 92 682 l 1
 77 531 l 1
 51 531 l 1
 50 685 l 1
178 682 m 1
 178 0 l 1
 143 0 l 1
 143 682 l 1
 178 682 l 1
EndSplineSet
EndChar

StartChar: uni038C
Encoding: 908 908 347
Width: 701
Flags: W
LayerCount: 2
Fore
SplineSet
356 693 m 0
 518 693 627 571 627 340 c 0
 627 118 523 -10 356 -10 c 0
 195 -10 85 114 85 339 c 0
 85 565 196 693 356 693 c 0
50 685 m 1
 92 682 l 1
 76 531 l 1
 51 531 l 1
 50 685 l 1
356 660 m 0
 217 660 121 553 121 339 c 0
 121 130 218 22 356 22 c 0
 502 22 591 130 591 340 c 0
 591 555 497 660 356 660 c 0
EndSplineSet
EndChar

StartChar: uni038E
Encoding: 910 910 348
Width: 604
Flags: W
LayerCount: 2
Fore
SplineSet
45 685 m 1
 87 682 l 1
 71 531 l 1
 46 531 l 1
 45 685 l 1
584 682 m 1
 371 271 l 1
 371 0 l 1
 336 0 l 1
 336 270 l 1
 119 682 l 1
 159 682 l 1
 354 302 l 1
 545 682 l 1
 584 682 l 1
EndSplineSet
EndChar

StartChar: uni038F
Encoding: 911 911 349
Width: 694
Flags: W
LayerCount: 2
Fore
SplineSet
349 693 m 0
 511 693 620 571 620 341 c 0
 620 168 563 79 468 33 c 1
 598 33 l 1
 598 0 l 1
 411 0 l 1
 411 32 l 1
 523 75 584 169 584 341 c 0
 584 555 490 660 349 660 c 0
 209 660 114 553 114 340 c 0
 114 172 175 80 286 32 c 1
 286 0 l 1
 99 0 l 1
 99 33 l 1
 229 33 l 1
 127 86 77 175 77 340 c 0
 77 565 189 693 349 693 c 0
50 685 m 1
 92 682 l 1
 76 531 l 1
 51 531 l 1
 50 685 l 1
EndSplineSet
EndChar

StartChar: uni0390
Encoding: 912 912 350
Width: 259
Flags: W
LayerCount: 2
Fore
SplineSet
113 833 m 1
 149 831 l 1
 135 708 l 1
 114 708 l 1
 113 833 l 1
37 693 m 0
 54 693 65 681 65 666 c 0
 65 651 54 639 37 639 c 0
 21 639 10 651 10 666 c 0
 10 681 21 693 37 693 c 0
212 693 m 0
 229 693 240 681 240 666 c 0
 240 651 229 639 212 639 c 0
 195 639 184 651 184 666 c 0
 184 681 195 693 212 693 c 0
142 520 m 1
 142 112 l 2
 142 56 156 36 190 23 c 1
 180 -5 l 1
 127 13 108 43 108 111 c 2
 108 520 l 1
 142 520 l 1
EndSplineSet
EndChar

StartChar: uni0391
Encoding: 913 913 351
Width: 559
Flags: W
LayerCount: 2
Fore
SplineSet
498 0 m 1
 432 197 l 1
 125 197 l 1
 59 0 l 1
 24 0 l 1
 258 682 l 1
 301 682 l 1
 535 0 l 1
 498 0 l 1
136 229 m 1
 421 229 l 1
 279 654 l 1
 136 229 l 1
EndSplineSet
EndChar

StartChar: uni0392
Encoding: 914 914 352
Width: 590
Flags: W
LayerCount: 2
Fore
SplineSet
374 362 m 1
 459 357 531 305 531 186 c 0
 531 66 447 0 303 0 c 2
 119 0 l 1
 119 682 l 1
 264 682 l 2
 411 682 497 627 497 513 c 0
 497 423 449 375 374 362 c 1
268 650 m 2
 154 650 l 1
 154 375 l 1
 316 375 l 2
 403 375 461 427 461 512 c 0
 461 608 392 650 268 650 c 2
304 32 m 2
 423 32 495 82 495 186 c 0
 495 295 422 345 321 345 c 2
 154 345 l 1
 154 32 l 1
 304 32 l 2
EndSplineSet
EndChar

StartChar: uni0393
Encoding: 915 915 353
Width: 508
Flags: W
LayerCount: 2
Fore
SplineSet
498 682 m 1
 492 649 l 1
 154 649 l 1
 154 0 l 1
 119 0 l 1
 119 682 l 1
 498 682 l 1
EndSplineSet
EndChar

StartChar: uni0394
Encoding: 916 916 354
Width: 569
Flags: W
LayerCount: 2
Fore
SplineSet
307 682 m 1
 545 0 l 1
 24 0 l 1
 263 682 l 1
 307 682 l 1
285 654 m 1
 70 31 l 1
 498 31 l 1
 285 654 l 1
EndSplineSet
EndChar

StartChar: uni0395
Encoding: 917 917 355
Width: 496
Flags: W
LayerCount: 2
Fore
SplineSet
449 682 m 1
 444 650 l 1
 154 650 l 1
 154 374 l 1
 405 374 l 1
 405 343 l 1
 154 343 l 1
 154 32 l 1
 455 32 l 1
 455 0 l 1
 119 0 l 1
 119 682 l 1
 449 682 l 1
EndSplineSet
EndChar

StartChar: uni0396
Encoding: 918 918 356
Width: 512
Flags: W
LayerCount: 2
Fore
SplineSet
462 682 m 1
 462 652 l 1
 81 33 l 1
 451 33 l 1
 446 0 l 1
 39 0 l 1
 39 31 l 1
 422 650 l 1
 77 650 l 1
 77 682 l 1
 462 682 l 1
EndSplineSet
EndChar

StartChar: uni0397
Encoding: 919 919 357
Width: 663
Flags: W
LayerCount: 2
Fore
SplineSet
509 0 m 1
 509 344 l 1
 154 344 l 1
 154 0 l 1
 119 0 l 1
 119 682 l 1
 154 682 l 1
 154 376 l 1
 509 376 l 1
 509 682 l 1
 544 682 l 1
 544 0 l 1
 509 0 l 1
EndSplineSet
EndChar

StartChar: uni0398
Encoding: 920 920 358
Width: 690
Flags: W
LayerCount: 2
Fore
SplineSet
345 693 m 0
 507 693 616 571 616 340 c 0
 616 118 512 -10 345 -10 c 0
 184 -10 74 114 74 339 c 0
 74 565 185 693 345 693 c 0
345 660 m 0
 206 660 110 553 110 339 c 0
 110 130 207 22 345 22 c 0
 491 22 580 130 580 340 c 0
 580 555 486 660 345 660 c 0
481 367 m 1
 481 336 l 1
 209 336 l 1
 209 367 l 1
 481 367 l 1
EndSplineSet
EndChar

StartChar: uni0399
Encoding: 921 921 359
Width: 273
Flags: W
LayerCount: 2
Fore
SplineSet
154 682 m 1
 154 0 l 1
 119 0 l 1
 119 682 l 1
 154 682 l 1
EndSplineSet
EndChar

StartChar: uni039A
Encoding: 922 922 360
Width: 518
Flags: W
LayerCount: 2
Fore
SplineSet
154 682 m 1
 154 0 l 1
 119 0 l 1
 119 682 l 1
 154 682 l 1
502 682 m 1
 201 367 l 1
 518 0 l 1
 475 0 l 1
 157 367 l 1
 460 682 l 1
 502 682 l 1
EndSplineSet
EndChar

StartChar: uni039B
Encoding: 923 923 361
Width: 559
Flags: W
LayerCount: 2
Fore
SplineSet
301 682 m 1
 535 0 l 1
 498 0 l 1
 279 654 l 1
 59 0 l 1
 24 0 l 1
 258 682 l 1
 301 682 l 1
EndSplineSet
EndChar

StartChar: uni039C
Encoding: 924 924 362
Width: 765
Flags: W
LayerCount: 2
Fore
SplineSet
619 682 m 1
 691 0 l 1
 657 0 l 1
 620 340 l 2
 608 452 594 584 589 650 c 1
 399 83 l 1
 366 83 l 1
 172 650 l 1
 168 591 153 456 142 348 c 2
 108 0 l 1
 74 0 l 1
 144 682 l 1
 196 682 l 1
 383 126 l 1
 566 682 l 1
 619 682 l 1
EndSplineSet
EndChar

StartChar: uni039D
Encoding: 925 925 363
Width: 665
Flags: W
LayerCount: 2
Fore
SplineSet
547 682 m 1
 547 0 l 1
 503 0 l 1
 148 643 l 1
 151 603 153 550 153 430 c 2
 153 0 l 1
 119 0 l 1
 119 682 l 1
 163 682 l 1
 517 39 l 1
 515 78 513 146 513 237 c 2
 513 682 l 1
 547 682 l 1
EndSplineSet
EndChar

StartChar: uni039E
Encoding: 926 926 364
Width: 488
Flags: W
LayerCount: 2
Fore
SplineSet
422 682 m 1
 419 650 l 1
 54 650 l 1
 54 682 l 1
 422 682 l 1
376 375 m 1
 376 342 l 1
 112 342 l 1
 112 375 l 1
 376 375 l 1
433 35 m 1
 433 0 l 1
 54 0 l 1
 54 35 l 1
 433 35 l 1
EndSplineSet
EndChar

StartChar: uni039F
Encoding: 927 927 365
Width: 690
Flags: W
LayerCount: 2
Fore
SplineSet
345 693 m 0
 507 693 616 571 616 340 c 0
 616 118 512 -10 345 -10 c 0
 184 -10 74 114 74 339 c 0
 74 565 185 693 345 693 c 0
345 660 m 0
 206 660 110 553 110 339 c 0
 110 130 207 22 345 22 c 0
 491 22 580 130 580 340 c 0
 580 555 486 660 345 660 c 0
EndSplineSet
EndChar

StartChar: uni03A0
Encoding: 928 928 366
Width: 658
Flags: W
LayerCount: 2
Fore
SplineSet
539 682 m 1
 539 0 l 1
 504 0 l 1
 504 650 l 1
 154 650 l 1
 154 0 l 1
 119 0 l 1
 119 682 l 1
 539 682 l 1
EndSplineSet
EndChar

StartChar: uni03A1
Encoding: 929 929 367
Width: 562
Flags: W
LayerCount: 2
Fore
SplineSet
265 682 m 2
 420 682 509 623 509 483 c 0
 509 332 406 276 260 276 c 2
 154 276 l 1
 154 0 l 1
 119 0 l 1
 119 682 l 1
 265 682 l 2
263 308 m 2
 385 308 472 349 472 482 c 0
 472 607 398 651 265 651 c 2
 154 651 l 1
 154 308 l 1
 263 308 l 2
EndSplineSet
EndChar

StartChar: uni03A3
Encoding: 931 931 368
Width: 487
Flags: W
LayerCount: 2
Fore
SplineSet
438 682 m 1
 438 650 l 1
 99 650 l 1
 323 347 l 1
 323 332 l 1
 99 32 l 1
 438 32 l 1
 438 0 l 1
 49 0 l 1
 49 20 l 1
 286 339 l 1
 49 662 l 1
 49 682 l 1
 438 682 l 1
EndSplineSet
EndChar

StartChar: uni03A4
Encoding: 932 932 369
Width: 480
Flags: W
LayerCount: 2
Fore
SplineSet
470 682 m 1
 464 649 l 1
 257 649 l 1
 257 0 l 1
 222 0 l 1
 222 649 l 1
 15 649 l 1
 15 682 l 1
 470 682 l 1
EndSplineSet
EndChar

StartChar: uni03A5
Encoding: 933 933 370
Width: 503
Flags: W
LayerCount: 2
Fore
SplineSet
484 682 m 1
 271 271 l 1
 271 0 l 1
 235 0 l 1
 235 270 l 1
 19 682 l 1
 59 682 l 1
 254 302 l 1
 445 682 l 1
 484 682 l 1
EndSplineSet
EndChar

StartChar: uni03A6
Encoding: 934 934 371
Width: 777
Flags: W
LayerCount: 2
Fore
SplineSet
733 342 m 0
 733 171 625 81 406 72 c 1
 406 0 l 1
 371 0 l 1
 371 72 l 1
 152 78 44 180 44 341 c 0
 44 513 152 602 371 612 c 1
 371 682 l 1
 406 682 l 1
 406 612 l 1
 625 606 733 503 733 342 c 0
405 102 m 1
 599 113 697 181 697 342 c 0
 697 491 598 576 405 581 c 1
 405 102 l 1
81 341 m 0
 81 192 179 108 372 103 c 1
 372 580 l 1
 178 570 81 501 81 341 c 0
EndSplineSet
EndChar

StartChar: uni03A7
Encoding: 935 935 372
Width: 496
Flags: W
LayerCount: 2
Fore
SplineSet
265 370 m 1
 482 0 l 1
 442 0 l 1
 245 346 l 1
 53 0 l 1
 14 0 l 1
 224 369 l 1
 36 682 l 1
 76 682 l 1
 245 392 l 1
 412 682 l 1
 450 682 l 1
 265 370 l 1
EndSplineSet
EndChar

StartChar: uni03A8
Encoding: 936 936 373
Width: 654
Flags: W
LayerCount: 2
Fore
SplineSet
574 682 m 1
 609 682 l 1
 609 426 l 2
 609 287 518 211 344 206 c 1
 344 0 l 1
 309 0 l 1
 309 206 l 1
 137 211 44 288 44 426 c 2
 44 682 l 1
 79 682 l 1
 79 429 l 2
 79 308 158 243 309 238 c 1
 309 682 l 1
 344 682 l 1
 344 238 l 1
 497 243 574 308 574 429 c 2
 574 682 l 1
EndSplineSet
EndChar

StartChar: uni03A9
Encoding: 937 937 374
Width: 690
Flags: W
LayerCount: 2
Fore
SplineSet
345 693 m 0
 507 693 616 571 616 341 c 0
 616 168 559 79 465 33 c 1
 594 33 l 1
 594 0 l 1
 407 0 l 1
 407 32 l 1
 519 75 580 169 580 341 c 0
 580 555 486 660 345 660 c 0
 206 660 110 553 110 340 c 0
 110 172 171 80 283 32 c 1
 283 0 l 1
 96 0 l 1
 96 33 l 1
 226 33 l 1
 124 86 74 175 74 340 c 0
 74 565 185 693 345 693 c 0
EndSplineSet
EndChar

StartChar: uni03AA
Encoding: 938 938 375
Width: 273
Flags: W
LayerCount: 2
Fore
SplineSet
47 849 m 0
 64 849 75 837 75 822 c 0
 75 807 64 795 47 795 c 0
 31 795 20 807 20 822 c 0
 20 837 31 849 47 849 c 0
222 849 m 0
 239 849 250 837 250 822 c 0
 250 807 239 795 222 795 c 0
 205 795 194 807 194 822 c 0
 194 837 205 849 222 849 c 0
154 682 m 1
 154 0 l 1
 119 0 l 1
 119 682 l 1
 154 682 l 1
EndSplineSet
EndChar

StartChar: uni03AB
Encoding: 939 939 376
Width: 503
Flags: W
LayerCount: 2
Fore
SplineSet
163 849 m 0
 180 849 191 837 191 822 c 0
 191 807 180 795 163 795 c 0
 147 795 136 807 136 822 c 0
 136 837 147 849 163 849 c 0
338 849 m 0
 355 849 366 837 366 822 c 0
 366 807 355 795 338 795 c 0
 321 795 310 807 310 822 c 0
 310 837 321 849 338 849 c 0
484 682 m 1
 271 271 l 1
 271 0 l 1
 235 0 l 1
 235 270 l 1
 19 682 l 1
 59 682 l 1
 254 302 l 1
 445 682 l 1
 484 682 l 1
EndSplineSet
EndChar

StartChar: uni03AC
Encoding: 940 940 377
Width: 599
Flags: W
LayerCount: 2
Fore
SplineSet
267 746 m 1
 307 744 l 1
 292 602 l 1
 268 602 l 1
 267 746 l 1
258 531 m 0
 350 531 404 484 435 316 c 1
 489 520 l 1
 524 520 l 1
 454 270 l 1
 495 75 l 2
 502 41 518 31 535 26 c 1
 523 -5 l 1
 495 2 472 18 462 63 c 2
 432 206 l 1
 402 53 340 -10 247 -10 c 0
 136 -10 69 79 69 263 c 0
 69 420 141 531 258 531 c 0
259 501 m 0
 172 501 104 416 104 263 c 0
 104 95 160 21 248 21 c 0
 322 21 385 73 421 268 c 1
 384 450 341 501 259 501 c 0
EndSplineSet
EndChar

StartChar: uni03AD
Encoding: 941 941 378
Width: 447
Flags: W
LayerCount: 2
Fore
SplineSet
237 746 m 1
 277 744 l 1
 262 602 l 1
 238 602 l 1
 237 746 l 1
250 531 m 0
 322 531 368 510 405 485 c 1
 386 461 l 1
 350 485 310 500 253 500 c 0
 166 500 118 459 118 395 c 0
 118 334 171 288 255 288 c 2
 313 288 l 1
 309 258 l 1
 252 258 l 2
 151 258 98 220 98 138 c 0
 98 63 158 21 247 21 c 0
 319 21 355 42 399 76 c 1
 418 53 l 1
 376 17 324 -10 246 -10 c 0
 141 -10 62 44 62 139 c 0
 62 226 119 266 193 274 c 1
 120 291 83 332 83 395 c 0
 83 480 154 531 250 531 c 0
EndSplineSet
EndChar

StartChar: uni03AE
Encoding: 942 942 379
Width: 584
Flags: W
LayerCount: 2
Fore
SplineSet
291 602 m 1
 267 602 l 1
 266 746 l 1
 306 744 l 1
 291 602 l 1
335 531 m 0
 429 531 476 472 476 370 c 2
 476 -200 l 1
 442 -194 l 1
 442 366 l 2
 442 458 405 501 333 501 c 0
 252 501 198 452 150 382 c 1
 150 0 l 1
 116 0 l 1
 116 354 l 2
 116 432 106 481 94 521 c 1
 125 526 l 1
 137 496 144 456 147 419 c 1
 192 485 253 531 335 531 c 0
EndSplineSet
EndChar

StartChar: uni03AF
Encoding: 943 943 380
Width: 259
Flags: W
LayerCount: 2
Fore
SplineSet
112 746 m 1
 152 744 l 1
 137 602 l 1
 113 602 l 1
 112 746 l 1
142 520 m 1
 142 112 l 2
 142 56 156 36 190 23 c 1
 180 -5 l 1
 127 13 108 43 108 111 c 2
 108 520 l 1
 142 520 l 1
EndSplineSet
EndChar

StartChar: uni03B0
Encoding: 944 944 381
Width: 559
Flags: W
LayerCount: 2
Fore
SplineSet
264 833 m 1
 300 831 l 1
 286 708 l 1
 265 708 l 1
 264 833 l 1
188 693 m 0
 205 693 216 681 216 666 c 0
 216 651 205 639 188 639 c 0
 172 639 161 651 161 666 c 0
 161 681 172 693 188 693 c 0
363 693 m 0
 380 693 391 681 391 666 c 0
 391 651 380 639 363 639 c 0
 346 639 335 651 335 666 c 0
 335 681 346 693 363 693 c 0
444 520 m 1
 457 444 470 357 470 264 c 0
 470 73 379 -10 271 -10 c 0
 179 -10 108 45 108 156 c 2
 108 520 l 1
 142 520 l 1
 142 158 l 2
 142 61 199 21 271 21 c 0
 351 21 435 78 435 265 c 0
 435 355 422 443 409 520 c 1
 444 520 l 1
EndSplineSet
EndChar

StartChar: uni03B1
Encoding: 945 945 382
Width: 599
Flags: W
LayerCount: 2
Fore
SplineSet
258 531 m 0
 350 531 404 484 435 316 c 1
 489 520 l 1
 524 520 l 1
 454 270 l 1
 495 75 l 2
 502 41 518 31 535 26 c 1
 523 -5 l 1
 495 2 472 18 462 63 c 2
 432 206 l 1
 402 53 340 -10 247 -10 c 0
 136 -10 69 79 69 263 c 0
 69 420 141 531 258 531 c 0
259 501 m 0
 172 501 104 416 104 263 c 0
 104 95 160 21 248 21 c 0
 322 21 385 73 421 268 c 1
 384 450 341 501 259 501 c 0
EndSplineSet
EndChar

StartChar: uni03B2
Encoding: 946 946 383
Width: 578
Flags: W
LayerCount: 2
Fore
SplineSet
312 399 m 1
 431 398 524 330 523 198 c 0
 522 65 429 -10 323 -10 c 0
 251 -10 195 13 148 66 c 1
 148 -194 l 1
 114 -200 l 1
 114 541 l 2
 114 668 191 739 301 739 c 0
 399 739 475 677 476 570 c 0
 477 465 414 409 312 399 c 1
322 21 m 0
 416 21 489 90 488 198 c 0
 487 319 400 384 264 384 c 2
 219 384 l 1
 223 413 l 1
 266 413 l 2
 333 413 442 439 441 569 c 0
 440 664 381 708 301 708 c 0
 212 708 148 656 148 539 c 2
 148 104 l 1
 200 44 248 21 322 21 c 0
EndSplineSet
EndChar

StartChar: uni03B3
Encoding: 947 947 384
Width: 447
Flags: W
LayerCount: 2
Fore
SplineSet
46 526 m 1
 99 457 160 330 225 51 c 1
 392 527 l 1
 428 518 l 1
 244 17 l 2
 215 -60 211 -116 231 -195 c 1
 203 -199 l 1
 177 -126 177 -71 206 11 c 1
 132 297 74 436 14 515 c 1
 46 526 l 1
EndSplineSet
EndChar

StartChar: uni03B4
Encoding: 948 948 385
Width: 559
Flags: W
LayerCount: 2
Fore
SplineSet
299 489 m 0
 431 440 490 374 490 236 c 0
 490 76 415 -10 281 -10 c 0
 151 -10 69 77 69 236 c 0
 69 361 134 441 235 483 c 1
 157 516 123 553 123 615 c 0
 123 684 185 739 281 739 c 0
 345 739 391 722 436 693 c 1
 416 670 l 1
 373 696 339 708 285 708 c 0
 206 708 158 668 158 615 c 0
 158 559 185 532 299 489 c 0
281 21 m 0
 396 21 455 92 455 236 c 0
 455 361 409 416 267 471 c 1
 177 436 105 363 105 236 c 0
 105 95 173 21 281 21 c 0
EndSplineSet
EndChar

StartChar: uni03B5
Encoding: 949 949 386
Width: 447
Flags: W
LayerCount: 2
Fore
SplineSet
250 531 m 0
 322 531 368 510 405 485 c 1
 386 461 l 1
 350 485 310 500 253 500 c 0
 166 500 118 459 118 395 c 0
 118 334 171 288 255 288 c 2
 313 288 l 1
 309 258 l 1
 252 258 l 2
 151 258 98 220 98 138 c 0
 98 63 158 21 247 21 c 0
 319 21 355 42 399 76 c 1
 418 53 l 1
 376 17 324 -10 246 -10 c 0
 141 -10 62 44 62 139 c 0
 62 226 119 266 193 274 c 1
 120 291 83 332 83 395 c 0
 83 480 154 531 250 531 c 0
EndSplineSet
EndChar

StartChar: uni03B6
Encoding: 950 950 387
Width: 364
Flags: W
LayerCount: 2
Fore
SplineSet
378 734 m 1
 385 705 l 1
 215 561 86 417 86 250 c 0
 86 147 117 109 225 68 c 0
 331 27 373 -2 373 -61 c 0
 373 -120 333 -161 249 -200 c 1
 234 -175 l 1
 294 -148 337 -116 337 -62 c 0
 337 -22 315 0 204 42 c 0
 102 81 49 125 49 250 c 0
 49 421 184 574 344 705 c 1
 314 704 276 702 227 702 c 2
 45 702 l 1
 49 734 l 1
 378 734 l 1
EndSplineSet
EndChar

StartChar: uni03B7
Encoding: 951 951 388
Width: 584
Flags: W
LayerCount: 2
Fore
SplineSet
335 531 m 0
 429 531 476 472 476 370 c 2
 476 -200 l 1
 442 -194 l 1
 442 366 l 2
 442 458 405 501 333 501 c 0
 252 501 198 452 150 382 c 1
 150 0 l 1
 116 0 l 1
 116 354 l 2
 116 432 106 481 94 521 c 1
 125 526 l 1
 137 496 144 456 147 419 c 1
 192 485 253 531 335 531 c 0
EndSplineSet
EndChar

StartChar: uni03B8
Encoding: 952 952 389
Width: 554
Flags: W
LayerCount: 2
Fore
SplineSet
280 739 m 0
 421 739 485 608 485 369 c 0
 485 120 423 -10 275 -10 c 0
 132 -10 69 118 69 367 c 0
 69 613 141 739 280 739 c 0
280 708 m 0
 162 708 107 601 104 384 c 1
 450 384 l 1
 448 600 396 708 280 708 c 0
275 21 m 0
 395 21 447 132 450 354 c 1
 104 354 l 1
 104 134 161 21 275 21 c 0
EndSplineSet
EndChar

StartChar: uni03B9
Encoding: 953 953 390
Width: 259
Flags: W
LayerCount: 2
Fore
SplineSet
142 520 m 1
 142 112 l 2
 142 56 156 36 190 23 c 1
 180 -5 l 1
 127 13 108 43 108 111 c 2
 108 520 l 1
 142 520 l 1
EndSplineSet
EndChar

StartChar: uni03BA
Encoding: 954 954 391
Width: 484
Flags: W
LayerCount: 2
Fore
SplineSet
443 516 m 1
 200 271 l 1
 415 56 l 2
 437 35 449 24 470 19 c 1
 460 -8 l 1
 431 -4 416 10 391 36 c 2
 158 270 l 1
 416 531 l 1
 443 516 l 1
126 526 m 1
 138 487 150 450 150 348 c 2
 150 0 l 1
 116 0 l 1
 116 354 l 2
 116 432 106 481 94 521 c 1
 126 526 l 1
EndSplineSet
EndChar

StartChar: uni03BB
Encoding: 955 955 392
Width: 461
Flags: W
LayerCount: 2
Fore
SplineSet
87 739 m 1
 206 713 242 650 270 509 c 0
 336 172 400 94 462 6 c 1
 430 -6 l 1
 368 82 305 165 241 488 c 1
 72 -6 l 1
 39 2 l 1
 221 520 l 1
 236 520 l 1
 212 632 181 689 82 713 c 1
 87 739 l 1
EndSplineSet
EndChar

StartChar: uni03BC
Encoding: 956 956 393
Width: 583
Flags: W
LayerCount: 2
Fore
SplineSet
489 -4 m 1
 459 -7 l 1
 444 35 436 61 432 113 c 1
 394 46 343 -10 259 -10 c 0
 196 -10 161 19 142 61 c 1
 146 16 147 -19 147 -69 c 2
 147 -194 l 1
 114 -196 l 1
 114 520 l 1
 148 520 l 1
 148 146 l 2
 148 54 202 21 259 21 c 0
 333 21 386 73 427 153 c 1
 427 520 l 1
 461 520 l 1
 461 174 l 2
 461 97 472 47 489 -4 c 1
EndSplineSet
EndChar

StartChar: uni03BD
Encoding: 957 957 394
Width: 447
Flags: W
LayerCount: 2
Fore
SplineSet
47 526 m 1
 100 456 158 315 220 29 c 1
 394 526 l 1
 428 518 l 1
 239 0 l 1
 199 0 l 1
 131 291 74 435 14 515 c 1
 47 526 l 1
EndSplineSet
EndChar

StartChar: uni03BE
Encoding: 958 958 395
Width: 414
Flags: W
LayerCount: 2
Fore
SplineSet
267 739 m 0
 334 739 376 721 419 692 c 1
 401 667 l 1
 360 694 326 708 270 708 c 0
 174 708 134 651 134 584 c 0
 134 502 188 457 280 457 c 2
 333 457 l 1
 328 427 l 1
 272 427 l 2
 152 427 95 352 95 259 c 0
 95 155 139 119 257 75 c 0
 366 34 405 3 405 -59 c 0
 405 -120 364 -161 281 -200 c 1
 266 -175 l 1
 326 -148 369 -116 369 -60 c 0
 369 -16 347 7 241 48 c 0
 130 91 59 127 59 260 c 0
 59 378 136 436 216 444 c 1
 144 460 99 503 99 584 c 0
 99 674 164 739 267 739 c 0
EndSplineSet
EndChar

StartChar: uni03BF
Encoding: 959 959 396
Width: 562
Flags: W
LayerCount: 2
Fore
SplineSet
282 531 m 0
 412 531 493 436 493 262 c 0
 493 90 410 -10 281 -10 c 0
 149 -10 69 91 69 259 c 0
 69 431 153 531 282 531 c 0
282 500 m 0
 174 500 105 418 105 259 c 0
 105 106 171 21 281 21 c 0
 389 21 458 104 458 262 c 0
 458 417 392 500 282 500 c 0
EndSplineSet
EndChar

StartChar: uni03C0
Encoding: 960 960 397
Width: 580
Flags: W
LayerCount: 2
Fore
SplineSet
528 488 m 1
 442 488 l 1
 442 112 l 2
 442 56 456 36 490 23 c 1
 480 -5 l 1
 427 13 408 43 408 111 c 2
 408 488 l 1
 171 488 l 1
 171 0 l 1
 137 0 l 1
 137 488 l 1
 114 488 l 2
 80 488 66 487 40 479 c 1
 32 508 l 1
 57 518 78 520 111 520 c 2
 528 520 l 1
 528 488 l 1
EndSplineSet
EndChar

StartChar: uni03C1
Encoding: 961 961 398
Width: 561
Flags: W
LayerCount: 2
Fore
SplineSet
295 531 m 0
 420 531 487 428 487 264 c 0
 487 83 411 -10 295 -10 c 0
 225 -10 170 26 137 77 c 1
 137 -194 l 1
 103 -200 l 1
 103 295 l 2
 103 431 164 531 295 531 c 0
293 21 m 0
 391 21 451 100 451 264 c 0
 451 417 398 500 294 500 c 0
 189 500 137 420 137 291 c 2
 137 121 l 1
 172 58 224 21 293 21 c 0
EndSplineSet
EndChar

StartChar: uni03C2
Encoding: 962 962 399
Width: 452
Flags: W
LayerCount: 2
Fore
SplineSet
284 531 m 0
 341 531 381 516 423 480 c 1
 404 458 l 1
 371 485 336 499 285 499 c 0
 182 499 104 418 104 267 c 0
 104 147 156 102 267 61 c 0
 360 28 400 2 400 -59 c 0
 400 -120 359 -161 276 -200 c 1
 261 -175 l 1
 321 -148 364 -116 364 -61 c 0
 364 -17 343 0 246 35 c 0
 131 75 69 132 69 267 c 0
 69 427 155 531 284 531 c 0
EndSplineSet
EndChar

StartChar: uni03C3
Encoding: 963 963 400
Width: 569
Flags: W
LayerCount: 2
Fore
SplineSet
514 520 m 1
 514 492 l 1
 381 500 l 1
 447 461 493 382 493 262 c 0
 493 90 410 -10 281 -10 c 0
 149 -10 69 91 69 259 c 0
 69 420 146 528 318 528 c 0
 382 528 452 524 514 520 c 1
458 262 m 0
 458 385 408 465 337 502 c 1
 335 502 l 2
 168 503 105 413 105 259 c 0
 105 106 171 21 281 21 c 0
 389 21 458 104 458 262 c 0
EndSplineSet
EndChar

StartChar: uni03C4
Encoding: 964 964 401
Width: 438
Flags: W
LayerCount: 2
Fore
SplineSet
426 488 m 1
 230 488 l 1
 230 112 l 2
 230 56 244 36 278 23 c 1
 267 -5 l 1
 214 13 196 43 196 111 c 2
 196 488 l 1
 88 488 l 2
 52 488 38 487 13 479 c 1
 4 508 l 1
 29 518 50 520 83 520 c 2
 426 520 l 1
 426 488 l 1
EndSplineSet
EndChar

StartChar: uni03C5
Encoding: 965 965 402
Width: 559
Flags: W
LayerCount: 2
Fore
SplineSet
444 520 m 1
 457 444 470 357 470 264 c 0
 470 73 379 -10 271 -10 c 0
 179 -10 108 45 108 156 c 2
 108 520 l 1
 142 520 l 1
 142 158 l 2
 142 61 199 21 271 21 c 0
 351 21 435 78 435 265 c 0
 435 355 422 443 409 520 c 1
 444 520 l 1
EndSplineSet
EndChar

StartChar: uni03C6
Encoding: 966 966 403
Width: 710
Flags: W
LayerCount: 2
Fore
SplineSet
636 264 m 0
 636 79 566 -2 369 -10 c 1
 369 -194 l 1
 335 -200 l 1
 335 -9 l 1
 164 1 84 73 84 244 c 0
 84 358 113 448 140 520 c 1
 174 520 l 1
 150 456 119 362 119 244 c 0
 119 79 196 30 335 21 c 1
 335 353 l 2
 335 477 390 531 477 531 c 0
 573 531 636 465 636 264 c 0
369 20 m 1
 532 26 600 87 600 264 c 0
 600 441 557 502 477 502 c 0
 414 502 369 470 369 346 c 2
 369 20 l 1
EndSplineSet
EndChar

StartChar: uni03C7
Encoding: 967 967 404
Width: 427
Flags: W
LayerCount: 2
Fore
SplineSet
231 182 m 1
 412 -189 l 1
 380 -198 l 1
 213 153 l 1
 46 -197 l 1
 11 -192 l 1
 196 183 l 1
 112 376 68 447 9 515 c 1
 42 528 l 1
 98 462 140 394 213 211 c 1
 355 524 l 1
 391 520 l 1
 231 182 l 1
EndSplineSet
EndChar

StartChar: uni03C8
Encoding: 968 968 405
Width: 738
Flags: W
LayerCount: 2
Fore
SplineSet
649 272 m 0
 649 72 555 -1 386 -10 c 1
 386 -194 l 1
 352 -200 l 1
 352 -10 l 1
 188 -8 99 60 99 200 c 2
 100 520 l 1
 134 520 l 1
 133 200 l 2
 133 79 207 23 352 21 c 1
 352 520 l 1
 386 520 l 1
 386 21 l 1
 537 27 614 93 614 271 c 0
 614 360 606 430 588 520 c 1
 623 520 l 1
 640 431 649 363 649 272 c 0
EndSplineSet
EndChar

StartChar: uni03C9
Encoding: 969 969 406
Width: 771
Flags: W
LayerCount: 2
Fore
SplineSet
633 520 m 1
 656 464 687 362 687 235 c 0
 687 40 601 -10 519 -10 c 0
 447 -10 395 27 385 112 c 1
 371 27 319 -10 251 -10 c 0
 152 -10 84 63 84 237 c 0
 84 362 114 453 140 520 c 1
 175 520 l 1
 141 434 119 341 119 235 c 0
 119 69 183 21 251 21 c 0
 314 21 367 59 367 178 c 2
 367 351 l 1
 402 357 l 1
 402 177 l 2
 402 57 457 21 515 21 c 0
 582 21 652 60 652 233 c 0
 652 341 628 434 598 520 c 1
 633 520 l 1
EndSplineSet
EndChar

StartChar: uni03CA
Encoding: 970 970 407
Width: 259
Flags: W
LayerCount: 2
Fore
SplineSet
37 723 m 0
 54 723 65 711 65 696 c 0
 65 681 54 669 37 669 c 0
 21 669 10 681 10 696 c 0
 10 711 21 723 37 723 c 0
212 723 m 0
 229 723 240 711 240 696 c 0
 240 681 229 669 212 669 c 0
 195 669 184 681 184 696 c 0
 184 711 195 723 212 723 c 0
142 520 m 1
 142 112 l 2
 142 56 156 36 190 23 c 1
 180 -5 l 1
 127 13 108 43 108 111 c 2
 108 520 l 1
 142 520 l 1
EndSplineSet
EndChar

StartChar: uni03CB
Encoding: 971 971 408
Width: 559
Flags: W
LayerCount: 2
Fore
SplineSet
188 723 m 0
 205 723 216 711 216 696 c 0
 216 681 205 669 188 669 c 0
 172 669 161 681 161 696 c 0
 161 711 172 723 188 723 c 0
363 723 m 0
 380 723 391 711 391 696 c 0
 391 681 380 669 363 669 c 0
 346 669 335 681 335 696 c 0
 335 711 346 723 363 723 c 0
444 520 m 1
 457 444 470 357 470 264 c 0
 470 73 379 -10 271 -10 c 0
 179 -10 108 45 108 156 c 2
 108 520 l 1
 142 520 l 1
 142 158 l 2
 142 61 199 21 271 21 c 0
 351 21 435 78 435 265 c 0
 435 355 422 443 409 520 c 1
 444 520 l 1
EndSplineSet
EndChar

StartChar: uni03CC
Encoding: 972 972 409
Width: 562
Flags: W
LayerCount: 2
Fore
SplineSet
268 746 m 1
 308 744 l 1
 293 602 l 1
 269 602 l 1
 268 746 l 1
282 531 m 0
 412 531 493 436 493 262 c 0
 493 90 410 -10 281 -10 c 0
 149 -10 69 91 69 259 c 0
 69 431 153 531 282 531 c 0
282 500 m 0
 174 500 105 418 105 259 c 0
 105 106 171 21 281 21 c 0
 389 21 458 104 458 262 c 0
 458 417 392 500 282 500 c 0
EndSplineSet
EndChar

StartChar: uni03CD
Encoding: 973 973 410
Width: 559
Flags: W
LayerCount: 2
Fore
SplineSet
263 746 m 1
 303 744 l 1
 288 602 l 1
 264 602 l 1
 263 746 l 1
444 520 m 1
 457 444 470 357 470 264 c 0
 470 73 379 -10 271 -10 c 0
 179 -10 108 45 108 156 c 2
 108 520 l 1
 142 520 l 1
 142 158 l 2
 142 61 199 21 271 21 c 0
 351 21 435 78 435 265 c 0
 435 355 422 443 409 520 c 1
 444 520 l 1
EndSplineSet
EndChar

StartChar: uni03CE
Encoding: 974 974 411
Width: 771
Flags: W
LayerCount: 2
Fore
SplineSet
375 746 m 1
 415 744 l 1
 400 602 l 1
 376 602 l 1
 375 746 l 1
633 520 m 1
 656 464 687 362 687 235 c 0
 687 40 601 -10 519 -10 c 0
 447 -10 395 27 385 112 c 1
 371 27 319 -10 251 -10 c 0
 152 -10 84 63 84 237 c 0
 84 362 114 453 140 520 c 1
 175 520 l 1
 141 434 119 341 119 235 c 0
 119 69 183 21 251 21 c 0
 314 21 367 59 367 178 c 2
 367 351 l 1
 402 357 l 1
 402 177 l 2
 402 57 457 21 515 21 c 0
 582 21 652 60 652 233 c 0
 652 341 628 434 598 520 c 1
 633 520 l 1
EndSplineSet
EndChar

StartChar: uni03D0
Encoding: 976 976 412
Width: 570
Flags: W
LayerCount: 2
Fore
SplineSet
314 425 m 0
 440 425 506 347 506 223 c 0
 506 85 420 -10 295 -10 c 0
 142 -10 69 110 69 352 c 0
 69 614 207 739 338 739 c 0
 418 739 468 685 468 618 c 0
 468 527 422 474 272 420 c 1
 286 422 301 425 314 425 c 0
336 708 m 0
 236 708 113 622 106 373 c 1
 161 394 l 2
 411 491 432 542 432 617 c 0
 432 667 400 708 336 708 c 0
295 21 m 0
 401 21 469 99 469 222 c 0
 469 326 413 399 310 399 c 0
 252 399 215 386 160 364 c 2
 106 342 l 1
 106 125 163 21 295 21 c 0
EndSplineSet
EndChar

StartChar: uni03D1
Encoding: 977 977 413
Width: 528
Flags: W
LayerCount: 2
Fore
SplineSet
503 445 m 1
 503 414 l 1
 459 414 l 1
 459 401 l 2
 459 120 381 -10 233 -10 c 0
 143 -10 78 45 78 156 c 2
 78 341 l 1
 112 341 l 1
 112 158 l 2
 112 61 166 21 235 21 c 0
 360 21 423 138 423 401 c 2
 423 414 l 1
 268 414 l 2
 119 414 59 477 59 576 c 0
 59 665 124 739 231 739 c 0
 375 739 448 624 458 445 c 1
 503 445 l 1
268 445 m 2
 422 445 l 1
 413 609 352 708 231 708 c 0
 143 708 94 651 94 576 c 0
 94 493 143 445 268 445 c 2
EndSplineSet
EndChar

StartChar: uni03D2
Encoding: 978 978 414
Width: 521
Flags: W
LayerCount: 2
Fore
SplineSet
235 0 m 1
 235 270 l 1
 19 682 l 1
 59 682 l 1
 254 300 l 1
 397 612 l 2
 422 667 450 693 497 693 c 0
 534 693 560 676 581 655 c 1
 564 635 l 1
 543 652 527 663 498 663 c 0
 465 663 449 650 425 598 c 2
 271 270 l 1
 271 0 l 1
 235 0 l 1
EndSplineSet
EndChar

StartChar: uni03D5
Encoding: 981 981 415
Width: 621
Flags: W
LayerCount: 2
Fore
SplineSet
565 262 m 0
 565 107 483 12 327 7 c 1
 327 -194 l 1
 293 -200 l 1
 293 7 l 1
 139 13 55 106 55 261 c 0
 55 409 138 508 293 514 c 1
 293 734 l 1
 327 740 l 1
 327 514 l 1
 481 509 565 414 565 262 c 0
326 37 m 1
 456 41 530 117 530 262 c 0
 530 401 456 478 326 484 c 1
 326 37 l 1
91 261 m 0
 91 120 164 42 294 37 c 1
 294 484 l 1
 162 478 91 399 91 261 c 0
EndSplineSet
EndChar

StartChar: uni03D6
Encoding: 982 982 416
Width: 730
Flags: W
LayerCount: 2
Fore
SplineSet
669 520 m 1
 669 489 l 1
 566 489 l 1
 608 430 646 338 646 215 c 0
 646 40 566 -10 493 -10 c 0
 426 -10 374 27 365 112 c 1
 351 27 299 -10 236 -10 c 0
 146 -10 83 63 83 217 c 0
 83 341 120 425 167 489 c 1
 143 489 l 2
 108 489 94 488 69 480 c 1
 60 508 l 1
 85 518 98 520 143 520 c 2
 669 520 l 1
611 213 m 0
 611 326 578 411 529 489 c 1
 203 489 l 1
 151 411 118 326 118 215 c 0
 118 69 177 21 234 21 c 0
 293 21 347 59 347 178 c 2
 347 312 l 1
 382 317 l 1
 382 177 l 2
 382 57 436 21 491 21 c 0
 547 21 611 60 611 213 c 0
EndSplineSet
EndChar

StartChar: uni03D7
Encoding: 983 983 417
Width: 588
Flags: W
LayerCount: 2
Fore
SplineSet
472 111 m 2
 472 55 486 35 519 23 c 1
 519 -80 l 2
 519 -161 476 -200 411 -200 c 0
 369 -200 340 -184 319 -168 c 1
 336 -146 l 1
 356 -159 378 -170 411 -170 c 0
 452 -170 485 -148 485 -80 c 2
 485 6 l 1
 451 25 438 55 438 111 c 0
 438 242 440 431 441 483 c 1
 155 -9 l 1
 117 1 l 1
 117 408 l 2
 117 464 103 484 69 497 c 1
 79 526 l 1
 132 508 151 477 151 408 c 0
 151 277 149 89 148 38 c 1
 434 529 l 1
 472 519 l 1
 472 111 l 2
EndSplineSet
EndChar

StartChar: uni03F0
Encoding: 1008 1008 418
Width: 589
Flags: W
LayerCount: 2
Fore
SplineSet
472 111 m 2
 472 55 486 36 520 22 c 1
 509 -6 l 1
 457 12 438 43 438 111 c 0
 438 242 440 431 441 483 c 1
 155 -9 l 1
 117 1 l 1
 117 408 l 2
 117 464 103 484 69 497 c 1
 79 526 l 1
 132 508 151 477 151 408 c 0
 151 277 149 89 148 38 c 1
 434 529 l 1
 472 519 l 1
 472 111 l 2
EndSplineSet
EndChar

StartChar: uni03F1
Encoding: 1009 1009 419
Width: 561
Flags: W
LayerCount: 2
Fore
SplineSet
282 -111 m 0
 376 -126 407 -149 424 -189 c 1
 392 -200 l 1
 372 -167 351 -155 266 -141 c 0
 149 -122 103 -83 103 15 c 2
 103 295 l 2
 103 431 164 531 295 531 c 0
 420 531 487 428 487 282 c 0
 487 117 411 24 295 24 c 0
 225 24 170 61 137 111 c 1
 137 14 l 2
 137 -67 176 -94 282 -111 c 0
294 500 m 0
 189 500 137 420 137 291 c 2
 137 156 l 1
 172 92 224 55 293 55 c 0
 391 55 451 134 451 282 c 0
 451 417 398 500 294 500 c 0
EndSplineSet
EndChar

StartChar: uni03F2
Encoding: 1010 1010 420
Width: 503
Flags: W
LayerCount: 2
Fore
SplineSet
304 531 m 0
 370 531 412 516 462 480 c 1
 444 457 l 1
 402 485 366 499 305 499 c 0
 192 499 105 418 105 257 c 0
 105 100 191 21 304 21 c 0
 366 21 405 39 450 68 c 1
 468 44 l 1
 421 11 373 -10 306 -10 c 0
 166 -10 69 87 69 257 c 0
 69 426 165 531 304 531 c 0
EndSplineSet
EndChar

StartChar: uni03F4
Encoding: 1012 1012 421
Width: 690
Flags: W
LayerCount: 2
Fore
SplineSet
345 693 m 0
 507 693 616 571 616 338 c 0
 616 118 512 -10 345 -10 c 0
 184 -10 74 114 74 337 c 0
 74 565 185 693 345 693 c 0
345 660 m 0
 212 660 118 562 111 364 c 1
 580 364 l 1
 572 563 480 660 345 660 c 0
345 22 m 0
 490 22 579 129 580 334 c 1
 110 334 l 1
 111 129 208 22 345 22 c 0
EndSplineSet
EndChar

StartChar: uni03F5
Encoding: 1013 1013 422
Width: 474
Flags: W
LayerCount: 2
Fore
SplineSet
412 67 m 1
 430 41 l 1
 390 11 342 -10 283 -10 c 0
 156 -10 69 87 69 261 c 0
 69 429 158 531 286 531 c 0
 341 531 381 516 428 480 c 1
 408 456 l 1
 370 485 335 500 287 500 c 0
 188 500 112 426 105 283 c 1
 365 283 l 1
 365 254 l 1
 104 254 l 1
 105 99 184 21 283 21 c 0
 336 21 371 38 412 67 c 1
EndSplineSet
EndChar

StartChar: uni03F6
Encoding: 1014 1014 423
Width: 469
Flags: W
LayerCount: 2
Fore
SplineSet
218 531 m 0
 328 531 400 458 400 264 c 0
 400 92 330 -10 205 -10 c 0
 130 -10 85 16 44 48 c 1
 63 71 l 1
 99 43 137 21 201 21 c 0
 309 21 363 103 365 255 c 1
 118 255 l 1
 118 284 l 1
 365 284 l 1
 359 448 299 500 219 500 c 0
 160 500 121 482 80 453 c 1
 63 477 l 1
 107 511 154 531 218 531 c 0
EndSplineSet
EndChar

StartChar: uni0400
Encoding: 1024 1024 424
Width: 496
Flags: W
LayerCount: 2
Fore
SplineSet
206 872 m 1
 385 783 l 1
 375 761 l 1
 189 837 l 1
 206 872 l 1
449 682 m 1
 444 650 l 1
 154 650 l 1
 154 374 l 1
 405 374 l 1
 405 343 l 1
 154 343 l 1
 154 32 l 1
 455 32 l 1
 455 0 l 1
 119 0 l 1
 119 682 l 1
 449 682 l 1
EndSplineSet
EndChar

StartChar: uni0401
Encoding: 1025 1025 425
Width: 496
Flags: W
LayerCount: 2
Fore
SplineSet
200 849 m 0
 217 849 228 837 228 822 c 0
 228 807 217 795 200 795 c 0
 184 795 173 807 173 822 c 0
 173 837 184 849 200 849 c 0
375 849 m 0
 392 849 403 837 403 822 c 0
 403 807 392 795 375 795 c 0
 358 795 347 807 347 822 c 0
 347 837 358 849 375 849 c 0
449 682 m 1
 444 650 l 1
 154 650 l 1
 154 374 l 1
 405 374 l 1
 405 343 l 1
 154 343 l 1
 154 32 l 1
 455 32 l 1
 455 0 l 1
 119 0 l 1
 119 682 l 1
 449 682 l 1
EndSplineSet
EndChar

StartChar: uni0402
Encoding: 1026 1026 426
Width: 689
Flags: W
LayerCount: 2
Fore
SplineSet
449 426 m 0
 573 426 635 354 635 242 c 2
 635 89 l 2
 635 -17 608 -57 496 -106 c 1
 486 -80 l 1
 577 -37 600 -2 600 91 c 2
 600 241 l 2
 600 331 555 393 447 393 c 0
 369 393 311 361 257 295 c 1
 257 0 l 1
 222 0 l 1
 222 649 l 1
 15 649 l 1
 15 682 l 1
 470 682 l 1
 464 649 l 1
 257 649 l 1
 257 337 l 1
 306 392 364 426 449 426 c 0
EndSplineSet
EndChar

StartChar: uni0403
Encoding: 1027 1027 427
Width: 508
Flags: W
LayerCount: 2
Fore
SplineSet
426 837 m 1
 240 761 l 1
 230 783 l 1
 409 872 l 1
 426 837 l 1
498 682 m 1
 492 649 l 1
 154 649 l 1
 154 0 l 1
 119 0 l 1
 119 682 l 1
 498 682 l 1
EndSplineSet
EndChar

StartChar: uni0404
Encoding: 1028 1028 428
Width: 543
Flags: W
LayerCount: 2
Fore
SplineSet
498 81 m 1
 518 56 l 1
 475 18 421 -10 342 -10 c 0
 189 -10 74 112 74 344 c 0
 74 577 195 693 345 693 c 0
 421 693 466 670 510 633 c 1
 491 608 l 1
 444 644 408 660 347 660 c 0
 222 660 118 574 110 372 c 1
 393 372 l 1
 393 339 l 1
 110 339 l 1
 111 126 215 23 343 23 c 0
 418 23 457 47 498 81 c 1
EndSplineSet
EndChar

StartChar: uni0405
Encoding: 1029 1029 429
Width: 535
Flags: W
LayerCount: 2
Fore
SplineSet
265 693 m 0
 350 693 400 665 450 620 c 1
 428 596 l 1
 378 641 333 660 266 660 c 0
 171 660 111 608 111 532 c 0
 111 453 155 419 277 382 c 0
 410 342 471 297 471 184 c 0
 471 68 383 -10 257 -10 c 0
 167 -10 104 23 48 73 c 1
 70 97 l 1
 120 52 173 22 256 22 c 0
 363 22 436 84 436 182 c 0
 436 277 390 313 264 352 c 0
 126 395 75 440 75 532 c 0
 75 623 150 693 265 693 c 0
EndSplineSet
EndChar

StartChar: uni0406
Encoding: 1030 1030 430
Width: 273
Flags: W
LayerCount: 2
Fore
SplineSet
154 682 m 1
 154 0 l 1
 119 0 l 1
 119 682 l 1
 154 682 l 1
EndSplineSet
EndChar

StartChar: uni0407
Encoding: 1031 1031 431
Width: 273
Flags: W
LayerCount: 2
Fore
SplineSet
47 849 m 0
 64 849 75 837 75 822 c 0
 75 807 64 795 47 795 c 0
 31 795 20 807 20 822 c 0
 20 837 31 849 47 849 c 0
222 849 m 0
 239 849 250 837 250 822 c 0
 250 807 239 795 222 795 c 0
 205 795 194 807 194 822 c 0
 194 837 205 849 222 849 c 0
154 682 m 1
 154 0 l 1
 119 0 l 1
 119 682 l 1
 154 682 l 1
EndSplineSet
EndChar

StartChar: uni0408
Encoding: 1032 1032 432
Width: 281
Flags: W
LayerCount: 2
Fore
SplineSet
168 682 m 1
 168 89 l 2
 168 -17 141 -57 29 -106 c 1
 19 -80 l 1
 110 -37 133 -2 133 91 c 2
 133 682 l 1
 168 682 l 1
EndSplineSet
EndChar

StartChar: uni0409
Encoding: 1033 1033 433
Width: 883
Flags: W
LayerCount: 2
Fore
SplineSet
607 406 m 2
 752 406 839 342 839 210 c 0
 839 64 743 0 607 0 c 2
 459 0 l 1
 459 650 l 1
 211 650 l 1
 165 290 l 2
 138 74 135 24 49 -6 c 1
 39 23 l 1
 102 46 105 87 130 291 c 2
 180 682 l 1
 494 682 l 1
 494 406 l 1
 607 406 l 2
612 32 m 2
 726 32 803 84 803 211 c 0
 803 323 731 374 610 374 c 2
 494 374 l 1
 494 32 l 1
 612 32 l 2
EndSplineSet
EndChar

StartChar: uni040A
Encoding: 1034 1034 434
Width: 924
Flags: W
LayerCount: 2
Fore
SplineSet
659 386 m 2
 791 386 881 326 881 199 c 0
 881 61 785 0 657 0 c 2
 501 0 l 1
 501 354 l 1
 154 354 l 1
 154 0 l 1
 119 0 l 1
 119 682 l 1
 154 682 l 1
 154 386 l 1
 501 386 l 1
 501 682 l 1
 536 682 l 1
 536 386 l 1
 659 386 l 2
665 32 m 2
 770 32 844 83 844 201 c 0
 844 307 769 354 662 354 c 2
 536 354 l 1
 536 32 l 1
 665 32 l 2
EndSplineSet
EndChar

StartChar: uni040B
Encoding: 1035 1035 435
Width: 689
Flags: W
LayerCount: 2
Fore
SplineSet
449 426 m 0
 573 426 635 355 635 242 c 2
 635 0 l 1
 600 0 l 1
 600 241 l 2
 600 331 555 393 447 393 c 0
 369 393 311 361 257 295 c 1
 257 0 l 1
 222 0 l 1
 222 649 l 1
 15 649 l 1
 15 682 l 1
 470 682 l 1
 464 649 l 1
 257 649 l 1
 257 337 l 1
 306 392 364 426 449 426 c 0
EndSplineSet
EndChar

StartChar: uni040C
Encoding: 1036 1036 436
Width: 541
Flags: W
LayerCount: 2
Fore
SplineSet
388 872 m 1
 405 837 l 1
 219 761 l 1
 209 783 l 1
 388 872 l 1
511 682 m 1
 303 361 l 1
 527 0 l 1
 486 0 l 1
 272 345 l 1
 154 345 l 1
 154 0 l 1
 119 0 l 1
 119 682 l 1
 154 682 l 1
 154 376 l 1
 273 376 l 1
 473 682 l 1
 511 682 l 1
EndSplineSet
EndChar

StartChar: uni040D
Encoding: 1037 1037 437
Width: 665
Flags: W
LayerCount: 2
Fore
SplineSet
251 872 m 1
 430 783 l 1
 420 761 l 1
 234 837 l 1
 251 872 l 1
547 682 m 1
 547 0 l 1
 511 0 l 1
 511 385 l 2
 511 484 512 574 516 643 c 1
 161 0 l 1
 119 0 l 1
 119 682 l 1
 154 682 l 1
 154 296 l 2
 154 207 152 99 149 39 c 1
 504 682 l 1
 547 682 l 1
EndSplineSet
EndChar

StartChar: uni040E
Encoding: 1038 1038 438
Width: 504
Flags: W
LayerCount: 2
Fore
SplineSet
260 769 m 0
 199 769 154 799 145 845 c 1
 170 851 l 1
 182 817 213 801 260 801 c 0
 307 801 339 817 351 851 c 1
 376 845 l 1
 367 799 322 769 260 769 c 0
494 682 m 1
 291 193 l 2
 231 49 211 19 106 -10 c 1
 98 18 l 1
 181 42 204 62 257 194 c 1
 248 194 l 1
 14 682 l 1
 52 682 l 1
 270 221 l 1
 457 682 l 1
 494 682 l 1
EndSplineSet
EndChar

StartChar: uni040F
Encoding: 1039 1039 439
Width: 655
Flags: W
LayerCount: 2
Fore
SplineSet
536 682 m 1
 536 0 l 1
 345 0 l 1
 345 -142 l 1
 320 -142 l 1
 309 0 l 1
 119 0 l 1
 119 682 l 1
 154 682 l 1
 154 32 l 1
 501 32 l 1
 501 682 l 1
 536 682 l 1
EndSplineSet
EndChar

StartChar: uni0410
Encoding: 1040 1040 440
Width: 559
Flags: W
LayerCount: 2
Fore
SplineSet
498 0 m 1
 432 197 l 1
 125 197 l 1
 59 0 l 1
 24 0 l 1
 258 682 l 1
 301 682 l 1
 535 0 l 1
 498 0 l 1
136 229 m 1
 421 229 l 1
 279 654 l 1
 136 229 l 1
EndSplineSet
EndChar

StartChar: uni0411
Encoding: 1041 1041 441
Width: 562
Flags: W
LayerCount: 2
Fore
SplineSet
277 409 m 2
 422 409 509 344 509 212 c 0
 509 64 413 0 276 0 c 2
 119 0 l 1
 119 682 l 1
 445 682 l 1
 439 650 l 1
 154 650 l 1
 154 409 l 1
 277 409 l 2
284 32 m 2
 398 32 472 84 472 212 c 0
 472 327 400 378 280 378 c 2
 154 378 l 1
 154 32 l 1
 284 32 l 2
EndSplineSet
EndChar

StartChar: uni0412
Encoding: 1042 1042 442
Width: 590
Flags: W
LayerCount: 2
Fore
SplineSet
374 362 m 1
 459 357 531 305 531 186 c 0
 531 66 447 0 303 0 c 2
 119 0 l 1
 119 682 l 1
 264 682 l 2
 411 682 497 627 497 513 c 0
 497 423 449 375 374 362 c 1
268 650 m 2
 154 650 l 1
 154 375 l 1
 316 375 l 2
 403 375 461 427 461 512 c 0
 461 608 392 650 268 650 c 2
304 32 m 2
 423 32 495 82 495 186 c 0
 495 295 422 345 321 345 c 2
 154 345 l 1
 154 32 l 1
 304 32 l 2
EndSplineSet
EndChar

StartChar: uni0413
Encoding: 1043 1043 443
Width: 508
Flags: W
LayerCount: 2
Fore
SplineSet
498 682 m 1
 492 649 l 1
 154 649 l 1
 154 0 l 1
 119 0 l 1
 119 682 l 1
 498 682 l 1
EndSplineSet
EndChar

StartChar: uni0414
Encoding: 1044 1044 444
Width: 593
Flags: W
LayerCount: 2
Fore
SplineSet
475 32 m 1
 522 32 l 1
 522 -142 l 1
 497 -142 l 1
 485 0 l 1
 31 0 l 1
 20 -142 l 1
 -5 -142 l 1
 -5 32 l 1
 37 32 l 1
 79 74 108 126 141 390 c 2
 177 682 l 1
 475 682 l 1
 475 32 l 1
439 32 m 1
 439 650 l 1
 208 650 l 1
 176 391 l 2
 145 138 115 75 71 32 c 1
 439 32 l 1
EndSplineSet
EndChar

StartChar: uni0415
Encoding: 1045 1045 445
Width: 496
Flags: W
LayerCount: 2
Fore
SplineSet
449 682 m 1
 444 650 l 1
 154 650 l 1
 154 374 l 1
 405 374 l 1
 405 343 l 1
 154 343 l 1
 154 32 l 1
 455 32 l 1
 455 0 l 1
 119 0 l 1
 119 682 l 1
 449 682 l 1
EndSplineSet
EndChar

StartChar: uni0416
Encoding: 1046 1046 446
Width: 740
Flags: W
LayerCount: 2
Fore
SplineSet
710 682 m 1
 518 361 l 1
 725 0 l 1
 686 0 l 1
 488 345 l 1
 387 345 l 1
 387 0 l 1
 353 0 l 1
 353 345 l 1
 250 345 l 1
 53 0 l 1
 14 0 l 1
 221 361 l 1
 30 682 l 1
 69 682 l 1
 251 376 l 1
 353 376 l 1
 353 682 l 1
 387 682 l 1
 387 376 l 1
 488 376 l 1
 673 682 l 1
 710 682 l 1
EndSplineSet
EndChar

StartChar: uni0417
Encoding: 1047 1047 447
Width: 519
Flags: W
LayerCount: 2
Fore
SplineSet
237 -10 m 0
 156 -10 88 21 29 82 c 1
 52 103 l 1
 100 54 160 22 237 22 c 0
 346 22 424 84 424 195 c 0
 424 296 359 355 240 353 c 2
 179 352 l 1
 184 384 l 1
 235 384 l 2
 335 384 403 433 403 526 c 0
 403 606 348 660 252 660 c 0
 180 660 124 631 72 587 c 1
 52 609 l 1
 112 663 172 693 252 693 c 0
 370 693 439 623 439 525 c 0
 439 435 384 387 309 370 c 1
 392 361 460 306 460 196 c 0
 460 66 366 -10 237 -10 c 0
EndSplineSet
EndChar

StartChar: uni0418
Encoding: 1048 1048 448
Width: 665
Flags: W
LayerCount: 2
Fore
SplineSet
547 682 m 1
 547 0 l 1
 511 0 l 1
 511 385 l 2
 511 484 512 574 516 643 c 1
 161 0 l 1
 119 0 l 1
 119 682 l 1
 154 682 l 1
 154 296 l 2
 154 207 152 99 149 39 c 1
 504 682 l 1
 547 682 l 1
EndSplineSet
EndChar

StartChar: uni0419
Encoding: 1049 1049 449
Width: 665
Flags: W
LayerCount: 2
Fore
SplineSet
332 769 m 0
 271 769 226 799 217 845 c 1
 242 851 l 1
 254 817 285 801 332 801 c 0
 379 801 411 817 423 851 c 1
 448 845 l 1
 439 799 394 769 332 769 c 0
547 682 m 1
 547 0 l 1
 511 0 l 1
 511 385 l 2
 511 484 512 574 516 643 c 1
 161 0 l 1
 119 0 l 1
 119 682 l 1
 154 682 l 1
 154 296 l 2
 154 207 152 99 149 39 c 1
 504 682 l 1
 547 682 l 1
EndSplineSet
EndChar

StartChar: uni041A
Encoding: 1050 1050 450
Width: 541
Flags: W
LayerCount: 2
Fore
SplineSet
511 682 m 1
 303 361 l 1
 527 0 l 1
 486 0 l 1
 272 345 l 1
 154 345 l 1
 154 0 l 1
 119 0 l 1
 119 682 l 1
 154 682 l 1
 154 376 l 1
 273 376 l 1
 473 682 l 1
 511 682 l 1
EndSplineSet
EndChar

StartChar: uni041B
Encoding: 1051 1051 451
Width: 638
Flags: W
LayerCount: 2
Fore
SplineSet
180 682 m 1
 520 682 l 1
 520 0 l 1
 485 0 l 1
 485 650 l 1
 211 650 l 1
 165 290 l 2
 138 74 135 24 49 -6 c 1
 39 23 l 1
 102 46 105 87 130 291 c 2
 180 682 l 1
EndSplineSet
EndChar

StartChar: uni041C
Encoding: 1052 1052 452
Width: 765
Flags: W
LayerCount: 2
Fore
SplineSet
619 682 m 1
 691 0 l 1
 657 0 l 1
 620 340 l 2
 608 452 594 584 589 650 c 1
 399 83 l 1
 366 83 l 1
 172 650 l 1
 168 591 153 456 142 348 c 2
 108 0 l 1
 74 0 l 1
 144 682 l 1
 196 682 l 1
 383 126 l 1
 566 682 l 1
 619 682 l 1
EndSplineSet
EndChar

StartChar: uni041D
Encoding: 1053 1053 453
Width: 663
Flags: W
LayerCount: 2
Fore
SplineSet
509 0 m 1
 509 344 l 1
 154 344 l 1
 154 0 l 1
 119 0 l 1
 119 682 l 1
 154 682 l 1
 154 376 l 1
 509 376 l 1
 509 682 l 1
 544 682 l 1
 544 0 l 1
 509 0 l 1
EndSplineSet
EndChar

StartChar: uni041E
Encoding: 1054 1054 454
Width: 690
Flags: W
LayerCount: 2
Fore
SplineSet
345 693 m 0
 507 693 616 571 616 340 c 0
 616 118 512 -10 345 -10 c 0
 184 -10 74 114 74 339 c 0
 74 565 185 693 345 693 c 0
345 660 m 0
 206 660 110 553 110 339 c 0
 110 130 207 22 345 22 c 0
 491 22 580 130 580 340 c 0
 580 555 486 660 345 660 c 0
EndSplineSet
EndChar

StartChar: uni041F
Encoding: 1055 1055 455
Width: 658
Flags: W
LayerCount: 2
Fore
SplineSet
539 682 m 1
 539 0 l 1
 504 0 l 1
 504 650 l 1
 154 650 l 1
 154 0 l 1
 119 0 l 1
 119 682 l 1
 539 682 l 1
EndSplineSet
EndChar

StartChar: uni0420
Encoding: 1056 1056 456
Width: 562
Flags: W
LayerCount: 2
Fore
SplineSet
265 682 m 2
 420 682 509 623 509 483 c 0
 509 332 406 276 260 276 c 2
 154 276 l 1
 154 0 l 1
 119 0 l 1
 119 682 l 1
 265 682 l 2
263 308 m 2
 385 308 472 349 472 482 c 0
 472 607 398 651 265 651 c 2
 154 651 l 1
 154 308 l 1
 263 308 l 2
EndSplineSet
EndChar

StartChar: uni0421
Encoding: 1057 1057 457
Width: 543
Flags: W
LayerCount: 2
Fore
SplineSet
345 693 m 0
 421 693 466 670 510 633 c 1
 491 608 l 1
 444 644 408 660 347 660 c 0
 217 660 110 567 110 341 c 0
 110 127 214 23 343 23 c 0
 418 23 457 47 498 81 c 1
 518 56 l 1
 475 18 421 -10 342 -10 c 0
 189 -10 74 112 74 341 c 0
 74 577 195 693 345 693 c 0
EndSplineSet
EndChar

StartChar: uni0422
Encoding: 1058 1058 458
Width: 480
Flags: W
LayerCount: 2
Fore
SplineSet
470 682 m 1
 464 649 l 1
 257 649 l 1
 257 0 l 1
 222 0 l 1
 222 649 l 1
 15 649 l 1
 15 682 l 1
 470 682 l 1
EndSplineSet
EndChar

StartChar: uni0423
Encoding: 1059 1059 459
Width: 504
Flags: W
LayerCount: 2
Fore
SplineSet
494 682 m 1
 291 193 l 2
 231 49 211 19 106 -10 c 1
 98 18 l 1
 181 42 204 62 257 194 c 1
 248 194 l 1
 14 682 l 1
 52 682 l 1
 270 221 l 1
 457 682 l 1
 494 682 l 1
EndSplineSet
EndChar

StartChar: uni0424
Encoding: 1060 1060 460
Width: 787
Flags: W
LayerCount: 2
Fore
SplineSet
738 349 m 0
 738 151 628 54 411 47 c 1
 411 -20 l 1
 376 -20 l 1
 376 47 l 1
 157 53 49 158 49 347 c 0
 49 544 160 641 376 649 c 1
 376 716 l 1
 411 716 l 1
 411 649 l 1
 630 643 738 539 738 349 c 0
86 347 m 0
 86 170 184 83 377 78 c 1
 377 619 l 1
 186 609 86 533 86 347 c 0
410 78 m 1
 601 86 702 163 702 349 c 0
 702 526 603 613 410 618 c 1
 410 78 l 1
EndSplineSet
EndChar

StartChar: uni0425
Encoding: 1061 1061 461
Width: 496
Flags: W
LayerCount: 2
Fore
SplineSet
265 370 m 1
 482 0 l 1
 442 0 l 1
 245 346 l 1
 53 0 l 1
 14 0 l 1
 224 369 l 1
 36 682 l 1
 76 682 l 1
 245 392 l 1
 412 682 l 1
 450 682 l 1
 265 370 l 1
EndSplineSet
EndChar

StartChar: uni0426
Encoding: 1062 1062 462
Width: 655
Flags: W
LayerCount: 2
Fore
SplineSet
536 32 m 1
 600 32 l 1
 600 -142 l 1
 575 -142 l 1
 563 0 l 1
 119 0 l 1
 119 682 l 1
 154 682 l 1
 154 32 l 1
 501 32 l 1
 501 682 l 1
 536 682 l 1
 536 32 l 1
EndSplineSet
EndChar

StartChar: uni0427
Encoding: 1063 1063 463
Width: 581
Flags: W
LayerCount: 2
Fore
SplineSet
427 682 m 1
 462 682 l 1
 462 0 l 1
 427 0 l 1
 427 308 l 1
 380 260 321 227 239 227 c 0
 127 227 49 297 49 416 c 2
 49 682 l 1
 84 682 l 1
 84 418 l 2
 84 317 146 260 244 260 c 0
 319 260 386 294 427 346 c 1
 427 682 l 1
EndSplineSet
EndChar

StartChar: uni0428
Encoding: 1064 1064 464
Width: 902
Flags: W
LayerCount: 2
Fore
SplineSet
783 682 m 1
 783 0 l 1
 119 0 l 1
 119 682 l 1
 154 682 l 1
 154 32 l 1
 434 32 l 1
 434 682 l 1
 468 682 l 1
 468 32 l 1
 748 32 l 1
 748 682 l 1
 783 682 l 1
EndSplineSet
EndChar

StartChar: uni0429
Encoding: 1065 1065 465
Width: 902
Flags: W
LayerCount: 2
Fore
SplineSet
783 32 m 1
 847 32 l 1
 847 -142 l 1
 822 -142 l 1
 810 0 l 1
 119 0 l 1
 119 682 l 1
 154 682 l 1
 154 32 l 1
 434 32 l 1
 434 682 l 1
 468 682 l 1
 468 32 l 1
 748 32 l 1
 748 682 l 1
 783 682 l 1
 783 32 l 1
EndSplineSet
EndChar

StartChar: uni042A
Encoding: 1066 1066 466
Width: 656
Flags: W
LayerCount: 2
Fore
SplineSet
380 414 m 2
 525 414 612 349 612 214 c 0
 612 64 516 0 380 0 c 2
 222 0 l 1
 222 650 l 1
 15 650 l 1
 15 682 l 1
 257 682 l 1
 257 414 l 1
 380 414 l 2
388 32 m 2
 501 32 576 84 576 214 c 0
 576 331 504 382 383 382 c 2
 257 382 l 1
 257 32 l 1
 388 32 l 2
EndSplineSet
EndChar

StartChar: uni042B
Encoding: 1067 1067 467
Width: 782
Flags: W
LayerCount: 2
Fore
SplineSet
266 414 m 2
 412 414 499 349 499 214 c 0
 499 64 403 0 266 0 c 2
 119 0 l 1
 119 682 l 1
 154 682 l 1
 154 414 l 1
 266 414 l 2
628 682 m 1
 663 682 l 1
 663 0 l 1
 628 0 l 1
 628 682 l 1
274 32 m 2
 388 32 462 84 462 214 c 0
 462 331 390 382 269 382 c 2
 154 382 l 1
 154 32 l 1
 274 32 l 2
EndSplineSet
EndChar

StartChar: uni042C
Encoding: 1068 1068 468
Width: 552
Flags: W
LayerCount: 2
Fore
SplineSet
277 414 m 2
 422 414 509 349 509 214 c 0
 509 64 413 0 276 0 c 2
 119 0 l 1
 119 682 l 1
 154 682 l 1
 154 414 l 1
 277 414 l 2
284 32 m 2
 398 32 472 84 472 214 c 0
 472 331 400 382 280 382 c 2
 154 382 l 1
 154 32 l 1
 284 32 l 2
EndSplineSet
EndChar

StartChar: uni042D
Encoding: 1069 1069 469
Width: 519
Flags: W
LayerCount: 2
Fore
SplineSet
233 693 m 0
 352 693 446 608 446 341 c 0
 446 115 364 -10 207 -10 c 0
 122 -10 69 24 25 61 c 1
 46 85 l 1
 91 49 134 23 206 23 c 0
 340 23 410 130 410 339 c 1
 121 339 l 1
 121 372 l 1
 409 372 l 1
 401 592 328 660 232 660 c 0
 167 660 123 645 63 603 c 1
 44 627 l 1
 99 670 157 693 233 693 c 0
EndSplineSet
EndChar

StartChar: uni042E
Encoding: 1070 1070 470
Width: 863
Flags: W
LayerCount: 2
Fore
SplineSet
528 693 m 0
 688 693 790 571 790 340 c 0
 790 118 692 -10 528 -10 c 0
 372 -10 269 109 267 340 c 1
 154 340 l 1
 154 0 l 1
 119 0 l 1
 119 682 l 1
 154 682 l 1
 154 372 l 1
 267 372 l 1
 276 574 379 693 528 693 c 0
528 22 m 0
 670 22 753 130 753 340 c 0
 753 555 666 660 528 660 c 0
 393 660 303 551 303 345 c 0
 303 127 394 22 528 22 c 0
EndSplineSet
EndChar

StartChar: uni042F
Encoding: 1071 1071 471
Width: 586
Flags: W
LayerCount: 2
Fore
SplineSet
314 682 m 2
 468 682 l 1
 468 0 l 1
 433 0 l 1
 433 294 l 1
 242 294 l 1
 90 0 l 1
 49 0 l 1
 206 300 l 1
 119 324 60 374 60 484 c 0
 60 609 138 682 314 682 c 2
269 326 m 2
 433 326 l 1
 433 651 l 1
 314 651 l 2
 164 651 98 595 98 484 c 0
 98 381 164 326 269 326 c 2
EndSplineSet
EndChar

StartChar: uni0430
Encoding: 1072 1072 472
Width: 526
Flags: W
LayerCount: 2
Fore
SplineSet
413 111 m 2
 413 44 427 26 457 14 c 1
 449 -10 l 1
 408 2 386 27 384 84 c 1
 346 22 291 -10 217 -10 c 0
 118 -10 59 51 59 144 c 0
 59 252 141 310 265 310 c 2
 379 310 l 1
 379 368 l 2
 379 456 347 500 250 500 c 0
 205 500 159 488 108 468 c 1
 99 496 l 1
 151 518 199 531 252 531 c 0
 365 531 413 476 413 371 c 2
 413 111 l 2
219 21 m 0
 295 21 345 59 379 123 c 1
 379 281 l 1
 272 281 l 2
 162 281 95 236 95 145 c 0
 95 66 143 21 219 21 c 0
EndSplineSet
EndChar

StartChar: uni0431
Encoding: 1073 1073 473
Width: 569
Flags: W
LayerCount: 2
Fore
SplineSet
312 490 m 0
 432 490 500 400 500 252 c 0
 500 74 420 -10 295 -10 c 0
 167 -10 83 85 83 285 c 0
 83 501 112 606 267 663 c 0
 340 690 383 708 426 736 c 1
 442 711 l 1
 408 686 357 664 281 636 c 0
 184 599 130 553 117 365 c 1
 149 427 212 490 312 490 c 0
296 21 m 0
 394 21 465 80 465 248 c 0
 465 389 408 459 310 459 c 0
 219 459 153 398 118 318 c 1
 118 280 l 2
 116 112 180 21 296 21 c 0
EndSplineSet
EndChar

StartChar: uni0432
Encoding: 1074 1074 474
Width: 539
Flags: W
LayerCount: 2
Fore
SplineSet
344 282 m 1
 420 276 470 235 470 154 c 0
 470 55 392 0 265 0 c 2
 114 0 l 1
 114 515 l 1
 159 524 213 531 262 531 c 0
 384 531 441 473 441 395 c 0
 441 333 402 293 344 282 c 1
263 501 m 0
 218 501 184 497 148 491 c 1
 148 294 l 1
 290 294 l 2
 363 294 406 331 406 395 c 0
 406 455 367 501 263 501 c 0
265 30 m 2
 364 30 435 67 435 153 c 0
 435 229 387 265 296 265 c 2
 148 265 l 1
 148 30 l 1
 265 30 l 2
EndSplineSet
EndChar

StartChar: uni0433
Encoding: 1075 1075 475
Width: 419
Flags: W
LayerCount: 2
Fore
SplineSet
148 0 m 1
 114 0 l 1
 114 520 l 1
 409 520 l 1
 404 489 l 1
 148 489 l 1
 148 0 l 1
EndSplineSet
EndChar

StartChar: uni0434
Encoding: 1076 1076 476
Width: 547
Flags: W
LayerCount: 2
Fore
SplineSet
433 31 m 1
 479 31 l 1
 479 -142 l 1
 453 -142 l 1
 442 0 l 1
 46 0 l 1
 35 -142 l 1
 9 -142 l 1
 9 31 l 1
 40 31 l 1
 88 66 117 96 132 315 c 2
 146 520 l 1
 433 520 l 1
 433 31 l 1
397 31 m 1
 397 490 l 1
 180 490 l 1
 168 319 l 2
 154 104 124 60 75 31 c 1
 397 31 l 1
EndSplineSet
EndChar

StartChar: uni0435
Encoding: 1077 1077 477
Width: 528
Flags: W
LayerCount: 2
Fore
SplineSet
466 283 m 0
 466 268 465 252 464 243 c 1
 105 243 l 1
 111 89 184 21 283 21 c 0
 343 21 381 41 427 76 c 1
 445 52 l 1
 399 13 350 -10 283 -10 c 0
 152 -10 69 88 69 256 c 0
 69 426 149 531 271 531 c 0
 402 531 466 432 466 283 c 0
432 272 m 1
 432 295 l 2
 432 416 383 500 273 500 c 0
 184 500 109 431 105 272 c 1
 432 272 l 1
EndSplineSet
EndChar

StartChar: uni0436
Encoding: 1078 1078 478
Width: 695
Flags: W
LayerCount: 2
Fore
SplineSet
627 520 m 1
 492 279 l 1
 652 0 l 1
 615 0 l 1
 465 262 l 1
 364 262 l 1
 364 0 l 1
 332 0 l 1
 332 262 l 1
 229 262 l 1
 79 0 l 1
 44 0 l 1
 203 279 l 1
 68 520 l 1
 104 520 l 1
 231 291 l 1
 332 291 l 1
 332 520 l 1
 364 520 l 1
 364 291 l 1
 465 291 l 1
 593 520 l 1
 627 520 l 1
EndSplineSet
EndChar

StartChar: uni0437
Encoding: 1079 1079 479
Width: 463
Flags: W
LayerCount: 2
Fore
SplineSet
218 531 m 0
 309 531 375 480 375 396 c 0
 375 326 332 289 263 276 c 1
 347 271 401 235 401 148 c 0
 401 44 326 -10 218 -10 c 0
 130 -10 73 21 29 59 c 1
 49 80 l 1
 91 45 139 21 217 21 c 0
 303 21 366 57 366 149 c 0
 366 230 304 260 201 260 c 2
 144 260 l 1
 148 289 l 1
 194 289 l 2
 290 289 340 329 340 396 c 0
 340 459 294 500 217 500 c 0
 149 500 111 484 62 454 c 1
 45 477 l 1
 95 511 147 531 218 531 c 0
EndSplineSet
EndChar

StartChar: uni0438
Encoding: 1080 1080 480
Width: 587
Flags: W
LayerCount: 2
Fore
SplineSet
473 520 m 1
 473 0 l 1
 439 0 l 1
 439 384 l 2
 439 422 441 449 443 479 c 1
 153 0 l 1
 114 0 l 1
 114 520 l 1
 147 520 l 1
 147 165 l 2
 147 125 147 88 145 42 c 1
 434 520 l 1
 473 520 l 1
EndSplineSet
EndChar

StartChar: uni0439
Encoding: 1081 1081 481
Width: 587
Flags: W
LayerCount: 2
Fore
SplineSet
293 660 m 0
 232 660 187 690 178 736 c 1
 203 741 l 1
 215 708 246 691 293 691 c 0
 340 691 372 708 384 741 c 1
 409 736 l 1
 400 690 355 660 293 660 c 0
473 520 m 1
 473 0 l 1
 439 0 l 1
 439 384 l 2
 439 422 441 449 443 479 c 1
 153 0 l 1
 114 0 l 1
 114 520 l 1
 147 520 l 1
 147 165 l 2
 147 125 147 88 145 42 c 1
 434 520 l 1
 473 520 l 1
EndSplineSet
EndChar

StartChar: uni043A
Encoding: 1082 1082 482
Width: 494
Flags: W
LayerCount: 2
Fore
SplineSet
431 520 m 1
 262 279 l 1
 460 0 l 1
 420 0 l 1
 234 263 l 1
 148 263 l 1
 148 0 l 1
 114 0 l 1
 114 520 l 1
 148 520 l 1
 148 292 l 1
 234 292 l 1
 393 520 l 1
 431 520 l 1
EndSplineSet
EndChar

StartChar: uni043B
Encoding: 1083 1083 483
Width: 563
Flags: W
LayerCount: 2
Fore
SplineSet
153 520 m 1
 449 520 l 1
 449 0 l 1
 415 0 l 1
 415 489 l 1
 185 489 l 1
 169 283 l 2
 152 68 148 23 61 -6 c 1
 51 22 l 1
 114 44 119 82 135 286 c 2
 153 520 l 1
EndSplineSet
EndChar

StartChar: uni043C
Encoding: 1084 1084 484
Width: 650
Flags: W
LayerCount: 2
Fore
SplineSet
531 520 m 1
 576 0 l 1
 543 0 l 1
 515 344 l 2
 510 401 507 443 505 483 c 1
 340 69 l 1
 307 69 l 1
 145 484 l 1
 143 445 140 400 135 344 c 2
 107 0 l 1
 74 0 l 1
 119 520 l 1
 161 520 l 1
 324 105 l 1
 489 520 l 1
 531 520 l 1
EndSplineSet
EndChar

StartChar: uni043D
Encoding: 1085 1085 485
Width: 584
Flags: W
LayerCount: 2
Fore
SplineSet
437 0 m 1
 437 256 l 1
 148 256 l 1
 148 0 l 1
 114 0 l 1
 114 520 l 1
 148 520 l 1
 148 287 l 1
 437 287 l 1
 437 520 l 1
 471 520 l 1
 471 0 l 1
 437 0 l 1
EndSplineSet
EndChar

StartChar: uni043E
Encoding: 1086 1086 486
Width: 562
Flags: W
LayerCount: 2
Fore
SplineSet
282 531 m 0
 412 531 493 436 493 262 c 0
 493 90 410 -10 281 -10 c 0
 149 -10 69 91 69 259 c 0
 69 431 153 531 282 531 c 0
282 500 m 0
 174 500 105 418 105 259 c 0
 105 106 171 21 281 21 c 0
 389 21 458 104 458 262 c 0
 458 417 392 500 282 500 c 0
EndSplineSet
EndChar

StartChar: uni043F
Encoding: 1087 1087 487
Width: 581
Flags: W
LayerCount: 2
Fore
SplineSet
434 0 m 1
 434 489 l 1
 148 489 l 1
 148 0 l 1
 114 0 l 1
 114 520 l 1
 468 520 l 1
 468 0 l 1
 434 0 l 1
EndSplineSet
EndChar

StartChar: uni0440
Encoding: 1088 1088 488
Width: 566
Flags: W
LayerCount: 2
Fore
SplineSet
311 531 m 0
 432 531 497 436 497 264 c 0
 497 95 430 -10 304 -10 c 0
 233 -10 180 26 148 70 c 1
 148 -194 l 1
 114 -200 l 1
 114 520 l 1
 143 520 l 1
 145 441 l 1
 183 493 238 531 311 531 c 0
302 21 m 0
 406 21 462 106 462 264 c 0
 462 421 409 500 309 500 c 0
 235 500 191 461 148 405 c 1
 148 109 l 1
 184 57 234 21 302 21 c 0
EndSplineSet
EndChar

StartChar: uni0441
Encoding: 1089 1089 489
Width: 463
Flags: W
LayerCount: 2
Fore
SplineSet
284 531 m 0
 341 531 381 516 423 480 c 1
 404 457 l 1
 372 485 336 499 285 499 c 0
 182 499 105 418 105 257 c 0
 105 100 181 21 284 21 c 0
 336 21 375 39 409 68 c 1
 428 44 l 1
 391 11 343 -10 286 -10 c 0
 156 -10 69 87 69 257 c 0
 69 426 155 531 284 531 c 0
EndSplineSet
EndChar

StartChar: uni0442
Encoding: 1090 1090 490
Width: 420
Flags: W
LayerCount: 2
Fore
SplineSet
411 520 m 1
 406 488 l 1
 228 488 l 1
 228 0 l 1
 194 0 l 1
 194 488 l 1
 10 488 l 1
 10 520 l 1
 411 520 l 1
EndSplineSet
EndChar

StartChar: uni0443
Encoding: 1091 1091 491
Width: 451
Flags: W
LayerCount: 2
Fore
SplineSet
431 520 m 1
 249 -2 l 2
 209 -117 172 -167 58 -198 c 1
 54 -171 l 1
 158 -141 181 -99 217 0 c 1
 205 0 l 1
 19 520 l 1
 57 520 l 1
 227 27 l 1
 394 520 l 1
 431 520 l 1
EndSplineSet
EndChar

StartChar: uni0444
Encoding: 1092 1092 492
Width: 775
Flags: W
LayerCount: 2
Fore
SplineSet
547 531 m 0
 665 531 706 426 706 264 c 0
 706 99 653 -10 542 -10 c 0
 483 -10 443 19 405 67 c 1
 405 -194 l 1
 371 -200 l 1
 371 66 l 1
 335 16 294 -10 236 -10 c 0
 127 -10 69 99 69 264 c 0
 69 428 127 531 238 531 c 0
 296 531 337 502 371 449 c 1
 371 739 l 1
 405 734 l 1
 405 451 l 1
 442 503 491 531 547 531 c 0
239 21 m 0
 294 21 335 52 371 109 c 1
 371 406 l 1
 334 468 295 500 240 500 c 0
 155 500 105 419 105 264 c 0
 105 109 151 21 239 21 c 0
542 21 m 0
 628 21 671 109 671 264 c 0
 671 419 633 500 545 500 c 0
 487 500 441 467 405 407 c 1
 405 109 l 1
 446 52 488 21 542 21 c 0
EndSplineSet
EndChar

StartChar: uni0445
Encoding: 1093 1093 493
Width: 440
Flags: W
LayerCount: 2
Fore
SplineSet
240 279 m 1
 426 0 l 1
 385 0 l 1
 218 258 l 1
 54 0 l 1
 14 0 l 1
 198 278 l 1
 39 520 l 1
 79 520 l 1
 220 299 l 1
 362 520 l 1
 401 520 l 1
 240 279 l 1
EndSplineSet
EndChar

StartChar: uni0446
Encoding: 1094 1094 494
Width: 575
Flags: W
LayerCount: 2
Fore
SplineSet
461 31 m 1
 522 31 l 1
 522 -142 l 1
 497 -142 l 1
 486 0 l 1
 114 0 l 1
 114 520 l 1
 148 520 l 1
 148 31 l 1
 427 31 l 1
 427 520 l 1
 461 520 l 1
 461 31 l 1
EndSplineSet
EndChar

StartChar: uni0447
Encoding: 1095 1095 495
Width: 532
Flags: W
LayerCount: 2
Fore
SplineSet
385 520 m 1
 419 520 l 1
 419 0 l 1
 385 0 l 1
 385 257 l 1
 348 216 291 182 214 182 c 0
 132 182 64 226 64 320 c 2
 64 520 l 1
 98 520 l 1
 98 324 l 2
 98 249 142 212 221 212 c 0
 292 212 350 249 385 295 c 1
 385 520 l 1
EndSplineSet
EndChar

StartChar: uni0448
Encoding: 1096 1096 496
Width: 796
Flags: W
LayerCount: 2
Fore
SplineSet
682 520 m 1
 682 0 l 1
 114 0 l 1
 114 520 l 1
 147 520 l 1
 147 31 l 1
 381 31 l 1
 381 520 l 1
 414 520 l 1
 414 31 l 1
 648 31 l 1
 648 520 l 1
 682 520 l 1
EndSplineSet
EndChar

StartChar: uni0449
Encoding: 1097 1097 497
Width: 796
Flags: W
LayerCount: 2
Fore
SplineSet
682 31 m 1
 744 31 l 1
 744 -142 l 1
 718 -142 l 1
 707 0 l 1
 114 0 l 1
 114 520 l 1
 147 520 l 1
 147 31 l 1
 381 31 l 1
 381 520 l 1
 414 520 l 1
 414 31 l 1
 648 31 l 1
 648 520 l 1
 682 520 l 1
 682 31 l 1
EndSplineSet
EndChar

StartChar: uni044A
Encoding: 1098 1098 498
Width: 573
Flags: W
LayerCount: 2
Fore
SplineSet
336 339 m 2
 476 339 533 277 533 175 c 0
 533 54 454 0 343 0 c 2
 194 0 l 1
 194 490 l 1
 10 490 l 1
 10 520 l 1
 228 520 l 1
 228 339 l 1
 336 339 l 2
340 31 m 2
 438 31 498 71 498 175 c 0
 498 259 456 309 337 309 c 2
 228 309 l 1
 228 31 l 1
 340 31 l 2
EndSplineSet
EndChar

StartChar: uni044B
Encoding: 1099 1099 499
Width: 700
Flags: W
LayerCount: 2
Fore
SplineSet
246 339 m 2
 386 339 443 277 443 175 c 0
 443 54 363 0 253 0 c 2
 114 0 l 1
 114 520 l 1
 148 520 l 1
 148 339 l 1
 246 339 l 2
552 520 m 1
 586 520 l 1
 586 0 l 1
 552 0 l 1
 552 520 l 1
249 31 m 2
 347 31 407 71 407 175 c 0
 407 259 365 309 247 309 c 2
 148 309 l 1
 148 31 l 1
 249 31 l 2
EndSplineSet
EndChar

StartChar: uni044C
Encoding: 1100 1100 500
Width: 492
Flags: W
LayerCount: 2
Fore
SplineSet
256 339 m 2
 396 339 453 277 453 175 c 0
 453 54 373 0 263 0 c 2
 114 0 l 1
 114 520 l 1
 148 520 l 1
 148 339 l 1
 256 339 l 2
259 31 m 2
 357 31 417 71 417 175 c 0
 417 259 375 309 257 309 c 2
 148 309 l 1
 148 31 l 1
 259 31 l 2
EndSplineSet
EndChar

StartChar: uni044D
Encoding: 1101 1101 501
Width: 469
Flags: W
LayerCount: 2
Fore
SplineSet
218 531 m 0
 328 531 400 458 400 264 c 0
 400 92 330 -10 205 -10 c 0
 130 -10 85 16 44 48 c 1
 63 71 l 1
 99 43 137 21 201 21 c 0
 309 21 363 103 365 255 c 1
 118 255 l 1
 118 284 l 1
 365 284 l 1
 359 448 299 500 219 500 c 0
 160 500 121 482 80 453 c 1
 63 477 l 1
 107 511 154 531 218 531 c 0
EndSplineSet
EndChar

StartChar: uni044E
Encoding: 1102 1102 502
Width: 748
Flags: W
LayerCount: 2
Fore
SplineSet
477 531 m 0
 603 531 679 431 679 262 c 0
 679 93 601 -10 476 -10 c 0
 352 -10 278 91 276 255 c 1
 148 255 l 1
 148 0 l 1
 114 0 l 1
 114 520 l 1
 148 520 l 1
 148 286 l 1
 276 286 l 1
 284 440 361 531 477 531 c 0
476 21 m 0
 581 21 644 105 644 262 c 0
 644 415 582 500 477 500 c 0
 376 500 311 418 311 259 c 0
 311 107 373 21 476 21 c 0
EndSplineSet
EndChar

StartChar: uni044F
Encoding: 1103 1103 503
Width: 534
Flags: W
LayerCount: 2
Fore
SplineSet
262 520 m 2
 420 520 l 1
 420 0 l 1
 386 0 l 1
 386 225 l 1
 229 225 l 1
 101 0 l 1
 63 0 l 1
 195 232 l 1
 119 250 80 301 80 372 c 0
 80 469 149 520 262 520 c 2
249 255 m 2
 386 255 l 1
 386 491 l 1
 261 491 l 2
 173 492 115 455 115 373 c 0
 115 292 171 255 249 255 c 2
EndSplineSet
EndChar

StartChar: uni0450
Encoding: 1104 1104 504
Width: 528
Flags: W
LayerCount: 2
Fore
SplineSet
192 769 m 1
 372 673 l 1
 360 650 l 1
 176 734 l 1
 192 769 l 1
466 283 m 0
 466 268 465 252 464 243 c 1
 105 243 l 1
 111 89 184 21 283 21 c 0
 343 21 381 41 427 76 c 1
 445 52 l 1
 399 13 350 -10 283 -10 c 0
 152 -10 69 88 69 256 c 0
 69 426 149 531 271 531 c 0
 402 531 466 432 466 283 c 0
432 272 m 1
 432 295 l 2
 432 416 383 500 273 500 c 0
 184 500 109 431 105 272 c 1
 432 272 l 1
EndSplineSet
EndChar

StartChar: uni0451
Encoding: 1105 1105 505
Width: 528
Flags: W
LayerCount: 2
Fore
SplineSet
186 723 m 0
 203 723 214 711 214 696 c 0
 214 681 203 669 186 669 c 0
 170 669 159 681 159 696 c 0
 159 711 170 723 186 723 c 0
361 723 m 0
 378 723 389 711 389 696 c 0
 389 681 378 669 361 669 c 0
 344 669 333 681 333 696 c 0
 333 711 344 723 361 723 c 0
466 283 m 0
 466 268 465 252 464 243 c 1
 105 243 l 1
 111 89 184 21 283 21 c 0
 343 21 381 41 427 76 c 1
 445 52 l 1
 399 13 350 -10 283 -10 c 0
 152 -10 69 88 69 256 c 0
 69 426 149 531 271 531 c 0
 402 531 466 432 466 283 c 0
432 272 m 1
 432 295 l 2
 432 416 383 500 273 500 c 0
 184 500 109 431 105 272 c 1
 432 272 l 1
EndSplineSet
EndChar

StartChar: uni0452
Encoding: 1106 1106 506
Width: 587
Flags: W
LayerCount: 2
Fore
SplineSet
338 531 m 0
 431 531 478 470 478 371 c 2
 478 10 l 2
 478 -124 439 -156 357 -197 c 1
 347 -172 l 1
 416 -136 444 -107 444 10 c 2
 444 366 l 2
 444 456 408 501 335 501 c 0
 255 501 201 452 153 382 c 1
 153 0 l 1
 119 0 l 1
 119 624 l 1
 44 624 l 1
 44 654 l 1
 119 654 l 1
 119 734 l 1
 153 740 l 1
 153 654 l 1
 331 654 l 1
 331 624 l 1
 153 624 l 1
 153 424 l 1
 199 488 258 531 338 531 c 0
EndSplineSet
EndChar

StartChar: uni0453
Encoding: 1107 1107 507
Width: 419
Flags: W
LayerCount: 2
Fore
SplineSet
334 769 m 1
 350 734 l 1
 166 650 l 1
 154 673 l 1
 334 769 l 1
148 0 m 1
 114 0 l 1
 114 520 l 1
 409 520 l 1
 404 489 l 1
 148 489 l 1
 148 0 l 1
EndSplineSet
EndChar

StartChar: uni0454
Encoding: 1108 1108 508
Width: 474
Flags: W
LayerCount: 2
Fore
SplineSet
412 67 m 1
 430 41 l 1
 390 11 342 -10 283 -10 c 0
 156 -10 69 87 69 261 c 0
 69 429 158 531 286 531 c 0
 341 531 381 516 428 480 c 1
 408 456 l 1
 370 485 335 500 287 500 c 0
 188 500 112 426 105 283 c 1
 365 283 l 1
 365 254 l 1
 104 254 l 1
 105 99 184 21 283 21 c 0
 336 21 371 38 412 67 c 1
EndSplineSet
EndChar

StartChar: uni0455
Encoding: 1109 1109 509
Width: 452
Flags: W
LayerCount: 2
Fore
SplineSet
227 531 m 0
 289 531 336 512 385 473 c 1
 366 450 l 1
 321 484 283 500 228 500 c 0
 152 500 98 461 98 399 c 0
 98 341 136 316 235 290 c 0
 352 258 398 223 398 136 c 0
 398 48 325 -10 223 -10 c 0
 141 -10 89 19 44 56 c 1
 64 78 l 1
 110 42 153 21 223 21 c 0
 303 21 363 61 363 135 c 0
 363 206 331 232 218 263 c 0
 108 292 63 327 63 400 c 0
 63 477 135 531 227 531 c 0
EndSplineSet
EndChar

StartChar: uni0456
Encoding: 1110 1110 510
Width: 261
Flags: W
LayerCount: 2
Fore
SplineSet
130 734 m 0
 149 734 159 721 159 707 c 0
 159 692 149 679 130 679 c 0
 113 679 102 692 102 707 c 0
 102 721 113 734 130 734 c 0
148 520 m 1
 148 0 l 1
 114 0 l 1
 114 520 l 1
 148 520 l 1
EndSplineSet
EndChar

StartChar: uni0457
Encoding: 1111 1111 511
Width: 261
Flags: W
LayerCount: 2
Fore
SplineSet
42 723 m 0
 59 723 70 711 70 696 c 0
 70 681 59 669 42 669 c 0
 26 669 15 681 15 696 c 0
 15 711 26 723 42 723 c 0
217 723 m 0
 234 723 245 711 245 696 c 0
 245 681 234 669 217 669 c 0
 200 669 189 681 189 696 c 0
 189 711 200 723 217 723 c 0
148 520 m 1
 148 0 l 1
 114 0 l 1
 114 520 l 1
 148 520 l 1
EndSplineSet
EndChar

StartChar: uni0458
Encoding: 1112 1112 512
Width: 262
Flags: W
LayerCount: 2
Fore
SplineSet
130 734 m 0
 149 734 159 721 159 707 c 0
 159 692 149 679 130 679 c 0
 113 679 102 692 102 707 c 0
 102 721 113 734 130 734 c 0
149 520 m 1
 149 10 l 2
 149 -124 109 -156 27 -197 c 1
 17 -172 l 1
 86 -136 115 -107 115 10 c 2
 115 520 l 1
 149 520 l 1
EndSplineSet
EndChar

